<svg xmlns="http://www.w3.org/2000/svg" xmlns:xlink="http://www.w3.org/1999/xlink" width="740" height="340" viewBox="0 0 740 340" fill="none">
<path     fill="#141414"  d="M234 15.1701L234 1L0 1L0 15.1701L234 15.1701">
</path>
<path     fill="#1A1A1A"  d="M234 292L234 1L0 1L0 292L234 292">
</path>
<path fill-rule="evenodd"  fill="rgba(44, 44, 44, 1)"  d="M232.5 2.5L232.5 290.5L1.5 290.5L1.5 2.5L232.5 2.5ZM232.5 1L234 1L234 292L0 292L0 1L232.5 1Z">
</path>
<path    stroke="rgba(44, 44, 44, 1)" stroke-width="1.5"    d="M0 15.1702L234 15.1702">
</path>
<ellipse cx="9.749911308288574" cy="7.93960976600647" rx="2.659090995788574" ry="2.6568949222564693"   fill="#535353" >
</ellipse>
<ellipse cx="16.840975761413574" cy="7.93960976600647" rx="2.659090995788574" ry="2.6568949222564693"   fill="#535353" >
</ellipse>
<ellipse cx="23.931796073913574" cy="7.93960976600647" rx="2.659090995788574" ry="2.6568949222564693"   fill="#535353" >
</ellipse>
<ellipse cx="26.59088706970215" cy="29.34015703201294" rx="5.31818199157715" ry="5.31378984451294"   fill="#464646" >
</ellipse>
<rect  x="145.36376953125" y="29.340087890625" width="17.72727394104004" height="1.771263003349304" rx="0.885631501674652"    fill="#343434" >
</rect>
<rect  x="21.272705078125" y="89" width="33.68181991577148" height="1.771263003349304" rx="0.885631501674652"    fill="#343434" >
</rect>
<rect  x="21.272705078125" y="97.8564453125" width="23.04545593261719" height="1.771263003349304" rx="0.885631501674652"    fill="#343434" >
</rect>
<rect  x="53.181884765625" y="97.8564453125" width="35.45454788208008" height="1.771263003349304" rx="0.885631501674652"    fill="#343434" >
</rect>
<rect  x="97.5" y="97.8564453125" width="10.6363639831543" height="1.771263003349304" rx="0.885631501674652"    fill="#343434" >
</rect>
<rect  x="63.818115234375" y="89" width="26.59090995788574" height="1.771263003349304" rx="0.885631501674652"    fill="#343434" >
</rect>
<rect  x="99.272705078125" y="89" width="26.59090995788574" height="1.771263003349304" rx="0.885631501674652"    fill="#343434" >
</rect>
<rect  x="171.95458984375" y="29.340087890625" width="17.72727394104004" height="1.771263003349304" rx="0.885631501674652"    fill="#343434" >
</rect>
<rect  x="200.318115234375" y="29.340087890625" width="17.72727394104004" height="1.771263003349304" rx="0.885631501674652"    fill="#343434" >
</rect>
<g >
<path     fill="#272DF4"  d="M21.8672 60.1016L21.8672 51.5703L24.3867 51.5703Q25.5176 51.5703 26.3936 52.0742Q27.2695 52.5781 27.75 53.5039Q28.2305 54.4297 28.2305 55.625L28.2305 56.0527Q28.2305 57.2656 27.7471 58.1855Q27.2637 59.1055 26.3701 59.6035Q25.4766 60.1016 24.3223 60.1016L21.8672 60.1016ZM23.3496 52.7656L23.3496 58.918L24.3164 58.918Q25.4824 58.918 26.1064 58.1885Q26.7305 57.459 26.7422 56.0938L26.7422 55.6191Q26.7422 54.2305 26.1387 53.498Q25.5352 52.7656 24.3867 52.7656L23.3496 52.7656ZM32.3613 60.2188Q31.0078 60.2188 30.167 59.3662Q29.3262 58.5137 29.3262 57.0957L29.3262 56.9199Q29.3262 55.9707 29.6924 55.2236Q30.0586 54.4766 30.7207 54.0605Q31.3828 53.6445 32.1973 53.6445Q33.4922 53.6445 34.1982 54.4707Q34.9043 55.2969 34.9043 56.8086L34.9043 57.3828L30.7617 57.3828Q30.8262 58.168 31.2861 58.625Q31.7461 59.082 32.4434 59.082Q33.4219 59.082 34.0371 58.291L34.8047 59.0234Q34.4238 59.5918 33.7881 59.9053Q33.1523 60.2188 32.3613 60.2188ZM32.1914 54.7871Q31.6055 54.7871 31.2451 55.1973Q30.8848 55.6074 30.7852 56.3398L33.498 56.3398L33.498 56.2344Q33.4512 55.5195 33.1172 55.1533Q32.7832 54.7871 32.1914 54.7871ZM38.2441 58.2969L39.5859 53.7617L41.0566 53.7617L38.8594 60.1016L37.623 60.1016L35.4082 53.7617L36.8848 53.7617L38.2441 58.2969ZM44.7363 60.2188Q43.3828 60.2188 42.542 59.3662Q41.7012 58.5137 41.7012 57.0957L41.7012 56.9199Q41.7012 55.9707 42.0674 55.2236Q42.4336 54.4766 43.0957 54.0605Q43.7578 53.6445 44.5723 53.6445Q45.8672 53.6445 46.5732 54.4707Q47.2793 55.2969 47.2793 56.8086L47.2793 57.3828L43.1367 57.3828Q43.2012 58.168 43.6611 58.625Q44.1211 59.082 44.8184 59.082Q45.7969 59.082 46.4121 58.291L47.1797 59.0234Q46.7988 59.5918 46.1631 59.9053Q45.5273 60.2188 44.7363 60.2188ZM44.5664 54.7871Q43.9805 54.7871 43.6201 55.1973Q43.2598 55.6074 43.1602 56.3398L45.873 56.3398L45.873 56.2344Q45.8262 55.5195 45.4922 55.1533Q45.1582 54.7871 44.5664 54.7871ZM49.8984 60.1016L48.4746 60.1016L48.4746 51.1016L49.8984 51.1016L49.8984 60.1016ZM51.1816 56.873Q51.1816 55.9414 51.5508 55.1943Q51.9199 54.4473 52.5879 54.0459Q53.2559 53.6445 54.123 53.6445Q55.4062 53.6445 56.2061 54.4707Q57.0059 55.2969 57.0703 56.6621L57.0762 56.9961Q57.0762 57.9336 56.7158 58.6719Q56.3555 59.4102 55.6846 59.8145Q55.0137 60.2188 54.1348 60.2188Q52.793 60.2188 51.9873 59.3252Q51.1816 58.4316 51.1816 56.9434L51.1816 56.873ZM52.6055 56.9961Q52.6055 57.9746 53.0098 58.5283Q53.4141 59.082 54.1348 59.082Q54.8555 59.082 55.2568 58.5195Q55.6582 57.957 55.6582 56.873Q55.6582 55.9121 55.2451 55.3496Q54.832 54.7871 54.123 54.7871Q53.4258 54.7871 53.0156 55.3408Q52.6055 55.8945 52.6055 56.9961ZM63.832 56.9961Q63.832 58.4668 63.1641 59.3428Q62.4961 60.2188 61.3711 60.2188Q60.3281 60.2188 59.7012 59.5332L59.7012 62.5391L58.2773 62.5391L58.2773 53.7617L59.5898 53.7617L59.6484 54.4062Q60.2754 53.6445 61.3535 53.6445Q62.5137 53.6445 63.1729 54.5088Q63.832 55.373 63.832 56.9082L63.832 56.9961ZM62.4141 56.873Q62.4141 55.9238 62.0361 55.3672Q61.6582 54.8105 60.9551 54.8105Q60.082 54.8105 59.7012 55.5312L59.7012 58.3438Q60.0879 59.082 60.9668 59.082Q61.6465 59.082 62.0303 58.5342Q62.4141 57.9863 62.4141 56.873ZM66.375 53.7617L66.416 54.4238Q67.084 53.6445 68.2441 53.6445Q69.5156 53.6445 69.9844 54.6172Q70.6758 53.6445 71.9297 53.6445Q72.9785 53.6445 73.4912 54.2246Q74.0039 54.8047 74.0156 55.9355L74.0156 60.1016L72.5918 60.1016L72.5918 55.9766Q72.5918 55.373 72.3281 55.0918Q72.0645 54.8105 71.4551 54.8105Q70.9688 54.8105 70.6611 55.0713Q70.3535 55.332 70.2305 55.7539L70.2363 60.1016L68.8125 60.1016L68.8125 55.9297Q68.7832 54.8105 67.6699 54.8105Q66.8145 54.8105 66.457 55.5078L66.457 60.1016L65.0332 60.1016L65.0332 53.7617L66.375 53.7617ZM78.2695 60.2188Q76.916 60.2188 76.0752 59.3662Q75.2344 58.5137 75.2344 57.0957L75.2344 56.9199Q75.2344 55.9707 75.6006 55.2236Q75.9668 54.4766 76.6289 54.0605Q77.291 53.6445 78.1055 53.6445Q79.4004 53.6445 80.1064 54.4707Q80.8125 55.2969 80.8125 56.8086L80.8125 57.3828L76.6699 57.3828Q76.7344 58.168 77.1943 58.625Q77.6543 59.082 78.3516 59.082Q79.3301 59.082 79.9453 58.291L80.7129 59.0234Q80.332 59.5918 79.6963 59.9053Q79.0605 60.2188 78.2695 60.2188ZM78.0996 54.7871Q77.5137 54.7871 77.1533 55.1973Q76.793 55.6074 76.6934 56.3398L79.4062 56.3398L79.4062 56.2344Q79.3594 55.5195 79.0254 55.1533Q78.6914 54.7871 78.0996 54.7871ZM83.2383 53.7617L83.2793 54.4941Q83.9824 53.6445 85.125 53.6445Q87.1055 53.6445 87.1406 55.9121L87.1406 60.1016L85.7168 60.1016L85.7168 55.9941Q85.7168 55.3906 85.4561 55.1006Q85.1953 54.8105 84.6035 54.8105Q83.7422 54.8105 83.3203 55.5898L83.3203 60.1016L81.8965 60.1016L81.8965 53.7617L83.2383 53.7617ZM90.375 52.2207L90.375 53.7617L91.4941 53.7617L91.4941 54.8164L90.375 54.8164L90.375 58.3555Q90.375 58.7188 90.5186 58.8799Q90.6621 59.041 91.0312 59.041Q91.2773 59.041 91.5293 58.9824L91.5293 60.084Q91.043 60.2188 90.5918 60.2188Q88.9512 60.2188 88.9512 58.4082L88.9512 54.8164L87.9082 54.8164L87.9082 53.7617L88.9512 53.7617L88.9512 52.2207L90.375 52.2207ZM99.3398 60.1016Q99.2461 59.9199 99.1758 59.5098Q98.4961 60.2188 97.5117 60.2188Q96.5566 60.2188 95.9531 59.6738Q95.3496 59.1289 95.3496 58.3262Q95.3496 57.3125 96.1025 56.7705Q96.8555 56.2285 98.2559 56.2285L99.1289 56.2285L99.1289 55.8125Q99.1289 55.3203 98.8535 55.0244Q98.5781 54.7285 98.0156 54.7285Q97.5293 54.7285 97.2188 54.9717Q96.9082 55.2148 96.9082 55.5898L95.4844 55.5898Q95.4844 55.0684 95.8301 54.6143Q96.1758 54.1602 96.7705 53.9023Q97.3652 53.6445 98.0977 53.6445Q99.2109 53.6445 99.873 54.2041Q100.535 54.7637 100.553 55.7773L100.553 58.6367Q100.553 59.4922 100.793 60.002L100.793 60.1016L99.3398 60.1016ZM97.7754 59.0762Q98.1973 59.0762 98.5693 58.8711Q98.9414 58.666 99.1289 58.3203L99.1289 57.125L98.3613 57.125Q97.5703 57.125 97.1719 57.4004Q96.7734 57.6758 96.7734 58.1797Q96.7734 58.5898 97.0459 58.833Q97.3184 59.0762 97.7754 59.0762ZM103.365 53.7617L103.406 54.4941Q104.109 53.6445 105.252 53.6445Q107.232 53.6445 107.268 55.9121L107.268 60.1016L105.844 60.1016L105.844 55.9941Q105.844 55.3906 105.583 55.1006Q105.322 54.8105 104.73 54.8105Q103.869 54.8105 103.447 55.5898L103.447 60.1016L102.023 60.1016L102.023 53.7617L103.365 53.7617ZM108.451 56.8848Q108.451 55.4199 109.131 54.5322Q109.811 53.6445 110.953 53.6445Q111.961 53.6445 112.582 54.3477L112.582 51.1016L114.006 51.1016L114.006 60.1016L112.717 60.1016L112.646 59.4453Q112.008 60.2188 110.941 60.2188Q109.828 60.2188 109.14 59.3223Q108.451 58.4258 108.451 56.8848ZM109.875 57.0078Q109.875 57.9746 110.247 58.5166Q110.619 59.0586 111.305 59.0586Q112.178 59.0586 112.582 58.2793L112.582 55.5723Q112.189 54.8105 111.316 54.8105Q110.625 54.8105 110.25 55.3584Q109.875 55.9062 109.875 57.0078ZM118.195 56.8848Q118.195 55.4199 118.875 54.5322Q119.555 53.6445 120.697 53.6445Q121.705 53.6445 122.326 54.3477L122.326 51.1016L123.75 51.1016L123.75 60.1016L122.461 60.1016L122.391 59.4453Q121.752 60.2188 120.686 60.2188Q119.572 60.2188 118.884 59.3223Q118.195 58.4258 118.195 56.8848ZM119.619 57.0078Q119.619 57.9746 119.991 58.5166Q120.363 59.0586 121.049 59.0586Q121.922 59.0586 122.326 58.2793L122.326 55.5723Q121.934 54.8105 121.061 54.8105Q120.369 54.8105 119.994 55.3584Q119.619 55.9062 119.619 57.0078ZM128.027 60.2188Q126.674 60.2188 125.833 59.3662Q124.992 58.5137 124.992 57.0957L124.992 56.9199Q124.992 55.9707 125.358 55.2236Q125.725 54.4766 126.387 54.0605Q127.049 53.6445 127.863 53.6445Q129.158 53.6445 129.864 54.4707Q130.57 55.2969 130.57 56.8086L130.57 57.3828L126.428 57.3828Q126.492 58.168 126.952 58.625Q127.412 59.082 128.109 59.082Q129.088 59.082 129.703 58.291L130.471 59.0234Q130.09 59.5918 129.454 59.9053Q128.818 60.2188 128.027 60.2188ZM127.857 54.7871Q127.271 54.7871 126.911 55.1973Q126.551 55.6074 126.451 56.3398L129.164 56.3398L129.164 56.2344Q129.117 55.5195 128.783 55.1533Q128.449 54.7871 127.857 54.7871ZM137.227 56.9961Q137.227 58.4668 136.559 59.3428Q135.891 60.2188 134.766 60.2188Q133.723 60.2188 133.096 59.5332L133.096 62.5391L131.672 62.5391L131.672 53.7617L132.984 53.7617L133.043 54.4062Q133.67 53.6445 134.748 53.6445Q135.908 53.6445 136.567 54.5088Q137.227 55.373 137.227 56.9082L137.227 56.9961ZM135.809 56.873Q135.809 55.9238 135.431 55.3672Q135.053 54.8105 134.35 54.8105Q133.477 54.8105 133.096 55.5312L133.096 58.3438Q133.482 59.082 134.361 59.082Q135.041 59.082 135.425 58.5342Q135.809 57.9863 135.809 56.873ZM139.945 60.1016L138.521 60.1016L138.521 51.1016L139.945 51.1016L139.945 60.1016ZM141.229 56.873Q141.229 55.9414 141.598 55.1943Q141.967 54.4473 142.635 54.0459Q143.303 53.6445 144.17 53.6445Q145.453 53.6445 146.253 54.4707Q147.053 55.2969 147.117 56.6621L147.123 56.9961Q147.123 57.9336 146.763 58.6719Q146.402 59.4102 145.731 59.8145Q145.061 60.2188 144.182 60.2188Q142.84 60.2188 142.034 59.3252Q141.229 58.4316 141.229 56.9434L141.229 56.873ZM142.652 56.9961Q142.652 57.9746 143.057 58.5283Q143.461 59.082 144.182 59.082Q144.902 59.082 145.304 58.5195Q145.705 57.957 145.705 56.873Q145.705 55.9121 145.292 55.3496Q144.879 54.7871 144.17 54.7871Q143.473 54.7871 143.062 55.3408Q142.652 55.8945 142.652 56.9961ZM150.545 58.0625L151.834 53.7617L153.352 53.7617L150.832 61.0625Q150.252 62.6621 148.863 62.6621Q148.553 62.6621 148.178 62.5566L148.178 61.4551L148.447 61.4727Q148.986 61.4727 149.259 61.2764Q149.531 61.0801 149.689 60.6172L149.895 60.0723L147.668 53.7617L149.203 53.7617L150.545 58.0625ZM155.508 53.7617L155.549 54.4238Q156.217 53.6445 157.377 53.6445Q158.648 53.6445 159.117 54.6172Q159.809 53.6445 161.062 53.6445Q162.111 53.6445 162.624 54.2246Q163.137 54.8047 163.148 55.9355L163.148 60.1016L161.725 60.1016L161.725 55.9766Q161.725 55.373 161.461 55.0918Q161.197 54.8105 160.588 54.8105Q160.102 54.8105 159.794 55.0713Q159.486 55.332 159.363 55.7539L159.369 60.1016L157.945 60.1016L157.945 55.9297Q157.916 54.8105 156.803 54.8105Q155.947 54.8105 155.59 55.5078L155.59 60.1016L154.166 60.1016L154.166 53.7617L155.508 53.7617ZM167.402 60.2188Q166.049 60.2188 165.208 59.3662Q164.367 58.5137 164.367 57.0957L164.367 56.9199Q164.367 55.9707 164.733 55.2236Q165.1 54.4766 165.762 54.0605Q166.424 53.6445 167.238 53.6445Q168.533 53.6445 169.239 54.4707Q169.945 55.2969 169.945 56.8086L169.945 57.3828L165.803 57.3828Q165.867 58.168 166.327 58.625Q166.787 59.082 167.484 59.082Q168.463 59.082 169.078 58.291L169.846 59.0234Q169.465 59.5918 168.829 59.9053Q168.193 60.2188 167.402 60.2188ZM167.232 54.7871Q166.646 54.7871 166.286 55.1973Q165.926 55.6074 165.826 56.3398L168.539 56.3398L168.539 56.2344Q168.492 55.5195 168.158 55.1533Q167.824 54.7871 167.232 54.7871ZM172.371 53.7617L172.412 54.4941Q173.115 53.6445 174.258 53.6445Q176.238 53.6445 176.273 55.9121L176.273 60.1016L174.85 60.1016L174.85 55.9941Q174.85 55.3906 174.589 55.1006Q174.328 54.8105 173.736 54.8105Q172.875 54.8105 172.453 55.5898L172.453 60.1016L171.029 60.1016L171.029 53.7617L172.371 53.7617ZM179.508 52.2207L179.508 53.7617L180.627 53.7617L180.627 54.8164L179.508 54.8164L179.508 58.3555Q179.508 58.7188 179.651 58.8799Q179.795 59.041 180.164 59.041Q180.41 59.041 180.662 58.9824L180.662 60.084Q180.176 60.2188 179.725 60.2188Q178.084 60.2188 178.084 58.4082L178.084 54.8164L177.041 54.8164L177.041 53.7617L178.084 53.7617L178.084 52.2207L179.508 52.2207ZM27.2812 70.9961Q27.2812 72.4668 26.6133 73.3428Q25.9453 74.2188 24.8203 74.2188Q23.7773 74.2188 23.1504 73.5332L23.1504 76.5391L21.7266 76.5391L21.7266 67.7617L23.0391 67.7617L23.0977 68.4062Q23.7246 67.6445 24.8027 67.6445Q25.9629 67.6445 26.6221 68.5088Q27.2812 69.373 27.2812 70.9082L27.2812 70.9961ZM25.8633 70.873Q25.8633 69.9238 25.4854 69.3672Q25.1074 68.8105 24.4043 68.8105Q23.5312 68.8105 23.1504 69.5312L23.1504 72.3438Q23.5371 73.082 24.416 73.082Q25.0957 73.082 25.4795 72.5342Q25.8633 71.9863 25.8633 70.873ZM30 74.1016L28.5762 74.1016L28.5762 65.1016L30 65.1016L30 74.1016ZM35.3379 74.1016Q35.2441 73.9199 35.1738 73.5098Q34.4941 74.2188 33.5098 74.2188Q32.5547 74.2188 31.9512 73.6738Q31.3477 73.1289 31.3477 72.3262Q31.3477 71.3125 32.1006 70.7705Q32.8535 70.2285 34.2539 70.2285L35.127 70.2285L35.127 69.8125Q35.127 69.3203 34.8516 69.0244Q34.5762 68.7285 34.0137 68.7285Q33.5273 68.7285 33.2168 68.9717Q32.9062 69.2148 32.9062 69.5898L31.4824 69.5898Q31.4824 69.0684 31.8281 68.6143Q32.1738 68.1602 32.7686 67.9023Q33.3633 67.6445 34.0957 67.6445Q35.209 67.6445 35.8711 68.2041Q36.5332 68.7637 36.5508 69.7773L36.5508 72.6367Q36.5508 73.4922 36.791 74.002L36.791 74.1016L35.3379 74.1016ZM33.7734 73.0762Q34.1953 73.0762 34.5674 72.8711Q34.9395 72.666 35.127 72.3203L35.127 71.125L34.3594 71.125Q33.5684 71.125 33.1699 71.4004Q32.7715 71.6758 32.7715 72.1797Q32.7715 72.5898 33.0439 72.833Q33.3164 73.0762 33.7734 73.0762ZM39.8262 66.2207L39.8262 67.7617L40.9453 67.7617L40.9453 68.8164L39.8262 68.8164L39.8262 72.3555Q39.8262 72.7188 39.9697 72.8799Q40.1133 73.041 40.4824 73.041Q40.7285 73.041 40.9805 72.9824L40.9805 74.084Q40.4941 74.2188 40.043 74.2188Q38.4023 74.2188 38.4023 72.4082L38.4023 68.8164L37.3594 68.8164L37.3594 67.7617L38.4023 67.7617L38.4023 66.2207L39.8262 66.2207ZM42.5332 74.1016L42.5332 68.8164L41.5664 68.8164L41.5664 67.7617L42.5332 67.7617L42.5332 67.1816Q42.5332 66.127 43.1191 65.5527Q43.7051 64.9785 44.7598 64.9785Q45.1348 64.9785 45.5566 65.084L45.5215 66.1973Q45.2871 66.1504 44.9766 66.1504Q43.957 66.1504 43.957 67.1992L43.957 67.7617L45.2461 67.7617L45.2461 68.8164L43.957 68.8164L43.957 74.1016L42.5332 74.1016ZM46.0195 70.873Q46.0195 69.9414 46.3887 69.1943Q46.7578 68.4473 47.4258 68.0459Q48.0938 67.6445 48.9609 67.6445Q50.2441 67.6445 51.0439 68.4707Q51.8438 69.2969 51.9082 70.6621L51.9141 70.9961Q51.9141 71.9336 51.5537 72.6719Q51.1934 73.4102 50.5225 73.8145Q49.8516 74.2188 48.9727 74.2188Q47.6309 74.2188 46.8252 73.3252Q46.0195 72.4316 46.0195 70.9434L46.0195 70.873ZM47.4434 70.9961Q47.4434 71.9746 47.8477 72.5283Q48.252 73.082 48.9727 73.082Q49.6934 73.082 50.0947 72.5195Q50.4961 71.957 50.4961 70.873Q50.4961 69.9121 50.083 69.3496Q49.6699 68.7871 48.9609 68.7871Q48.2637 68.7871 47.8535 69.3408Q47.4434 69.8945 47.4434 70.9961ZM56.4375 69.0625Q56.1562 69.0156 55.8574 69.0156Q54.8789 69.0156 54.5391 69.7656L54.5391 74.1016L53.1152 74.1016L53.1152 67.7617L54.4746 67.7617L54.5098 68.4707Q55.0254 67.6445 55.9395 67.6445Q56.2441 67.6445 56.4434 67.7266L56.4375 69.0625ZM58.6758 67.7617L58.7168 68.4238Q59.3848 67.6445 60.5449 67.6445Q61.8164 67.6445 62.2852 68.6172Q62.9766 67.6445 64.2305 67.6445Q65.2793 67.6445 65.792 68.2246Q66.3047 68.8047 66.3164 69.9355L66.3164 74.1016L64.8926 74.1016L64.8926 69.9766Q64.8926 69.373 64.6289 69.0918Q64.3652 68.8105 63.7559 68.8105Q63.2695 68.8105 62.9619 69.0713Q62.6543 69.332 62.5312 69.7539L62.5371 74.1016L61.1133 74.1016L61.1133 69.9297Q61.084 68.8105 59.9707 68.8105Q59.1152 68.8105 58.7578 69.5078L58.7578 74.1016L57.334 74.1016L57.334 67.7617L58.6758 67.7617Z">
</path>
</g>
<rect  x="21.272705078125" y="117.34033203125" width="49.63636779785156" height="15.94136905670166" rx="4"    fill="#272DF4" >
</rect>
<g filter="url(#filter_6CA14478-E394-46A5-8878-0906850F1148)">
<path fill-rule="evenodd"  fill="rgba(44, 44, 44, 1)"  d="M109.455 117.34L83.7727 117.34C81.5636 117.34 79.7727 119.131 79.7727 121.34L79.7727 129.282C79.7727 131.491 81.5636 133.282 83.7727 133.282L109.455 133.282C111.664 133.282 113.455 131.491 113.455 129.282L113.455 121.34C113.455 119.131 111.664 117.34 109.455 117.34ZM80.7727 121.34C80.7727 119.683 82.1159 118.34 83.7727 118.34L109.455 118.34C111.111 118.34 112.455 119.683 112.455 121.34L112.455 129.282C112.455 130.939 111.111 132.282 109.455 132.282L83.7727 132.282C82.1159 132.282 80.7727 130.939 80.7727 129.282L80.7727 121.34Z">
</path>
</g>
<rect  x="31.9091796875" y="124.42529296875" width="28.36363792419434" height="1.771263003349304" rx="0.885631501674652"    fill="#CBCBCB" >
</rect>
<rect  x="90.4091796875" y="124.42529296875" width="12.40909194946289" height="1.771263003349304" rx="0.885631501674652"    fill="#535353" >
</rect>
<path     fill="#141414"  d="M515 63.1701L515 49L281 49L281 63.1701L515 63.1701">
</path>
<path     fill="#1A1A1A"  d="M515 340L515 49L281 49L281 340L515 340">
</path>
<path fill-rule="evenodd"  fill="rgba(44, 44, 44, 1)"  d="M513.5 50.5L513.5 338.5L282.5 338.5L282.5 50.5L513.5 50.5ZM513.5 49L515 49L515 340L281 340L281 49L513.5 49Z">
</path>
<path    stroke="rgba(44, 44, 44, 1)" stroke-width="1.5"    d="M281 63.1702L515 63.1702">
</path>
<ellipse cx="290.7499113082886" cy="55.93960976600647" rx="2.659090995788574" ry="2.6568949222564693"   fill="#535353" >
</ellipse>
<ellipse cx="297.8409757614136" cy="55.93960976600647" rx="2.659090995788574" ry="2.6568949222564693"   fill="#535353" >
</ellipse>
<ellipse cx="304.9317960739136" cy="55.93960976600647" rx="2.659090995788574" ry="2.6568949222564693"   fill="#535353" >
</ellipse>
<ellipse cx="307.59088706970215" cy="77.34015703201294" rx="5.31818199157715" ry="5.31378984451294"   fill="#464646" >
</ellipse>
<rect  x="426.36376953125" y="77.340087890625" width="17.72727394104004" height="1.771263003349304" rx="0.885631501674652"    fill="#343434" >
</rect>
<rect  x="302.272705078125" y="137" width="33.68181991577148" height="1.771263003349304" rx="0.885631501674652"    fill="#343434" >
</rect>
<rect  x="302.272705078125" y="145.8564453125" width="23.04545593261719" height="1.771263003349304" rx="0.885631501674652"    fill="#343434" >
</rect>
<rect  x="334.181884765625" y="145.8564453125" width="35.45454788208008" height="1.771263003349304" rx="0.885631501674652"    fill="#343434" >
</rect>
<rect  x="378.5" y="145.8564453125" width="10.6363639831543" height="1.771263003349304" rx="0.885631501674652"    fill="#343434" >
</rect>
<rect  x="344.818115234375" y="137" width="26.59090995788574" height="1.771263003349304" rx="0.885631501674652"    fill="#343434" >
</rect>
<rect  x="380.272705078125" y="137" width="26.59090995788574" height="1.771263003349304" rx="0.885631501674652"    fill="#343434" >
</rect>
<rect  x="452.95458984375" y="77.340087890625" width="17.72727394104004" height="1.771263003349304" rx="0.885631501674652"    fill="#343434" >
</rect>
<rect  x="481.318115234375" y="77.340087890625" width="17.72727394104004" height="1.771263003349304" rx="0.885631501674652"    fill="#343434" >
</rect>
<g >
<path     fill="#272DF4"  d="M302.867 108.102L302.867 99.5703L305.387 99.5703Q306.518 99.5703 307.394 100.074Q308.27 100.578 308.75 101.504Q309.23 102.43 309.23 103.625L309.23 104.053Q309.23 105.266 308.747 106.186Q308.264 107.105 307.37 107.604Q306.477 108.102 305.322 108.102L302.867 108.102ZM304.35 100.766L304.35 106.918L305.316 106.918Q306.482 106.918 307.106 106.188Q307.73 105.459 307.742 104.094L307.742 103.619Q307.742 102.23 307.139 101.498Q306.535 100.766 305.387 100.766L304.35 100.766ZM313.361 108.219Q312.008 108.219 311.167 107.366Q310.326 106.514 310.326 105.096L310.326 104.92Q310.326 103.971 310.692 103.224Q311.059 102.477 311.721 102.061Q312.383 101.645 313.197 101.645Q314.492 101.645 315.198 102.471Q315.904 103.297 315.904 104.809L315.904 105.383L311.762 105.383Q311.826 106.168 312.286 106.625Q312.746 107.082 313.443 107.082Q314.422 107.082 315.037 106.291L315.805 107.023Q315.424 107.592 314.788 107.905Q314.152 108.219 313.361 108.219ZM313.191 102.787Q312.605 102.787 312.245 103.197Q311.885 103.607 311.785 104.34L314.498 104.34L314.498 104.234Q314.451 103.52 314.117 103.153Q313.783 102.787 313.191 102.787ZM319.244 106.297L320.586 101.762L322.057 101.762L319.859 108.102L318.623 108.102L316.408 101.762L317.885 101.762L319.244 106.297ZM325.736 108.219Q324.383 108.219 323.542 107.366Q322.701 106.514 322.701 105.096L322.701 104.92Q322.701 103.971 323.067 103.224Q323.434 102.477 324.096 102.061Q324.758 101.645 325.572 101.645Q326.867 101.645 327.573 102.471Q328.279 103.297 328.279 104.809L328.279 105.383L324.137 105.383Q324.201 106.168 324.661 106.625Q325.121 107.082 325.818 107.082Q326.797 107.082 327.412 106.291L328.18 107.023Q327.799 107.592 327.163 107.905Q326.527 108.219 325.736 108.219ZM325.566 102.787Q324.98 102.787 324.62 103.197Q324.26 103.607 324.16 104.34L326.873 104.34L326.873 104.234Q326.826 103.52 326.492 103.153Q326.158 102.787 325.566 102.787ZM330.898 108.102L329.475 108.102L329.475 99.1016L330.898 99.1016L330.898 108.102ZM332.182 104.873Q332.182 103.941 332.551 103.194Q332.92 102.447 333.588 102.046Q334.256 101.645 335.123 101.645Q336.406 101.645 337.206 102.471Q338.006 103.297 338.07 104.662L338.076 104.996Q338.076 105.934 337.716 106.672Q337.355 107.41 336.685 107.814Q336.014 108.219 335.135 108.219Q333.793 108.219 332.987 107.325Q332.182 106.432 332.182 104.943L332.182 104.873ZM333.605 104.996Q333.605 105.975 334.01 106.528Q334.414 107.082 335.135 107.082Q335.855 107.082 336.257 106.52Q336.658 105.957 336.658 104.873Q336.658 103.912 336.245 103.35Q335.832 102.787 335.123 102.787Q334.426 102.787 334.016 103.341Q333.605 103.895 333.605 104.996ZM344.832 104.996Q344.832 106.467 344.164 107.343Q343.496 108.219 342.371 108.219Q341.328 108.219 340.701 107.533L340.701 110.539L339.277 110.539L339.277 101.762L340.59 101.762L340.648 102.406Q341.275 101.645 342.354 101.645Q343.514 101.645 344.173 102.509Q344.832 103.373 344.832 104.908L344.832 104.996ZM343.414 104.873Q343.414 103.924 343.036 103.367Q342.658 102.811 341.955 102.811Q341.082 102.811 340.701 103.531L340.701 106.344Q341.088 107.082 341.967 107.082Q342.646 107.082 343.03 106.534Q343.414 105.986 343.414 104.873ZM347.375 101.762L347.416 102.424Q348.084 101.645 349.244 101.645Q350.516 101.645 350.984 102.617Q351.676 101.645 352.93 101.645Q353.979 101.645 354.491 102.225Q355.004 102.805 355.016 103.936L355.016 108.102L353.592 108.102L353.592 103.977Q353.592 103.373 353.328 103.092Q353.064 102.811 352.455 102.811Q351.969 102.811 351.661 103.071Q351.354 103.332 351.23 103.754L351.236 108.102L349.812 108.102L349.812 103.93Q349.783 102.811 348.67 102.811Q347.814 102.811 347.457 103.508L347.457 108.102L346.033 108.102L346.033 101.762L347.375 101.762ZM359.27 108.219Q357.916 108.219 357.075 107.366Q356.234 106.514 356.234 105.096L356.234 104.92Q356.234 103.971 356.601 103.224Q356.967 102.477 357.629 102.061Q358.291 101.645 359.105 101.645Q360.4 101.645 361.106 102.471Q361.812 103.297 361.812 104.809L361.812 105.383L357.67 105.383Q357.734 106.168 358.194 106.625Q358.654 107.082 359.352 107.082Q360.33 107.082 360.945 106.291L361.713 107.023Q361.332 107.592 360.696 107.905Q360.061 108.219 359.27 108.219ZM359.1 102.787Q358.514 102.787 358.153 103.197Q357.793 103.607 357.693 104.34L360.406 104.34L360.406 104.234Q360.359 103.52 360.025 103.153Q359.691 102.787 359.1 102.787ZM364.238 101.762L364.279 102.494Q364.982 101.645 366.125 101.645Q368.105 101.645 368.141 103.912L368.141 108.102L366.717 108.102L366.717 103.994Q366.717 103.391 366.456 103.101Q366.195 102.811 365.604 102.811Q364.742 102.811 364.32 103.59L364.32 108.102L362.896 108.102L362.896 101.762L364.238 101.762ZM371.375 100.221L371.375 101.762L372.494 101.762L372.494 102.816L371.375 102.816L371.375 106.355Q371.375 106.719 371.519 106.88Q371.662 107.041 372.031 107.041Q372.277 107.041 372.529 106.982L372.529 108.084Q372.043 108.219 371.592 108.219Q369.951 108.219 369.951 106.408L369.951 102.816L368.908 102.816L368.908 101.762L369.951 101.762L369.951 100.221L371.375 100.221ZM380.34 108.102Q380.246 107.92 380.176 107.51Q379.496 108.219 378.512 108.219Q377.557 108.219 376.953 107.674Q376.35 107.129 376.35 106.326Q376.35 105.312 377.103 104.771Q377.855 104.229 379.256 104.229L380.129 104.229L380.129 103.812Q380.129 103.32 379.854 103.024Q379.578 102.729 379.016 102.729Q378.529 102.729 378.219 102.972Q377.908 103.215 377.908 103.59L376.484 103.59Q376.484 103.068 376.83 102.614Q377.176 102.16 377.771 101.902Q378.365 101.645 379.098 101.645Q380.211 101.645 380.873 102.204Q381.535 102.764 381.553 103.777L381.553 106.637Q381.553 107.492 381.793 108.002L381.793 108.102L380.34 108.102ZM378.775 107.076Q379.197 107.076 379.569 106.871Q379.941 106.666 380.129 106.32L380.129 105.125L379.361 105.125Q378.57 105.125 378.172 105.4Q377.773 105.676 377.773 106.18Q377.773 106.59 378.046 106.833Q378.318 107.076 378.775 107.076ZM384.365 101.762L384.406 102.494Q385.109 101.645 386.252 101.645Q388.232 101.645 388.268 103.912L388.268 108.102L386.844 108.102L386.844 103.994Q386.844 103.391 386.583 103.101Q386.322 102.811 385.73 102.811Q384.869 102.811 384.447 103.59L384.447 108.102L383.023 108.102L383.023 101.762L384.365 101.762ZM389.451 104.885Q389.451 103.42 390.131 102.532Q390.811 101.645 391.953 101.645Q392.961 101.645 393.582 102.348L393.582 99.1016L395.006 99.1016L395.006 108.102L393.717 108.102L393.646 107.445Q393.008 108.219 391.941 108.219Q390.828 108.219 390.14 107.322Q389.451 106.426 389.451 104.885ZM390.875 105.008Q390.875 105.975 391.247 106.517Q391.619 107.059 392.305 107.059Q393.178 107.059 393.582 106.279L393.582 103.572Q393.189 102.811 392.316 102.811Q391.625 102.811 391.25 103.358Q390.875 103.906 390.875 105.008ZM399.195 104.885Q399.195 103.42 399.875 102.532Q400.555 101.645 401.697 101.645Q402.705 101.645 403.326 102.348L403.326 99.1016L404.75 99.1016L404.75 108.102L403.461 108.102L403.391 107.445Q402.752 108.219 401.686 108.219Q400.572 108.219 399.884 107.322Q399.195 106.426 399.195 104.885ZM400.619 105.008Q400.619 105.975 400.991 106.517Q401.363 107.059 402.049 107.059Q402.922 107.059 403.326 106.279L403.326 103.572Q402.934 102.811 402.061 102.811Q401.369 102.811 400.994 103.358Q400.619 103.906 400.619 105.008ZM409.027 108.219Q407.674 108.219 406.833 107.366Q405.992 106.514 405.992 105.096L405.992 104.92Q405.992 103.971 406.358 103.224Q406.725 102.477 407.387 102.061Q408.049 101.645 408.863 101.645Q410.158 101.645 410.864 102.471Q411.57 103.297 411.57 104.809L411.57 105.383L407.428 105.383Q407.492 106.168 407.952 106.625Q408.412 107.082 409.109 107.082Q410.088 107.082 410.703 106.291L411.471 107.023Q411.09 107.592 410.454 107.905Q409.818 108.219 409.027 108.219ZM408.857 102.787Q408.271 102.787 407.911 103.197Q407.551 103.607 407.451 104.34L410.164 104.34L410.164 104.234Q410.117 103.52 409.783 103.153Q409.449 102.787 408.857 102.787ZM418.227 104.996Q418.227 106.467 417.559 107.343Q416.891 108.219 415.766 108.219Q414.723 108.219 414.096 107.533L414.096 110.539L412.672 110.539L412.672 101.762L413.984 101.762L414.043 102.406Q414.67 101.645 415.748 101.645Q416.908 101.645 417.567 102.509Q418.227 103.373 418.227 104.908L418.227 104.996ZM416.809 104.873Q416.809 103.924 416.431 103.367Q416.053 102.811 415.35 102.811Q414.477 102.811 414.096 103.531L414.096 106.344Q414.482 107.082 415.361 107.082Q416.041 107.082 416.425 106.534Q416.809 105.986 416.809 104.873ZM420.945 108.102L419.521 108.102L419.521 99.1016L420.945 99.1016L420.945 108.102ZM422.229 104.873Q422.229 103.941 422.598 103.194Q422.967 102.447 423.635 102.046Q424.303 101.645 425.17 101.645Q426.453 101.645 427.253 102.471Q428.053 103.297 428.117 104.662L428.123 104.996Q428.123 105.934 427.763 106.672Q427.402 107.41 426.731 107.814Q426.061 108.219 425.182 108.219Q423.84 108.219 423.034 107.325Q422.229 106.432 422.229 104.943L422.229 104.873ZM423.652 104.996Q423.652 105.975 424.057 106.528Q424.461 107.082 425.182 107.082Q425.902 107.082 426.304 106.52Q426.705 105.957 426.705 104.873Q426.705 103.912 426.292 103.35Q425.879 102.787 425.17 102.787Q424.473 102.787 424.062 103.341Q423.652 103.895 423.652 104.996ZM431.545 106.062L432.834 101.762L434.352 101.762L431.832 109.062Q431.252 110.662 429.863 110.662Q429.553 110.662 429.178 110.557L429.178 109.455L429.447 109.473Q429.986 109.473 430.259 109.276Q430.531 109.08 430.689 108.617L430.895 108.072L428.668 101.762L430.203 101.762L431.545 106.062ZM436.508 101.762L436.549 102.424Q437.217 101.645 438.377 101.645Q439.648 101.645 440.117 102.617Q440.809 101.645 442.062 101.645Q443.111 101.645 443.624 102.225Q444.137 102.805 444.148 103.936L444.148 108.102L442.725 108.102L442.725 103.977Q442.725 103.373 442.461 103.092Q442.197 102.811 441.588 102.811Q441.102 102.811 440.794 103.071Q440.486 103.332 440.363 103.754L440.369 108.102L438.945 108.102L438.945 103.93Q438.916 102.811 437.803 102.811Q436.947 102.811 436.59 103.508L436.59 108.102L435.166 108.102L435.166 101.762L436.508 101.762ZM448.402 108.219Q447.049 108.219 446.208 107.366Q445.367 106.514 445.367 105.096L445.367 104.92Q445.367 103.971 445.733 103.224Q446.1 102.477 446.762 102.061Q447.424 101.645 448.238 101.645Q449.533 101.645 450.239 102.471Q450.945 103.297 450.945 104.809L450.945 105.383L446.803 105.383Q446.867 106.168 447.327 106.625Q447.787 107.082 448.484 107.082Q449.463 107.082 450.078 106.291L450.846 107.023Q450.465 107.592 449.829 107.905Q449.193 108.219 448.402 108.219ZM448.232 102.787Q447.646 102.787 447.286 103.197Q446.926 103.607 446.826 104.34L449.539 104.34L449.539 104.234Q449.492 103.52 449.158 103.153Q448.824 102.787 448.232 102.787ZM453.371 101.762L453.412 102.494Q454.115 101.645 455.258 101.645Q457.238 101.645 457.273 103.912L457.273 108.102L455.85 108.102L455.85 103.994Q455.85 103.391 455.589 103.101Q455.328 102.811 454.736 102.811Q453.875 102.811 453.453 103.59L453.453 108.102L452.029 108.102L452.029 101.762L453.371 101.762ZM460.508 100.221L460.508 101.762L461.627 101.762L461.627 102.816L460.508 102.816L460.508 106.355Q460.508 106.719 460.651 106.88Q460.795 107.041 461.164 107.041Q461.41 107.041 461.662 106.982L461.662 108.084Q461.176 108.219 460.725 108.219Q459.084 108.219 459.084 106.408L459.084 102.816L458.041 102.816L458.041 101.762L459.084 101.762L459.084 100.221L460.508 100.221ZM308.281 118.996Q308.281 120.467 307.613 121.343Q306.945 122.219 305.82 122.219Q304.777 122.219 304.15 121.533L304.15 124.539L302.727 124.539L302.727 115.762L304.039 115.762L304.098 116.406Q304.725 115.645 305.803 115.645Q306.963 115.645 307.622 116.509Q308.281 117.373 308.281 118.908L308.281 118.996ZM306.863 118.873Q306.863 117.924 306.485 117.367Q306.107 116.811 305.404 116.811Q304.531 116.811 304.15 117.531L304.15 120.344Q304.537 121.082 305.416 121.082Q306.096 121.082 306.479 120.534Q306.863 119.986 306.863 118.873ZM311 122.102L309.576 122.102L309.576 113.102L311 113.102L311 122.102ZM316.338 122.102Q316.244 121.92 316.174 121.51Q315.494 122.219 314.51 122.219Q313.555 122.219 312.951 121.674Q312.348 121.129 312.348 120.326Q312.348 119.312 313.101 118.771Q313.854 118.229 315.254 118.229L316.127 118.229L316.127 117.812Q316.127 117.32 315.852 117.024Q315.576 116.729 315.014 116.729Q314.527 116.729 314.217 116.972Q313.906 117.215 313.906 117.59L312.482 117.59Q312.482 117.068 312.828 116.614Q313.174 116.16 313.769 115.902Q314.363 115.645 315.096 115.645Q316.209 115.645 316.871 116.204Q317.533 116.764 317.551 117.777L317.551 120.637Q317.551 121.492 317.791 122.002L317.791 122.102L316.338 122.102ZM314.773 121.076Q315.195 121.076 315.567 120.871Q315.939 120.666 316.127 120.32L316.127 119.125L315.359 119.125Q314.568 119.125 314.17 119.4Q313.771 119.676 313.771 120.18Q313.771 120.59 314.044 120.833Q314.316 121.076 314.773 121.076ZM320.826 114.221L320.826 115.762L321.945 115.762L321.945 116.816L320.826 116.816L320.826 120.355Q320.826 120.719 320.97 120.88Q321.113 121.041 321.482 121.041Q321.729 121.041 321.98 120.982L321.98 122.084Q321.494 122.219 321.043 122.219Q319.402 122.219 319.402 120.408L319.402 116.816L318.359 116.816L318.359 115.762L319.402 115.762L319.402 114.221L320.826 114.221ZM323.533 122.102L323.533 116.816L322.566 116.816L322.566 115.762L323.533 115.762L323.533 115.182Q323.533 114.127 324.119 113.553Q324.705 112.979 325.76 112.979Q326.135 112.979 326.557 113.084L326.521 114.197Q326.287 114.15 325.977 114.15Q324.957 114.15 324.957 115.199L324.957 115.762L326.246 115.762L326.246 116.816L324.957 116.816L324.957 122.102L323.533 122.102ZM327.02 118.873Q327.02 117.941 327.389 117.194Q327.758 116.447 328.426 116.046Q329.094 115.645 329.961 115.645Q331.244 115.645 332.044 116.471Q332.844 117.297 332.908 118.662L332.914 118.996Q332.914 119.934 332.554 120.672Q332.193 121.41 331.522 121.814Q330.852 122.219 329.973 122.219Q328.631 122.219 327.825 121.325Q327.02 120.432 327.02 118.943L327.02 118.873ZM328.443 118.996Q328.443 119.975 328.848 120.528Q329.252 121.082 329.973 121.082Q330.693 121.082 331.095 120.52Q331.496 119.957 331.496 118.873Q331.496 117.912 331.083 117.35Q330.67 116.787 329.961 116.787Q329.264 116.787 328.854 117.341Q328.443 117.895 328.443 118.996ZM337.438 117.062Q337.156 117.016 336.857 117.016Q335.879 117.016 335.539 117.766L335.539 122.102L334.115 122.102L334.115 115.762L335.475 115.762L335.51 116.471Q336.025 115.645 336.939 115.645Q337.244 115.645 337.443 115.727L337.438 117.062ZM339.676 115.762L339.717 116.424Q340.385 115.645 341.545 115.645Q342.816 115.645 343.285 116.617Q343.977 115.645 345.23 115.645Q346.279 115.645 346.792 116.225Q347.305 116.805 347.316 117.936L347.316 122.102L345.893 122.102L345.893 117.977Q345.893 117.373 345.629 117.092Q345.365 116.811 344.756 116.811Q344.27 116.811 343.962 117.071Q343.654 117.332 343.531 117.754L343.537 122.102L342.113 122.102L342.113 117.93Q342.084 116.811 340.971 116.811Q340.115 116.811 339.758 117.508L339.758 122.102L338.334 122.102L338.334 115.762L339.676 115.762Z">
</path>
</g>
<rect  x="302.272705078125" y="165.34033203125" width="49.63636779785156" height="15.94136905670166" rx="4"    fill="#2E3038" >
</rect>
<g filter="url(#filter_B7BF1BCA-A7A9-4A91-937F-B704496C35F1)">
<path fill-rule="evenodd"  fill="rgba(44, 44, 44, 1)"  d="M390.455 165.34L364.773 165.34C362.564 165.34 360.773 167.131 360.773 169.34L360.773 177.282C360.773 179.491 362.564 181.282 364.773 181.282L390.455 181.282C392.664 181.282 394.455 179.491 394.455 177.282L394.455 169.34C394.455 167.131 392.664 165.34 390.455 165.34ZM361.773 169.34C361.773 167.683 363.116 166.34 364.773 166.34L390.455 166.34C392.111 166.34 393.455 167.683 393.455 169.34L393.455 177.282C393.455 178.939 392.111 180.282 390.455 180.282L364.773 180.282C363.116 180.282 361.773 178.939 361.773 177.282L361.773 169.34Z">
</path>
</g>
<rect  x="312.9091796875" y="172.42529296875" width="28.36363792419434" height="1.771263003349304" rx="0.885631501674652"    fill="#4D4D4D" >
</rect>
<rect  x="371.4091796875" y="172.42529296875" width="12.40909194946289" height="1.771263003349304" rx="0.885631501674652"    fill="#535353" >
</rect>
<path     fill="#141414"  d="M740 14.1701L740 0L559 0L559 14.1701L740 14.1701">
</path>
<path     fill="#1A1A1A"  d="M563 0L736 0C738.209 0 740 1.79086 740 4L740 287C740 289.209 738.209 291 736 291L563 291C560.791 291 559 289.209 559 287L559 4C559 1.79086 560.791 0 563 0Z">
</path>
<path fill-rule="evenodd"  fill="rgba(44, 44, 44, 1)"  d="M736 0L563 0C560.791 0 559 1.79086 559 4L559 287C559 289.209 560.791 291 563 291L736 291C738.209 291 740 289.209 740 287L740 4C740 1.79086 738.209 0 736 0ZM560.5 4C560.5 2.61929 561.619 1.5 563 1.5L736 1.5C737.381 1.5 738.5 2.61929 738.5 4L738.5 287C738.5 288.381 737.381 289.5 736 289.5L563 289.5C561.619 289.5 560.5 288.381 560.5 287L560.5 4Z">
</path>
<path    stroke="rgba(44, 44, 44, 1)" stroke-width="1.5"    d="M559 14.1702L740 14.1702">
</path>
<ellipse cx="568.7500333786011" cy="6.93960976600647" rx="2.659090995788574" ry="2.6568949222564693"   fill="#535353" >
</ellipse>
<ellipse cx="575.8408536911011" cy="6.93960976600647" rx="2.659090995788574" ry="2.6568949222564693"   fill="#535353" >
</ellipse>
<ellipse cx="582.9317960739136" cy="6.93960976600647" rx="2.659090995788574" ry="2.6568949222564693"   fill="#535353" >
</ellipse>
<ellipse cx="585.5908870697021" cy="28.34015703201294" rx="5.31818199157715" ry="5.31378984451294"   fill="#464646" >
</ellipse>
<rect  x="704.3636474609375" y="28.340087890625" width="17.72727394104004" height="1.771263003349304" rx="0.885631501674652"    fill="#343434" >
</rect>
<rect  x="580.272705078125" y="88" width="33.68181991577148" height="1.771263003349304" rx="0.885631501674652"    fill="#343434" >
</rect>
<rect  x="580.272705078125" y="96.8564453125" width="23.04545593261719" height="1.771263003349304" rx="0.885631501674652"    fill="#343434" >
</rect>
<rect  x="612.181884765625" y="96.8564453125" width="35.45454788208008" height="1.771263003349304" rx="0.885631501674652"    fill="#343434" >
</rect>
<rect  x="656.5" y="96.8564453125" width="10.6363639831543" height="1.771263003349304" rx="0.885631501674652"    fill="#343434" >
</rect>
<rect  x="622.818115234375" y="88" width="26.59090995788574" height="1.771263003349304" rx="0.885631501674652"    fill="#343434" >
</rect>
<rect  x="658.272705078125" y="88" width="26.59090995788574" height="1.771263003349304" rx="0.885631501674652"    fill="#343434" >
</rect>
<rect  x="731" y="28" width="7" height="2" rx="1"    fill="#343434" >
</rect>
<g >
<path     fill="#2E3038"  d="M580.867 59.1016L580.867 50.5703L583.387 50.5703Q584.518 50.5703 585.394 51.0742Q586.27 51.5781 586.75 52.5039Q587.23 53.4297 587.23 54.625L587.23 55.0527Q587.23 56.2656 586.747 57.1855Q586.264 58.1055 585.37 58.6035Q584.477 59.1016 583.322 59.1016L580.867 59.1016ZM582.35 51.7656L582.35 57.918L583.316 57.918Q584.482 57.918 585.106 57.1885Q585.73 56.459 585.742 55.0938L585.742 54.6191Q585.742 53.2305 585.139 52.498Q584.535 51.7656 583.387 51.7656L582.35 51.7656ZM591.361 59.2188Q590.008 59.2188 589.167 58.3662Q588.326 57.5137 588.326 56.0957L588.326 55.9199Q588.326 54.9707 588.692 54.2236Q589.059 53.4766 589.721 53.0605Q590.383 52.6445 591.197 52.6445Q592.492 52.6445 593.198 53.4707Q593.904 54.2969 593.904 55.8086L593.904 56.3828L589.762 56.3828Q589.826 57.168 590.286 57.625Q590.746 58.082 591.443 58.082Q592.422 58.082 593.037 57.291L593.805 58.0234Q593.424 58.5918 592.788 58.9053Q592.152 59.2188 591.361 59.2188ZM591.191 53.7871Q590.605 53.7871 590.245 54.1973Q589.885 54.6074 589.785 55.3398L592.498 55.3398L592.498 55.2344Q592.451 54.5195 592.117 54.1533Q591.783 53.7871 591.191 53.7871ZM597.244 57.2969L598.586 52.7617L600.057 52.7617L597.859 59.1016L596.623 59.1016L594.408 52.7617L595.885 52.7617L597.244 57.2969ZM603.736 59.2188Q602.383 59.2188 601.542 58.3662Q600.701 57.5137 600.701 56.0957L600.701 55.9199Q600.701 54.9707 601.067 54.2236Q601.434 53.4766 602.096 53.0605Q602.758 52.6445 603.572 52.6445Q604.867 52.6445 605.573 53.4707Q606.279 54.2969 606.279 55.8086L606.279 56.3828L602.137 56.3828Q602.201 57.168 602.661 57.625Q603.121 58.082 603.818 58.082Q604.797 58.082 605.412 57.291L606.18 58.0234Q605.799 58.5918 605.163 58.9053Q604.527 59.2188 603.736 59.2188ZM603.566 53.7871Q602.98 53.7871 602.62 54.1973Q602.26 54.6074 602.16 55.3398L604.873 55.3398L604.873 55.2344Q604.826 54.5195 604.492 54.1533Q604.158 53.7871 603.566 53.7871ZM608.898 59.1016L607.475 59.1016L607.475 50.1016L608.898 50.1016L608.898 59.1016ZM610.182 55.873Q610.182 54.9414 610.551 54.1943Q610.92 53.4473 611.588 53.0459Q612.256 52.6445 613.123 52.6445Q614.406 52.6445 615.206 53.4707Q616.006 54.2969 616.07 55.6621L616.076 55.9961Q616.076 56.9336 615.716 57.6719Q615.355 58.4102 614.685 58.8145Q614.014 59.2188 613.135 59.2188Q611.793 59.2188 610.987 58.3252Q610.182 57.4316 610.182 55.9434L610.182 55.873ZM611.605 55.9961Q611.605 56.9746 612.01 57.5283Q612.414 58.082 613.135 58.082Q613.855 58.082 614.257 57.5195Q614.658 56.957 614.658 55.873Q614.658 54.9121 614.245 54.3496Q613.832 53.7871 613.123 53.7871Q612.426 53.7871 612.016 54.3408Q611.605 54.8945 611.605 55.9961ZM622.832 55.9961Q622.832 57.4668 622.164 58.3428Q621.496 59.2188 620.371 59.2188Q619.328 59.2188 618.701 58.5332L618.701 61.5391L617.277 61.5391L617.277 52.7617L618.59 52.7617L618.648 53.4062Q619.275 52.6445 620.354 52.6445Q621.514 52.6445 622.173 53.5088Q622.832 54.373 622.832 55.9082L622.832 55.9961ZM621.414 55.873Q621.414 54.9238 621.036 54.3672Q620.658 53.8105 619.955 53.8105Q619.082 53.8105 618.701 54.5312L618.701 57.3438Q619.088 58.082 619.967 58.082Q620.646 58.082 621.03 57.5342Q621.414 56.9863 621.414 55.873ZM625.375 52.7617L625.416 53.4238Q626.084 52.6445 627.244 52.6445Q628.516 52.6445 628.984 53.6172Q629.676 52.6445 630.93 52.6445Q631.979 52.6445 632.491 53.2246Q633.004 53.8047 633.016 54.9355L633.016 59.1016L631.592 59.1016L631.592 54.9766Q631.592 54.373 631.328 54.0918Q631.064 53.8105 630.455 53.8105Q629.969 53.8105 629.661 54.0713Q629.354 54.332 629.23 54.7539L629.236 59.1016L627.812 59.1016L627.812 54.9297Q627.783 53.8105 626.67 53.8105Q625.814 53.8105 625.457 54.5078L625.457 59.1016L624.033 59.1016L624.033 52.7617L625.375 52.7617ZM637.27 59.2188Q635.916 59.2188 635.075 58.3662Q634.234 57.5137 634.234 56.0957L634.234 55.9199Q634.234 54.9707 634.601 54.2236Q634.967 53.4766 635.629 53.0605Q636.291 52.6445 637.105 52.6445Q638.4 52.6445 639.106 53.4707Q639.812 54.2969 639.812 55.8086L639.812 56.3828L635.67 56.3828Q635.734 57.168 636.194 57.625Q636.654 58.082 637.352 58.082Q638.33 58.082 638.945 57.291L639.713 58.0234Q639.332 58.5918 638.696 58.9053Q638.061 59.2188 637.27 59.2188ZM637.1 53.7871Q636.514 53.7871 636.153 54.1973Q635.793 54.6074 635.693 55.3398L638.406 55.3398L638.406 55.2344Q638.359 54.5195 638.025 54.1533Q637.691 53.7871 637.1 53.7871ZM642.238 52.7617L642.279 53.4941Q642.982 52.6445 644.125 52.6445Q646.105 52.6445 646.141 54.9121L646.141 59.1016L644.717 59.1016L644.717 54.9941Q644.717 54.3906 644.456 54.1006Q644.195 53.8105 643.604 53.8105Q642.742 53.8105 642.32 54.5898L642.32 59.1016L640.896 59.1016L640.896 52.7617L642.238 52.7617ZM649.375 51.2207L649.375 52.7617L650.494 52.7617L650.494 53.8164L649.375 53.8164L649.375 57.3555Q649.375 57.7188 649.519 57.8799Q649.662 58.041 650.031 58.041Q650.277 58.041 650.529 57.9824L650.529 59.084Q650.043 59.2188 649.592 59.2188Q647.951 59.2188 647.951 57.4082L647.951 53.8164L646.908 53.8164L646.908 52.7617L647.951 52.7617L647.951 51.2207L649.375 51.2207ZM658.34 59.1016Q658.246 58.9199 658.176 58.5098Q657.496 59.2188 656.512 59.2188Q655.557 59.2188 654.953 58.6738Q654.35 58.1289 654.35 57.3262Q654.35 56.3125 655.103 55.7705Q655.855 55.2285 657.256 55.2285L658.129 55.2285L658.129 54.8125Q658.129 54.3203 657.854 54.0244Q657.578 53.7285 657.016 53.7285Q656.529 53.7285 656.219 53.9717Q655.908 54.2148 655.908 54.5898L654.484 54.5898Q654.484 54.0684 654.83 53.6143Q655.176 53.1602 655.771 52.9023Q656.365 52.6445 657.098 52.6445Q658.211 52.6445 658.873 53.2041Q659.535 53.7637 659.553 54.7773L659.553 57.6367Q659.553 58.4922 659.793 59.002L659.793 59.1016L658.34 59.1016ZM656.775 58.0762Q657.197 58.0762 657.569 57.8711Q657.941 57.666 658.129 57.3203L658.129 56.125L657.361 56.125Q656.57 56.125 656.172 56.4004Q655.773 56.6758 655.773 57.1797Q655.773 57.5898 656.046 57.833Q656.318 58.0762 656.775 58.0762ZM662.365 52.7617L662.406 53.4941Q663.109 52.6445 664.252 52.6445Q666.232 52.6445 666.268 54.9121L666.268 59.1016L664.844 59.1016L664.844 54.9941Q664.844 54.3906 664.583 54.1006Q664.322 53.8105 663.73 53.8105Q662.869 53.8105 662.447 54.5898L662.447 59.1016L661.023 59.1016L661.023 52.7617L662.365 52.7617ZM667.451 55.8848Q667.451 54.4199 668.131 53.5322Q668.811 52.6445 669.953 52.6445Q670.961 52.6445 671.582 53.3477L671.582 50.1016L673.006 50.1016L673.006 59.1016L671.717 59.1016L671.646 58.4453Q671.008 59.2188 669.941 59.2188Q668.828 59.2188 668.14 58.3223Q667.451 57.4258 667.451 55.8848ZM668.875 56.0078Q668.875 56.9746 669.247 57.5166Q669.619 58.0586 670.305 58.0586Q671.178 58.0586 671.582 57.2793L671.582 54.5723Q671.189 53.8105 670.316 53.8105Q669.625 53.8105 669.25 54.3584Q668.875 54.9062 668.875 56.0078ZM677.195 55.8848Q677.195 54.4199 677.875 53.5322Q678.555 52.6445 679.697 52.6445Q680.705 52.6445 681.326 53.3477L681.326 50.1016L682.75 50.1016L682.75 59.1016L681.461 59.1016L681.391 58.4453Q680.752 59.2188 679.686 59.2188Q678.572 59.2188 677.884 58.3223Q677.195 57.4258 677.195 55.8848ZM678.619 56.0078Q678.619 56.9746 678.991 57.5166Q679.363 58.0586 680.049 58.0586Q680.922 58.0586 681.326 57.2793L681.326 54.5723Q680.934 53.8105 680.061 53.8105Q679.369 53.8105 678.994 54.3584Q678.619 54.9062 678.619 56.0078ZM687.027 59.2188Q685.674 59.2188 684.833 58.3662Q683.992 57.5137 683.992 56.0957L683.992 55.9199Q683.992 54.9707 684.358 54.2236Q684.725 53.4766 685.387 53.0605Q686.049 52.6445 686.863 52.6445Q688.158 52.6445 688.864 53.4707Q689.57 54.2969 689.57 55.8086L689.57 56.3828L685.428 56.3828Q685.492 57.168 685.952 57.625Q686.412 58.082 687.109 58.082Q688.088 58.082 688.703 57.291L689.471 58.0234Q689.09 58.5918 688.454 58.9053Q687.818 59.2188 687.027 59.2188ZM686.857 53.7871Q686.271 53.7871 685.911 54.1973Q685.551 54.6074 685.451 55.3398L688.164 55.3398L688.164 55.2344Q688.117 54.5195 687.783 54.1533Q687.449 53.7871 686.857 53.7871ZM696.227 55.9961Q696.227 57.4668 695.559 58.3428Q694.891 59.2188 693.766 59.2188Q692.723 59.2188 692.096 58.5332L692.096 61.5391L690.672 61.5391L690.672 52.7617L691.984 52.7617L692.043 53.4062Q692.67 52.6445 693.748 52.6445Q694.908 52.6445 695.567 53.5088Q696.227 54.373 696.227 55.9082L696.227 55.9961ZM694.809 55.873Q694.809 54.9238 694.431 54.3672Q694.053 53.8105 693.35 53.8105Q692.477 53.8105 692.096 54.5312L692.096 57.3438Q692.482 58.082 693.361 58.082Q694.041 58.082 694.425 57.5342Q694.809 56.9863 694.809 55.873ZM698.945 59.1016L697.521 59.1016L697.521 50.1016L698.945 50.1016L698.945 59.1016ZM700.229 55.873Q700.229 54.9414 700.598 54.1943Q700.967 53.4473 701.635 53.0459Q702.303 52.6445 703.17 52.6445Q704.453 52.6445 705.253 53.4707Q706.053 54.2969 706.117 55.6621L706.123 55.9961Q706.123 56.9336 705.763 57.6719Q705.402 58.4102 704.731 58.8145Q704.061 59.2188 703.182 59.2188Q701.84 59.2188 701.034 58.3252Q700.229 57.4316 700.229 55.9434L700.229 55.873ZM701.652 55.9961Q701.652 56.9746 702.057 57.5283Q702.461 58.082 703.182 58.082Q703.902 58.082 704.304 57.5195Q704.705 56.957 704.705 55.873Q704.705 54.9121 704.292 54.3496Q703.879 53.7871 703.17 53.7871Q702.473 53.7871 702.062 54.3408Q701.652 54.8945 701.652 55.9961ZM709.545 57.0625L710.834 52.7617L712.352 52.7617L709.832 60.0625Q709.252 61.6621 707.863 61.6621Q707.553 61.6621 707.178 61.5566L707.178 60.4551L707.447 60.4727Q707.986 60.4727 708.259 60.2764Q708.531 60.0801 708.689 59.6172L708.895 59.0723L706.668 52.7617L708.203 52.7617L709.545 57.0625ZM714.508 52.7617L714.549 53.4238Q715.217 52.6445 716.377 52.6445Q717.648 52.6445 718.117 53.6172Q718.809 52.6445 720.062 52.6445Q721.111 52.6445 721.624 53.2246Q722.137 53.8047 722.148 54.9355L722.148 59.1016L720.725 59.1016L720.725 54.9766Q720.725 54.373 720.461 54.0918Q720.197 53.8105 719.588 53.8105Q719.102 53.8105 718.794 54.0713Q718.486 54.332 718.363 54.7539L718.369 59.1016L716.945 59.1016L716.945 54.9297Q716.916 53.8105 715.803 53.8105Q714.947 53.8105 714.59 54.5078L714.59 59.1016L713.166 59.1016L713.166 52.7617L714.508 52.7617ZM726.402 59.2188Q725.049 59.2188 724.208 58.3662Q723.367 57.5137 723.367 56.0957L723.367 55.9199Q723.367 54.9707 723.733 54.2236Q724.1 53.4766 724.762 53.0605Q725.424 52.6445 726.238 52.6445Q727.533 52.6445 728.239 53.4707Q728.945 54.2969 728.945 55.8086L728.945 56.3828L724.803 56.3828Q724.867 57.168 725.327 57.625Q725.787 58.082 726.484 58.082Q727.463 58.082 728.078 57.291L728.846 58.0234Q728.465 58.5918 727.829 58.9053Q727.193 59.2188 726.402 59.2188ZM726.232 53.7871Q725.646 53.7871 725.286 54.1973Q724.926 54.6074 724.826 55.3398L727.539 55.3398L727.539 55.2344Q727.492 54.5195 727.158 54.1533Q726.824 53.7871 726.232 53.7871ZM731.371 52.7617L731.412 53.4941Q732.115 52.6445 733.258 52.6445Q735.238 52.6445 735.273 54.9121L735.273 59.1016L733.85 59.1016L733.85 54.9941Q733.85 54.3906 733.589 54.1006Q733.328 53.8105 732.736 53.8105Q731.875 53.8105 731.453 54.5898L731.453 59.1016L730.029 59.1016L730.029 52.7617L731.371 52.7617ZM738.508 51.2207L738.508 52.7617L739.627 52.7617L739.627 53.8164L738.508 53.8164L738.508 57.3555Q738.508 57.7188 738.651 57.8799Q738.795 58.041 739.164 58.041Q739.41 58.041 739.662 57.9824L739.662 59.084Q739.176 59.2188 738.725 59.2188Q737.084 59.2188 737.084 57.4082L737.084 53.8164L736.041 53.8164L736.041 52.7617L737.084 52.7617L737.084 51.2207L738.508 51.2207ZM586.281 69.9961Q586.281 71.4668 585.613 72.3428Q584.945 73.2188 583.82 73.2188Q582.777 73.2188 582.15 72.5332L582.15 75.5391L580.727 75.5391L580.727 66.7617L582.039 66.7617L582.098 67.4062Q582.725 66.6445 583.803 66.6445Q584.963 66.6445 585.622 67.5088Q586.281 68.373 586.281 69.9082L586.281 69.9961ZM584.863 69.873Q584.863 68.9238 584.485 68.3672Q584.107 67.8105 583.404 67.8105Q582.531 67.8105 582.15 68.5312L582.15 71.3438Q582.537 72.082 583.416 72.082Q584.096 72.082 584.479 71.5342Q584.863 70.9863 584.863 69.873ZM589 73.1016L587.576 73.1016L587.576 64.1016L589 64.1016L589 73.1016ZM594.338 73.1016Q594.244 72.9199 594.174 72.5098Q593.494 73.2188 592.51 73.2188Q591.555 73.2188 590.951 72.6738Q590.348 72.1289 590.348 71.3262Q590.348 70.3125 591.101 69.7705Q591.854 69.2285 593.254 69.2285L594.127 69.2285L594.127 68.8125Q594.127 68.3203 593.852 68.0244Q593.576 67.7285 593.014 67.7285Q592.527 67.7285 592.217 67.9717Q591.906 68.2148 591.906 68.5898L590.482 68.5898Q590.482 68.0684 590.828 67.6143Q591.174 67.1602 591.769 66.9023Q592.363 66.6445 593.096 66.6445Q594.209 66.6445 594.871 67.2041Q595.533 67.7637 595.551 68.7773L595.551 71.6367Q595.551 72.4922 595.791 73.002L595.791 73.1016L594.338 73.1016ZM592.773 72.0762Q593.195 72.0762 593.567 71.8711Q593.939 71.666 594.127 71.3203L594.127 70.125L593.359 70.125Q592.568 70.125 592.17 70.4004Q591.771 70.6758 591.771 71.1797Q591.771 71.5898 592.044 71.833Q592.316 72.0762 592.773 72.0762ZM598.826 65.2207L598.826 66.7617L599.945 66.7617L599.945 67.8164L598.826 67.8164L598.826 71.3555Q598.826 71.7188 598.97 71.8799Q599.113 72.041 599.482 72.041Q599.729 72.041 599.98 71.9824L599.98 73.084Q599.494 73.2188 599.043 73.2188Q597.402 73.2188 597.402 71.4082L597.402 67.8164L596.359 67.8164L596.359 66.7617L597.402 66.7617L597.402 65.2207L598.826 65.2207ZM601.533 73.1016L601.533 67.8164L600.566 67.8164L600.566 66.7617L601.533 66.7617L601.533 66.1816Q601.533 65.127 602.119 64.5527Q602.705 63.9785 603.76 63.9785Q604.135 63.9785 604.557 64.084L604.521 65.1973Q604.287 65.1504 603.977 65.1504Q602.957 65.1504 602.957 66.1992L602.957 66.7617L604.246 66.7617L604.246 67.8164L602.957 67.8164L602.957 73.1016L601.533 73.1016ZM605.02 69.873Q605.02 68.9414 605.389 68.1943Q605.758 67.4473 606.426 67.0459Q607.094 66.6445 607.961 66.6445Q609.244 66.6445 610.044 67.4707Q610.844 68.2969 610.908 69.6621L610.914 69.9961Q610.914 70.9336 610.554 71.6719Q610.193 72.4102 609.522 72.8145Q608.852 73.2188 607.973 73.2188Q606.631 73.2188 605.825 72.3252Q605.02 71.4316 605.02 69.9434L605.02 69.873ZM606.443 69.9961Q606.443 70.9746 606.848 71.5283Q607.252 72.082 607.973 72.082Q608.693 72.082 609.095 71.5195Q609.496 70.957 609.496 69.873Q609.496 68.9121 609.083 68.3496Q608.67 67.7871 607.961 67.7871Q607.264 67.7871 606.854 68.3408Q606.443 68.8945 606.443 69.9961ZM615.438 68.0625Q615.156 68.0156 614.857 68.0156Q613.879 68.0156 613.539 68.7656L613.539 73.1016L612.115 73.1016L612.115 66.7617L613.475 66.7617L613.51 67.4707Q614.025 66.6445 614.939 66.6445Q615.244 66.6445 615.443 66.7266L615.438 68.0625ZM617.676 66.7617L617.717 67.4238Q618.385 66.6445 619.545 66.6445Q620.816 66.6445 621.285 67.6172Q621.977 66.6445 623.23 66.6445Q624.279 66.6445 624.792 67.2246Q625.305 67.8047 625.316 68.9355L625.316 73.1016L623.893 73.1016L623.893 68.9766Q623.893 68.373 623.629 68.0918Q623.365 67.8105 622.756 67.8105Q622.27 67.8105 621.962 68.0713Q621.654 68.332 621.531 68.7539L621.537 73.1016L620.113 73.1016L620.113 68.9297Q620.084 67.8105 618.971 67.8105Q618.115 67.8105 617.758 68.5078L617.758 73.1016L616.334 73.1016L616.334 66.7617L617.676 66.7617Z">
</path>
</g>
<rect  x="580.272705078125" y="116.34033203125" width="49.63636779785156" height="15.94136905670166" rx="4"    fill="#2E3038" >
</rect>
<g filter="url(#filter_62FF9499-4D7F-49D3-8706-0E319B16BC42)">
<path fill-rule="evenodd"  fill="rgba(44, 44, 44, 1)"  d="M668.455 116.34L642.773 116.34C640.564 116.34 638.773 118.131 638.773 120.34L638.773 128.282C638.773 130.491 640.564 132.282 642.773 132.282L668.455 132.282C670.664 132.282 672.455 130.491 672.455 128.282L672.455 120.34C672.455 118.131 670.664 116.34 668.455 116.34ZM639.773 120.34C639.773 118.683 641.116 117.34 642.773 117.34L668.455 117.34C670.111 117.34 671.455 118.683 671.455 120.34L671.455 128.282C671.455 129.939 670.111 131.282 668.455 131.282L642.773 131.282C641.116 131.282 639.773 129.939 639.773 128.282L639.773 120.34Z">
</path>
</g>
<rect  x="590.9091796875" y="123.42529296875" width="28.36363792419434" height="1.771263003349304" rx="0.885631501674652"    fill="#4D4D4D" >
</rect>
<rect  x="649.4091796875" y="123.42529296875" width="12.40909194946289" height="1.771263003349304" rx="0.885631501674652"    fill="#535353" >
</rect>
<defs>
<filter id="filter_6CA14478-E394-46A5-8878-0906850F1148" x="75.772705078125" y="117.34033203125" width="41.681884765625" height="23.94140625" filterUnits="userSpaceOnUse" color-interpolation-filters="sRGB">
<feFlood flood-opacity="0" result="feFloodId_6CA14478-E394-46A5-8878-0906850F1148"/>
<feColorMatrix in="SourceAlpha" type="matrix" values="0 0 0 0 0 0 0 0 0 0 0 0 0 0 0 0 0 0 127 0" result="hardAlpha_6CA14478-E394-46A5-8878-0906850F1148"/>
<feOffset dx="0" dy="4"/>
<feGaussianBlur stdDeviation="2"/>
<feComposite in2="hardAlpha_6CA14478-E394-46A5-8878-0906850F1148" operator="out"/>
<feColorMatrix type="matrix" values="0 0 0 0 0 0 0 0 0 0 0 0 0 0 0 0 0 0 0.01 0"/>
<feBlend mode="normal" in2="feFloodId_6CA14478-E394-46A5-8878-0906850F1148" result="dropShadow_1_6CA14478-E394-46A5-8878-0906850F1148"/>
<feBlend mode="normal" in="SourceGraphic" in2="dropShadow_1_6CA14478-E394-46A5-8878-0906850F1148" result="shape_6CA14478-E394-46A5-8878-0906850F1148"/>
</filter>
<filter id="filter_B7BF1BCA-A7A9-4A91-937F-B704496C35F1" x="356.772705078125" y="165.34033203125" width="41.681884765625" height="23.94140625" filterUnits="userSpaceOnUse" color-interpolation-filters="sRGB">
<feFlood flood-opacity="0" result="feFloodId_B7BF1BCA-A7A9-4A91-937F-B704496C35F1"/>
<feColorMatrix in="SourceAlpha" type="matrix" values="0 0 0 0 0 0 0 0 0 0 0 0 0 0 0 0 0 0 127 0" result="hardAlpha_B7BF1BCA-A7A9-4A91-937F-B704496C35F1"/>
<feOffset dx="0" dy="4"/>
<feGaussianBlur stdDeviation="2"/>
<feComposite in2="hardAlpha_B7BF1BCA-A7A9-4A91-937F-B704496C35F1" operator="out"/>
<feColorMatrix type="matrix" values="0 0 0 0 0 0 0 0 0 0 0 0 0 0 0 0 0 0 0.01 0"/>
<feBlend mode="normal" in2="feFloodId_B7BF1BCA-A7A9-4A91-937F-B704496C35F1" result="dropShadow_1_B7BF1BCA-A7A9-4A91-937F-B704496C35F1"/>
<feBlend mode="normal" in="SourceGraphic" in2="dropShadow_1_B7BF1BCA-A7A9-4A91-937F-B704496C35F1" result="shape_B7BF1BCA-A7A9-4A91-937F-B704496C35F1"/>
</filter>
<filter id="filter_62FF9499-4D7F-49D3-8706-0E319B16BC42" x="634.772705078125" y="116.34033203125" width="41.6817626953125" height="23.94140625" filterUnits="userSpaceOnUse" color-interpolation-filters="sRGB">
<feFlood flood-opacity="0" result="feFloodId_62FF9499-4D7F-49D3-8706-0E319B16BC42"/>
<feColorMatrix in="SourceAlpha" type="matrix" values="0 0 0 0 0 0 0 0 0 0 0 0 0 0 0 0 0 0 127 0" result="hardAlpha_62FF9499-4D7F-49D3-8706-0E319B16BC42"/>
<feOffset dx="0" dy="4"/>
<feGaussianBlur stdDeviation="2"/>
<feComposite in2="hardAlpha_62FF9499-4D7F-49D3-8706-0E319B16BC42" operator="out"/>
<feColorMatrix type="matrix" values="0 0 0 0 0 0 0 0 0 0 0 0 0 0 0 0 0 0 0.01 0"/>
<feBlend mode="normal" in2="feFloodId_62FF9499-4D7F-49D3-8706-0E319B16BC42" result="dropShadow_1_62FF9499-4D7F-49D3-8706-0E319B16BC42"/>
<feBlend mode="normal" in="SourceGraphic" in2="dropShadow_1_62FF9499-4D7F-49D3-8706-0E319B16BC42" result="shape_62FF9499-4D7F-49D3-8706-0E319B16BC42"/>
</filter>
</defs>
</svg>
