<svg xmlns="http://www.w3.org/2000/svg" xmlns:xlink="http://www.w3.org/1999/xlink" width="1439.9998779296875" height="1495.5" viewBox="0 0 1439.9998779296875 1495.5" fill="none">
<g opacity="0.5">
<path   fill="rgba(129, 133, 152, 1)"  d="M3.47561e-05 120L2.00003 120L1.99997 121L-3.47561e-05 121L3.47561e-05 120ZM6.00003 120L10 120.001L9.99996 121.001L5.99996 121L6.00003 120ZM14 120.001L18 120.001L18 121.001L14 121.001L14 120.001ZM22 120.002L26 120.002L26 121.002L22 121.002L22 120.002ZM30 120.002L34 120.002L34 121.002L30 121.002L30 120.002ZM38 120.003L42 120.003L42 121.003L38 121.003L38 120.003ZM46 120.003L50 120.003L50 121.003L46 121.003L46 120.003ZM54 120.004L58 120.004L58 121.004L54 121.004L54 120.004ZM62 120.004L66 120.005L66 121.005L62 121.004L62 120.004ZM70 120.005L74 120.005L74 121.005L70 121.005L70 120.005ZM78 120.005L82 120.006L82 121.006L78 121.005L78 120.005ZM86 120.006L90 120.006L90 121.006L86 121.006L86 120.006ZM94 120.007L98 120.007L98 121.007L94 121.007L94 120.007ZM102 120.007L106 120.007L106 121.007L102 121.007L102 120.007ZM110 120.008L114 120.008L114 121.008L110 121.008L110 120.008ZM118 120.008L122 120.008L122 121.008L118 121.008L118 120.008ZM126 120.009L130 120.009L130 121.009L126 121.009L126 120.009ZM134 120.009L138 120.01L138 121.01L134 121.009L134 120.009ZM142 120.01L146 120.01L146 121.01L142 121.01L142 120.01ZM150 120.01L154 120.011L154 121.011L150 121.01L150 120.01ZM158 120.011L162 120.011L162 121.011L158 121.011L158 120.011ZM166 120.012L170 120.012L170 121.012L166 121.012L166 120.012ZM174 120.012L178 120.012L178 121.012L174 121.012L174 120.012ZM182 120.013L186 120.013L186 121.013L182 121.013L182 120.013ZM190 120.013L194 120.013L194 121.013L190 121.013L190 120.013ZM198 120.014L202 120.014L202 121.014L198 121.014L198 120.014ZM206 120.014L210 120.015L210 121.015L206 121.014L206 120.014ZM214 120.015L218 120.015L218 121.015L214 121.015L214 120.015ZM222 120.015L226 120.016L226 121.016L222 121.015L222 120.015ZM230 120.016L234 120.016L234 121.016L230 121.016L230 120.016ZM238 120.017L242 120.017L242 121.017L238 121.017L238 120.017ZM246 120.017L250 120.017L250 121.017L246 121.017L246 120.017ZM254 120.018L258 120.018L258 121.018L254 121.018L254 120.018ZM262 120.018L266 120.018L266 121.018L262 121.018L262 120.018ZM270 120.019L274 120.019L274 121.019L270 121.019L270 120.019ZM278 120.019L282 120.02L282 121.02L278 121.019L278 120.019ZM286 120.02L290 120.02L290 121.02L286 121.02L286 120.02ZM294 120.02L298 120.021L298 121.021L294 121.02L294 120.02ZM302 120.021L306 120.021L306 121.021L302 121.021L302 120.021ZM310 120.022L314 120.022L314 121.022L310 121.022L310 120.022ZM318 120.022L322 120.022L322 121.022L318 121.022L318 120.022ZM326 120.023L330 120.023L330 121.023L326 121.023L326 120.023ZM334 120.023L338 120.023L338 121.023L334 121.023L334 120.023ZM342 120.024L346 120.024L346 121.024L342 121.024L342 120.024ZM350 120.024L354 120.025L354 121.025L350 121.024L350 120.024ZM358 120.025L362 120.025L362 121.025L358 121.025L358 120.025ZM366 120.025L370 120.026L370 121.026L366 121.025L366 120.025ZM374 120.026L378 120.026L378 121.026L374 121.026L374 120.026ZM382 120.027L386 120.027L386 121.027L382 121.027L382 120.027ZM390 120.027L394 120.027L394 121.027L390 121.027L390 120.027ZM398 120.028L402 120.028L402 121.028L398 121.028L398 120.028ZM406 120.028L410 120.029L410 121.029L406 121.028L406 120.028ZM414 120.029L418 120.029L418 121.029L414 121.029L414 120.029ZM422 120.029L426 120.03L426 121.03L422 121.029L422 120.029ZM430 120.03L434 120.03L434 121.03L430 121.03L430 120.03ZM438 120.03L442 120.031L442 121.031L438 121.03L438 120.03ZM446 120.031L450 120.031L450 121.031L446 121.031L446 120.031ZM454 120.032L458 120.032L458 121.032L454 121.032L454 120.032ZM462 120.032L466 120.032L466 121.032L462 121.032L462 120.032ZM470 120.033L474 120.033L474 121.033L470 121.033L470 120.033ZM478 120.033L482 120.034L482 121.034L478 121.033L478 120.033ZM486 120.034L490 120.034L490 121.034L486 121.034L486 120.034ZM494 120.034L498 120.035L498 121.035L494 121.034L494 120.034ZM502 120.035L506 120.035L506 121.035L502 121.035L502 120.035ZM510 120.035L514 120.036L514 121.036L510 121.035L510 120.035ZM518 120.036L522 120.036L522 121.036L518 121.036L518 120.036ZM526 120.037L530 120.037L530 121.037L526 121.037L526 120.037ZM534 120.037L538 120.037L538 121.037L534 121.037L534 120.037ZM542 120.038L546 120.038L546 121.038L542 121.038L542 120.038ZM550 120.038L554 120.039L554 121.039L550 121.038L550 120.038ZM558 120.039L562 120.039L562 121.039L558 121.039L558 120.039ZM566 120.039L570 120.04L570 121.04L566 121.039L566 120.039ZM574 120.04L578 120.04L578 121.04L574 121.04L574 120.04ZM582 120.04L586 120.041L586 121.041L582 121.04L582 120.04ZM590 120.041L594 120.041L594 121.041L590 121.041L590 120.041ZM598 120.042L602 120.042L602 121.042L598 121.042L598 120.042ZM606 120.042L610 120.042L610 121.042L606 121.042L606 120.042ZM614 120.043L618 120.043L618 121.043L614 121.043L614 120.043ZM622 120.043L626 120.044L626 121.044L622 121.043L622 120.043ZM630 120.044L634 120.044L634 121.044L630 121.044L630 120.044ZM638 120.044L642 120.045L642 121.045L638 121.044L638 120.044ZM646 120.045L650 120.045L650 121.045L646 121.045L646 120.045ZM654 120.045L658 120.046L658 121.046L654 121.045L654 120.045ZM662 120.046L666 120.046L666 121.046L662 121.046L662 120.046ZM670 120.047L674 120.047L674 121.047L670 121.047L670 120.047ZM678 120.047L682 120.047L682 121.047L678 121.047L678 120.047ZM686 120.048L690 120.048L690 121.048L686 121.048L686 120.048ZM694 120.048L698 120.049L698 121.049L694 121.048L694 120.048ZM702 120.049L706 120.049L706 121.049L702 121.049L702 120.049ZM710 120.049L714 120.05L714 121.05L710 121.049L710 120.049ZM718 120.05L722 120.05L722 121.05L718 121.05L718 120.05ZM726 120.05L730 120.051L730 121.051L726 121.05L726 120.05ZM734 120.051L738 120.051L738 121.051L734 121.051L734 120.051ZM742 120.052L746 120.052L746 121.052L742 121.052L742 120.052ZM750 120.052L754 120.052L754 121.052L750 121.052L750 120.052ZM758 120.053L762 120.053L762 121.053L758 121.053L758 120.053ZM766 120.053L770 120.054L770 121.054L766 121.053L766 120.053ZM774 120.054L778 120.054L778 121.054L774 121.054L774 120.054ZM782 120.054L786 120.055L786 121.055L782 121.054L782 120.054ZM790 120.055L794 120.055L794 121.055L790 121.055L790 120.055ZM798 120.055L802 120.056L802 121.056L798 121.055L798 120.055ZM806 120.056L810 120.056L810 121.056L806 121.056L806 120.056ZM814 120.057L818 120.057L818 121.057L814 121.057L814 120.057ZM822 120.057L826 120.057L826 121.057L822 121.057L822 120.057ZM830 120.058L834 120.058L834 121.058L830 121.058L830 120.058ZM838 120.058L842 120.059L842 121.059L838 121.058L838 120.058ZM846 120.059L850 120.059L850 121.059L846 121.059L846 120.059ZM854 120.059L858 120.06L858 121.06L854 121.059L854 120.059ZM862 120.06L866 120.06L866 121.06L862 121.06L862 120.06ZM870 120.06L874 120.061L874 121.061L870 121.06L870 120.06ZM878 120.061L882 120.061L882 121.061L878 121.061L878 120.061ZM886 120.062L890 120.062L890 121.062L886 121.062L886 120.062ZM894 120.062L898 120.062L898 121.062L894 121.062L894 120.062ZM902 120.063L906 120.063L906 121.063L902 121.063L902 120.063ZM910 120.063L914 120.064L914 121.064L910 121.063L910 120.063ZM918 120.064L922 120.064L922 121.064L918 121.064L918 120.064ZM926 120.064L930 120.065L930 121.065L926 121.064L926 120.064ZM934 120.065L938 120.065L938 121.065L934 121.065L934 120.065ZM942 120.065L946 120.066L946 121.066L942 121.065L942 120.065ZM950 120.066L954 120.066L954 121.066L950 121.066L950 120.066ZM958 120.067L962 120.067L962 121.067L958 121.067L958 120.067ZM966 120.067L970 120.067L970 121.067L966 121.067L966 120.067ZM974 120.068L978 120.068L978 121.068L974 121.068L974 120.068ZM982 120.068L986 120.069L986 121.069L982 121.068L982 120.068ZM990 120.069L994 120.069L994 121.069L990 121.069L990 120.069ZM998 120.069L1002 120.07L1002 121.07L998 121.069L998 120.069ZM1006 120.07L1010 120.07L1010 121.07L1006 121.07L1006 120.07ZM1014 120.07L1018 120.071L1018 121.071L1014 121.07L1014 120.07ZM1022 120.071L1026 120.071L1026 121.071L1022 121.071L1022 120.071ZM1030 120.072L1034 120.072L1034 121.072L1030 121.072L1030 120.072ZM1038 120.072L1042 120.072L1042 121.072L1038 121.072L1038 120.072ZM1046 120.073L1050 120.073L1050 121.073L1046 121.073L1046 120.073ZM1054 120.073L1058 120.074L1058 121.074L1054 121.073L1054 120.073ZM1062 120.074L1066 120.074L1066 121.074L1062 121.074L1062 120.074ZM1070 120.074L1074 120.075L1074 121.075L1070 121.074L1070 120.074ZM1078 120.075L1082 120.075L1082 121.075L1078 121.075L1078 120.075ZM1086 120.075L1090 120.076L1090 121.076L1086 121.075L1086 120.075ZM1094 120.076L1098 120.076L1098 121.076L1094 121.076L1094 120.076ZM1102 120.077L1106 120.077L1106 121.077L1102 121.077L1102 120.077ZM1110 120.077L1114 120.077L1114 121.077L1110 121.077L1110 120.077ZM1118 120.078L1122 120.078L1122 121.078L1118 121.078L1118 120.078ZM1126 120.078L1130 120.079L1130 121.079L1126 121.078L1126 120.078ZM1134 120.079L1138 120.079L1138 121.079L1134 121.079L1134 120.079ZM1142 120.079L1146 120.08L1146 121.08L1142 121.079L1142 120.079ZM1150 120.08L1154 120.08L1154 121.08L1150 121.08L1150 120.08ZM1158 120.08L1162 120.081L1162 121.081L1158 121.08L1158 120.08ZM1166 120.081L1170 120.081L1170 121.081L1166 121.081L1166 120.081ZM1174 120.082L1178 120.082L1178 121.082L1174 121.082L1174 120.082ZM1182 120.082L1186 120.082L1186 121.082L1182 121.082L1182 120.082ZM1190 120.083L1194 120.083L1194 121.083L1190 121.083L1190 120.083ZM1198 120.083L1202 120.084L1202 121.084L1198 121.083L1198 120.083ZM1206 120.084L1210 120.084L1210 121.084L1206 121.084L1206 120.084ZM1214 120.084L1218 120.085L1218 121.085L1214 121.084L1214 120.084ZM1222 120.085L1226 120.085L1226 121.085L1222 121.085L1222 120.085ZM1230 120.086L1234 120.086L1234 121.086L1230 121.086L1230 120.086ZM1238 120.086L1242 120.086L1242 121.086L1238 121.086L1238 120.086ZM1246 120.087L1250 120.087L1250 121.087L1246 121.087L1246 120.087ZM1254 120.087L1258 120.087L1258 121.087L1254 121.087L1254 120.087ZM1262 120.088L1266 120.088L1266 121.088L1262 121.088L1262 120.088ZM1270 120.088L1274 120.089L1274 121.089L1270 121.088L1270 120.088ZM1278 120.089L1282 120.089L1282 121.089L1278 121.089L1278 120.089ZM1286 120.089L1290 120.09L1290 121.09L1286 121.089L1286 120.089ZM1294 120.09L1298 120.09L1298 121.09L1294 121.09L1294 120.09ZM1302 120.091L1306 120.091L1306 121.091L1302 121.091L1302 120.091ZM1310 120.091L1314 120.091L1314 121.091L1310 121.091L1310 120.091ZM1318 120.092L1322 120.092L1322 121.092L1318 121.092L1318 120.092ZM1326 120.092L1330 120.092L1330 121.092L1326 121.092L1326 120.092ZM1334 120.093L1338 120.093L1338 121.093L1334 121.093L1334 120.093ZM1342 120.093L1346 120.094L1346 121.094L1342 121.093L1342 120.093ZM1350 120.094L1354 120.094L1354 121.094L1350 121.094L1350 120.094ZM1358 120.094L1362 120.095L1362 121.095L1358 121.094L1358 120.094ZM1366 120.095L1370 120.095L1370 121.095L1366 121.095L1366 120.095ZM1374 120.096L1378 120.096L1378 121.096L1374 121.096L1374 120.096ZM1382 120.096L1386 120.096L1386 121.096L1382 121.096L1382 120.096ZM1390 120.097L1394 120.097L1394 121.097L1390 121.097L1390 120.097ZM1398 120.097L1402 120.097L1402 121.097L1398 121.097L1398 120.097ZM1406 120.098L1410 120.098L1410 121.098L1406 121.098L1406 120.098ZM1414 120.098L1418 120.099L1418 121.099L1414 121.098L1414 120.098ZM1422 120.099L1426 120.099L1426 121.099L1422 121.099L1422 120.099ZM1430 120.099L1434 120.1L1434 121.1L1430 121.099L1430 120.099ZM1438 120.1L1440 120.1L1440 121.1L1438 121.1L1438 120.1Z">
</path>
</g>
<g opacity="0.5">
<path   fill="rgba(129, 133, 152, 1)"  d="M3.47561e-05 555L2.00003 555L1.99997 556L-3.47561e-05 556L3.47561e-05 555ZM6.00003 555L10 555.001L9.99996 556.001L5.99996 556L6.00003 555ZM14 555.001L18 555.001L18 556.001L14 556.001L14 555.001ZM22 555.002L26 555.002L26 556.002L22 556.002L22 555.002ZM30 555.002L34 555.002L34 556.002L30 556.002L30 555.002ZM38 555.003L42 555.003L42 556.003L38 556.003L38 555.003ZM46 555.003L50 555.003L50 556.003L46 556.003L46 555.003ZM54 555.004L58 555.004L58 556.004L54 556.004L54 555.004ZM62 555.004L66 555.005L66 556.005L62 556.004L62 555.004ZM70 555.005L74 555.005L74 556.005L70 556.005L70 555.005ZM78 555.005L82 555.006L82 556.006L78 556.005L78 555.005ZM86 555.006L90 555.006L90 556.006L86 556.006L86 555.006ZM94 555.007L98 555.007L98 556.007L94 556.007L94 555.007ZM102 555.007L106 555.007L106 556.007L102 556.007L102 555.007ZM110 555.008L114 555.008L114 556.008L110 556.008L110 555.008ZM118 555.008L122 555.008L122 556.008L118 556.008L118 555.008ZM126 555.009L130 555.009L130 556.009L126 556.009L126 555.009ZM134 555.009L138 555.01L138 556.01L134 556.009L134 555.009ZM142 555.01L146 555.01L146 556.01L142 556.01L142 555.01ZM150 555.01L154 555.011L154 556.011L150 556.01L150 555.01ZM158 555.011L162 555.011L162 556.011L158 556.011L158 555.011ZM166 555.012L170 555.012L170 556.012L166 556.012L166 555.012ZM174 555.012L178 555.012L178 556.012L174 556.012L174 555.012ZM182 555.013L186 555.013L186 556.013L182 556.013L182 555.013ZM190 555.013L194 555.013L194 556.013L190 556.013L190 555.013ZM198 555.014L202 555.014L202 556.014L198 556.014L198 555.014ZM206 555.014L210 555.015L210 556.015L206 556.014L206 555.014ZM214 555.015L218 555.015L218 556.015L214 556.015L214 555.015ZM222 555.015L226 555.016L226 556.016L222 556.015L222 555.015ZM230 555.016L234 555.016L234 556.016L230 556.016L230 555.016ZM238 555.017L242 555.017L242 556.017L238 556.017L238 555.017ZM246 555.017L250 555.017L250 556.017L246 556.017L246 555.017ZM254 555.018L258 555.018L258 556.018L254 556.018L254 555.018ZM262 555.018L266 555.018L266 556.018L262 556.018L262 555.018ZM270 555.019L274 555.019L274 556.019L270 556.019L270 555.019ZM278 555.019L282 555.02L282 556.02L278 556.019L278 555.019ZM286 555.02L290 555.02L290 556.02L286 556.02L286 555.02ZM294 555.02L298 555.021L298 556.021L294 556.02L294 555.02ZM302 555.021L306 555.021L306 556.021L302 556.021L302 555.021ZM310 555.022L314 555.022L314 556.022L310 556.022L310 555.022ZM318 555.022L322 555.022L322 556.022L318 556.022L318 555.022ZM326 555.023L330 555.023L330 556.023L326 556.023L326 555.023ZM334 555.023L338 555.023L338 556.023L334 556.023L334 555.023ZM342 555.024L346 555.024L346 556.024L342 556.024L342 555.024ZM350 555.024L354 555.025L354 556.025L350 556.024L350 555.024ZM358 555.025L362 555.025L362 556.025L358 556.025L358 555.025ZM366 555.025L370 555.026L370 556.026L366 556.025L366 555.025ZM374 555.026L378 555.026L378 556.026L374 556.026L374 555.026ZM382 555.027L386 555.027L386 556.027L382 556.027L382 555.027ZM390 555.027L394 555.027L394 556.027L390 556.027L390 555.027ZM398 555.028L402 555.028L402 556.028L398 556.028L398 555.028ZM406 555.028L410 555.029L410 556.029L406 556.028L406 555.028ZM414 555.029L418 555.029L418 556.029L414 556.029L414 555.029ZM422 555.029L426 555.03L426 556.03L422 556.029L422 555.029ZM430 555.03L434 555.03L434 556.03L430 556.03L430 555.03ZM438 555.03L442 555.031L442 556.031L438 556.03L438 555.03ZM446 555.031L450 555.031L450 556.031L446 556.031L446 555.031ZM454 555.032L458 555.032L458 556.032L454 556.032L454 555.032ZM462 555.032L466 555.032L466 556.032L462 556.032L462 555.032ZM470 555.033L474 555.033L474 556.033L470 556.033L470 555.033ZM478 555.033L482 555.034L482 556.034L478 556.033L478 555.033ZM486 555.034L490 555.034L490 556.034L486 556.034L486 555.034ZM494 555.034L498 555.035L498 556.035L494 556.034L494 555.034ZM502 555.035L506 555.035L506 556.035L502 556.035L502 555.035ZM510 555.035L514 555.036L514 556.036L510 556.035L510 555.035ZM518 555.036L522 555.036L522 556.036L518 556.036L518 555.036ZM526 555.037L530 555.037L530 556.037L526 556.037L526 555.037ZM534 555.037L538 555.037L538 556.037L534 556.037L534 555.037ZM542 555.038L546 555.038L546 556.038L542 556.038L542 555.038ZM550 555.038L554 555.039L554 556.039L550 556.038L550 555.038ZM558 555.039L562 555.039L562 556.039L558 556.039L558 555.039ZM566 555.039L570 555.04L570 556.04L566 556.039L566 555.039ZM574 555.04L578 555.04L578 556.04L574 556.04L574 555.04ZM582 555.04L586 555.041L586 556.041L582 556.04L582 555.04ZM590 555.041L594 555.041L594 556.041L590 556.041L590 555.041ZM598 555.042L602 555.042L602 556.042L598 556.042L598 555.042ZM606 555.042L610 555.042L610 556.042L606 556.042L606 555.042ZM614 555.043L618 555.043L618 556.043L614 556.043L614 555.043ZM622 555.043L626 555.044L626 556.044L622 556.043L622 555.043ZM630 555.044L634 555.044L634 556.044L630 556.044L630 555.044ZM638 555.044L642 555.045L642 556.045L638 556.044L638 555.044ZM646 555.045L650 555.045L650 556.045L646 556.045L646 555.045ZM654 555.045L658 555.046L658 556.046L654 556.045L654 555.045ZM662 555.046L666 555.046L666 556.046L662 556.046L662 555.046ZM670 555.047L674 555.047L674 556.047L670 556.047L670 555.047ZM678 555.047L682 555.047L682 556.047L678 556.047L678 555.047ZM686 555.048L690 555.048L690 556.048L686 556.048L686 555.048ZM694 555.048L698 555.049L698 556.049L694 556.048L694 555.048ZM702 555.049L706 555.049L706 556.049L702 556.049L702 555.049ZM710 555.049L714 555.05L714 556.05L710 556.049L710 555.049ZM718 555.05L722 555.05L722 556.05L718 556.05L718 555.05ZM726 555.05L730 555.051L730 556.051L726 556.05L726 555.05ZM734 555.051L738 555.051L738 556.051L734 556.051L734 555.051ZM742 555.052L746 555.052L746 556.052L742 556.052L742 555.052ZM750 555.052L754 555.052L754 556.052L750 556.052L750 555.052ZM758 555.053L762 555.053L762 556.053L758 556.053L758 555.053ZM766 555.053L770 555.054L770 556.054L766 556.053L766 555.053ZM774 555.054L778 555.054L778 556.054L774 556.054L774 555.054ZM782 555.054L786 555.055L786 556.055L782 556.054L782 555.054ZM790 555.055L794 555.055L794 556.055L790 556.055L790 555.055ZM798 555.055L802 555.056L802 556.056L798 556.055L798 555.055ZM806 555.056L810 555.056L810 556.056L806 556.056L806 555.056ZM814 555.057L818 555.057L818 556.057L814 556.057L814 555.057ZM822 555.057L826 555.057L826 556.057L822 556.057L822 555.057ZM830 555.058L834 555.058L834 556.058L830 556.058L830 555.058ZM838 555.058L842 555.059L842 556.059L838 556.058L838 555.058ZM846 555.059L850 555.059L850 556.059L846 556.059L846 555.059ZM854 555.059L858 555.06L858 556.06L854 556.059L854 555.059ZM862 555.06L866 555.06L866 556.06L862 556.06L862 555.06ZM870 555.06L874 555.061L874 556.061L870 556.06L870 555.06ZM878 555.061L882 555.061L882 556.061L878 556.061L878 555.061ZM886 555.062L890 555.062L890 556.062L886 556.062L886 555.062ZM894 555.062L898 555.062L898 556.062L894 556.062L894 555.062ZM902 555.063L906 555.063L906 556.063L902 556.063L902 555.063ZM910 555.063L914 555.064L914 556.064L910 556.063L910 555.063ZM918 555.064L922 555.064L922 556.064L918 556.064L918 555.064ZM926 555.064L930 555.065L930 556.065L926 556.064L926 555.064ZM934 555.065L938 555.065L938 556.065L934 556.065L934 555.065ZM942 555.065L946 555.066L946 556.066L942 556.065L942 555.065ZM950 555.066L954 555.066L954 556.066L950 556.066L950 555.066ZM958 555.067L962 555.067L962 556.067L958 556.067L958 555.067ZM966 555.067L970 555.067L970 556.067L966 556.067L966 555.067ZM974 555.068L978 555.068L978 556.068L974 556.068L974 555.068ZM982 555.068L986 555.069L986 556.069L982 556.068L982 555.068ZM990 555.069L994 555.069L994 556.069L990 556.069L990 555.069ZM998 555.069L1002 555.07L1002 556.07L998 556.069L998 555.069ZM1006 555.07L1010 555.07L1010 556.07L1006 556.07L1006 555.07ZM1014 555.07L1018 555.071L1018 556.071L1014 556.07L1014 555.07ZM1022 555.071L1026 555.071L1026 556.071L1022 556.071L1022 555.071ZM1030 555.072L1034 555.072L1034 556.072L1030 556.072L1030 555.072ZM1038 555.072L1042 555.072L1042 556.072L1038 556.072L1038 555.072ZM1046 555.073L1050 555.073L1050 556.073L1046 556.073L1046 555.073ZM1054 555.073L1058 555.074L1058 556.074L1054 556.073L1054 555.073ZM1062 555.074L1066 555.074L1066 556.074L1062 556.074L1062 555.074ZM1070 555.074L1074 555.075L1074 556.075L1070 556.074L1070 555.074ZM1078 555.075L1082 555.075L1082 556.075L1078 556.075L1078 555.075ZM1086 555.076L1090 555.076L1090 556.076L1086 556.076L1086 555.076ZM1094 555.076L1098 555.076L1098 556.076L1094 556.076L1094 555.076ZM1102 555.077L1106 555.077L1106 556.077L1102 556.077L1102 555.077ZM1110 555.077L1114 555.077L1114 556.077L1110 556.077L1110 555.077ZM1118 555.078L1122 555.078L1122 556.078L1118 556.078L1118 555.078ZM1126 555.078L1130 555.079L1130 556.079L1126 556.078L1126 555.078ZM1134 555.079L1138 555.079L1138 556.079L1134 556.079L1134 555.079ZM1142 555.079L1146 555.08L1146 556.08L1142 556.079L1142 555.079ZM1150 555.08L1154 555.08L1154 556.08L1150 556.08L1150 555.08ZM1158 555.081L1162 555.081L1162 556.081L1158 556.081L1158 555.081ZM1166 555.081L1170 555.081L1170 556.081L1166 556.081L1166 555.081ZM1174 555.082L1178 555.082L1178 556.082L1174 556.082L1174 555.082ZM1182 555.082L1186 555.082L1186 556.082L1182 556.082L1182 555.082ZM1190 555.083L1194 555.083L1194 556.083L1190 556.083L1190 555.083ZM1198 555.083L1202 555.084L1202 556.084L1198 556.083L1198 555.083ZM1206 555.084L1210 555.084L1210 556.084L1206 556.084L1206 555.084ZM1214 555.084L1218 555.085L1218 556.085L1214 556.084L1214 555.084ZM1222 555.085L1226 555.085L1226 556.085L1222 556.085L1222 555.085ZM1230 555.086L1234 555.086L1234 556.086L1230 556.086L1230 555.086ZM1238 555.086L1242 555.086L1242 556.086L1238 556.086L1238 555.086ZM1246 555.087L1250 555.087L1250 556.087L1246 556.087L1246 555.087ZM1254 555.087L1258 555.087L1258 556.087L1254 556.087L1254 555.087ZM1262 555.088L1266 555.088L1266 556.088L1262 556.088L1262 555.088ZM1270 555.088L1274 555.089L1274 556.089L1270 556.088L1270 555.088ZM1278 555.089L1282 555.089L1282 556.089L1278 556.089L1278 555.089ZM1286 555.089L1290 555.09L1290 556.09L1286 556.089L1286 555.089ZM1294 555.09L1298 555.09L1298 556.09L1294 556.09L1294 555.09ZM1302 555.091L1306 555.091L1306 556.091L1302 556.091L1302 555.091ZM1310 555.091L1314 555.091L1314 556.091L1310 556.091L1310 555.091ZM1318 555.092L1322 555.092L1322 556.092L1318 556.092L1318 555.092ZM1326 555.092L1330 555.092L1330 556.092L1326 556.092L1326 555.092ZM1334 555.093L1338 555.093L1338 556.093L1334 556.093L1334 555.093ZM1342 555.093L1346 555.094L1346 556.094L1342 556.093L1342 555.093ZM1350 555.094L1354 555.094L1354 556.094L1350 556.094L1350 555.094ZM1358 555.094L1362 555.095L1362 556.095L1358 556.094L1358 555.094ZM1366 555.095L1370 555.095L1370 556.095L1366 556.095L1366 555.095ZM1374 555.096L1378 555.096L1378 556.096L1374 556.096L1374 555.096ZM1382 555.096L1386 555.096L1386 556.096L1382 556.096L1382 555.096ZM1390 555.097L1394 555.097L1394 556.097L1390 556.097L1390 555.097ZM1398 555.097L1402 555.097L1402 556.097L1398 556.097L1398 555.097ZM1406 555.098L1410 555.098L1410 556.098L1406 556.098L1406 555.098ZM1414 555.098L1418 555.099L1418 556.099L1414 556.098L1414 555.098ZM1422 555.099L1426 555.099L1426 556.099L1422 556.099L1422 555.099ZM1430 555.099L1434 555.1L1434 556.1L1430 556.099L1430 555.099ZM1438 555.1L1440 555.1L1440 556.1L1438 556.1L1438 555.1Z">
</path>
</g>
<g opacity="0.5">
<path   fill="rgba(129, 133, 152, 1)"  d="M3.47561e-05 955L2.00003 955L1.99997 956L-3.47561e-05 956L3.47561e-05 955ZM6.00003 955L10 955.001L9.99996 956.001L5.99996 956L6.00003 955ZM14 955.001L18 955.001L18 956.001L14 956.001L14 955.001ZM22 955.002L26 955.002L26 956.002L22 956.002L22 955.002ZM30 955.002L34 955.002L34 956.002L30 956.002L30 955.002ZM38 955.003L42 955.003L42 956.003L38 956.003L38 955.003ZM46 955.003L50 955.003L50 956.003L46 956.003L46 955.003ZM54 955.004L58 955.004L58 956.004L54 956.004L54 955.004ZM62 955.004L66 955.005L66 956.005L62 956.004L62 955.004ZM70 955.005L74 955.005L74 956.005L70 956.005L70 955.005ZM78 955.005L82 955.006L82 956.006L78 956.005L78 955.005ZM86 955.006L90 955.006L90 956.006L86 956.006L86 955.006ZM94 955.007L98 955.007L98 956.007L94 956.007L94 955.007ZM102 955.007L106 955.007L106 956.007L102 956.007L102 955.007ZM110 955.008L114 955.008L114 956.008L110 956.008L110 955.008ZM118 955.008L122 955.008L122 956.008L118 956.008L118 955.008ZM126 955.009L130 955.009L130 956.009L126 956.009L126 955.009ZM134 955.009L138 955.01L138 956.01L134 956.009L134 955.009ZM142 955.01L146 955.01L146 956.01L142 956.01L142 955.01ZM150 955.01L154 955.011L154 956.011L150 956.01L150 955.01ZM158 955.011L162 955.011L162 956.011L158 956.011L158 955.011ZM166 955.012L170 955.012L170 956.012L166 956.012L166 955.012ZM174 955.012L178 955.012L178 956.012L174 956.012L174 955.012ZM182 955.013L186 955.013L186 956.013L182 956.013L182 955.013ZM190 955.013L194 955.013L194 956.013L190 956.013L190 955.013ZM198 955.014L202 955.014L202 956.014L198 956.014L198 955.014ZM206 955.014L210 955.015L210 956.015L206 956.014L206 955.014ZM214 955.015L218 955.015L218 956.015L214 956.015L214 955.015ZM222 955.015L226 955.016L226 956.016L222 956.015L222 955.015ZM230 955.016L234 955.016L234 956.016L230 956.016L230 955.016ZM238 955.017L242 955.017L242 956.017L238 956.017L238 955.017ZM246 955.017L250 955.017L250 956.017L246 956.017L246 955.017ZM254 955.018L258 955.018L258 956.018L254 956.018L254 955.018ZM262 955.018L266 955.018L266 956.018L262 956.018L262 955.018ZM270 955.019L274 955.019L274 956.019L270 956.019L270 955.019ZM278 955.019L282 955.02L282 956.02L278 956.019L278 955.019ZM286 955.02L290 955.02L290 956.02L286 956.02L286 955.02ZM294 955.02L298 955.021L298 956.021L294 956.02L294 955.02ZM302 955.021L306 955.021L306 956.021L302 956.021L302 955.021ZM310 955.022L314 955.022L314 956.022L310 956.022L310 955.022ZM318 955.022L322 955.022L322 956.022L318 956.022L318 955.022ZM326 955.023L330 955.023L330 956.023L326 956.023L326 955.023ZM334 955.023L338 955.023L338 956.023L334 956.023L334 955.023ZM342 955.024L346 955.024L346 956.024L342 956.024L342 955.024ZM350 955.024L354 955.025L354 956.025L350 956.024L350 955.024ZM358 955.025L362 955.025L362 956.025L358 956.025L358 955.025ZM366 955.025L370 955.026L370 956.026L366 956.025L366 955.025ZM374 955.026L378 955.026L378 956.026L374 956.026L374 955.026ZM382 955.027L386 955.027L386 956.027L382 956.027L382 955.027ZM390 955.027L394 955.027L394 956.027L390 956.027L390 955.027ZM398 955.028L402 955.028L402 956.028L398 956.028L398 955.028ZM406 955.028L410 955.029L410 956.029L406 956.028L406 955.028ZM414 955.029L418 955.029L418 956.029L414 956.029L414 955.029ZM422 955.029L426 955.03L426 956.03L422 956.029L422 955.029ZM430 955.03L434 955.03L434 956.03L430 956.03L430 955.03ZM438 955.03L442 955.031L442 956.031L438 956.03L438 955.03ZM446 955.031L450 955.031L450 956.031L446 956.031L446 955.031ZM454 955.032L458 955.032L458 956.032L454 956.032L454 955.032ZM462 955.032L466 955.032L466 956.032L462 956.032L462 955.032ZM470 955.033L474 955.033L474 956.033L470 956.033L470 955.033ZM478 955.033L482 955.034L482 956.034L478 956.033L478 955.033ZM486 955.034L490 955.034L490 956.034L486 956.034L486 955.034ZM494 955.034L498 955.035L498 956.035L494 956.034L494 955.034ZM502 955.035L506 955.035L506 956.035L502 956.035L502 955.035ZM510 955.035L514 955.036L514 956.036L510 956.035L510 955.035ZM518 955.036L522 955.036L522 956.036L518 956.036L518 955.036ZM526 955.037L530 955.037L530 956.037L526 956.037L526 955.037ZM534 955.037L538 955.037L538 956.037L534 956.037L534 955.037ZM542 955.038L546 955.038L546 956.038L542 956.038L542 955.038ZM550 955.038L554 955.039L554 956.039L550 956.038L550 955.038ZM558 955.039L562 955.039L562 956.039L558 956.039L558 955.039ZM566 955.039L570 955.04L570 956.04L566 956.039L566 955.039ZM574 955.04L578 955.04L578 956.04L574 956.04L574 955.04ZM582 955.04L586 955.041L586 956.041L582 956.04L582 955.04ZM590 955.041L594 955.041L594 956.041L590 956.041L590 955.041ZM598 955.042L602 955.042L602 956.042L598 956.042L598 955.042ZM606 955.042L610 955.042L610 956.042L606 956.042L606 955.042ZM614 955.043L618 955.043L618 956.043L614 956.043L614 955.043ZM622 955.043L626 955.044L626 956.044L622 956.043L622 955.043ZM630 955.044L634 955.044L634 956.044L630 956.044L630 955.044ZM638 955.044L642 955.045L642 956.045L638 956.044L638 955.044ZM646 955.045L650 955.045L650 956.045L646 956.045L646 955.045ZM654 955.045L658 955.046L658 956.046L654 956.045L654 955.045ZM662 955.046L666 955.046L666 956.046L662 956.046L662 955.046ZM670 955.047L674 955.047L674 956.047L670 956.047L670 955.047ZM678 955.047L682 955.047L682 956.047L678 956.047L678 955.047ZM686 955.048L690 955.048L690 956.048L686 956.048L686 955.048ZM694 955.048L698 955.049L698 956.049L694 956.048L694 955.048ZM702 955.049L706 955.049L706 956.049L702 956.049L702 955.049ZM710 955.049L714 955.05L714 956.05L710 956.049L710 955.049ZM718 955.05L722 955.05L722 956.05L718 956.05L718 955.05ZM726 955.05L730 955.051L730 956.051L726 956.05L726 955.05ZM734 955.051L738 955.051L738 956.051L734 956.051L734 955.051ZM742 955.052L746 955.052L746 956.052L742 956.052L742 955.052ZM750 955.052L754 955.052L754 956.052L750 956.052L750 955.052ZM758 955.053L762 955.053L762 956.053L758 956.053L758 955.053ZM766 955.053L770 955.054L770 956.054L766 956.053L766 955.053ZM774 955.054L778 955.054L778 956.054L774 956.054L774 955.054ZM782 955.054L786 955.055L786 956.055L782 956.054L782 955.054ZM790 955.055L794 955.055L794 956.055L790 956.055L790 955.055ZM798 955.055L802 955.056L802 956.056L798 956.055L798 955.055ZM806 955.056L810 955.056L810 956.056L806 956.056L806 955.056ZM814 955.057L818 955.057L818 956.057L814 956.057L814 955.057ZM822 955.057L826 955.057L826 956.057L822 956.057L822 955.057ZM830 955.058L834 955.058L834 956.058L830 956.058L830 955.058ZM838 955.058L842 955.059L842 956.059L838 956.058L838 955.058ZM846 955.059L850 955.059L850 956.059L846 956.059L846 955.059ZM854 955.059L858 955.06L858 956.06L854 956.059L854 955.059ZM862 955.06L866 955.06L866 956.06L862 956.06L862 955.06ZM870 955.06L874 955.061L874 956.061L870 956.06L870 955.06ZM878 955.061L882 955.061L882 956.061L878 956.061L878 955.061ZM886 955.062L890 955.062L890 956.062L886 956.062L886 955.062ZM894 955.062L898 955.062L898 956.062L894 956.062L894 955.062ZM902 955.063L906 955.063L906 956.063L902 956.063L902 955.063ZM910 955.063L914 955.064L914 956.064L910 956.063L910 955.063ZM918 955.064L922 955.064L922 956.064L918 956.064L918 955.064ZM926 955.064L930 955.065L930 956.065L926 956.064L926 955.064ZM934 955.065L938 955.065L938 956.065L934 956.065L934 955.065ZM942 955.065L946 955.066L946 956.066L942 956.065L942 955.065ZM950 955.066L954 955.066L954 956.066L950 956.066L950 955.066ZM958 955.067L962 955.067L962 956.067L958 956.067L958 955.067ZM966 955.067L970 955.067L970 956.067L966 956.067L966 955.067ZM974 955.068L978 955.068L978 956.068L974 956.068L974 955.068ZM982 955.068L986 955.069L986 956.069L982 956.068L982 955.068ZM990 955.069L994 955.069L994 956.069L990 956.069L990 955.069ZM998 955.069L1002 955.07L1002 956.07L998 956.069L998 955.069ZM1006 955.07L1010 955.07L1010 956.07L1006 956.07L1006 955.07ZM1014 955.07L1018 955.071L1018 956.071L1014 956.07L1014 955.07ZM1022 955.071L1026 955.071L1026 956.071L1022 956.071L1022 955.071ZM1030 955.072L1034 955.072L1034 956.072L1030 956.072L1030 955.072ZM1038 955.072L1042 955.072L1042 956.072L1038 956.072L1038 955.072ZM1046 955.073L1050 955.073L1050 956.073L1046 956.073L1046 955.073ZM1054 955.073L1058 955.074L1058 956.074L1054 956.073L1054 955.073ZM1062 955.074L1066 955.074L1066 956.074L1062 956.074L1062 955.074ZM1070 955.074L1074 955.075L1074 956.075L1070 956.074L1070 955.074ZM1078 955.075L1082 955.075L1082 956.075L1078 956.075L1078 955.075ZM1086 955.076L1090 955.076L1090 956.076L1086 956.076L1086 955.076ZM1094 955.076L1098 955.076L1098 956.076L1094 956.076L1094 955.076ZM1102 955.077L1106 955.077L1106 956.077L1102 956.077L1102 955.077ZM1110 955.077L1114 955.077L1114 956.077L1110 956.077L1110 955.077ZM1118 955.078L1122 955.078L1122 956.078L1118 956.078L1118 955.078ZM1126 955.078L1130 955.079L1130 956.079L1126 956.078L1126 955.078ZM1134 955.079L1138 955.079L1138 956.079L1134 956.079L1134 955.079ZM1142 955.079L1146 955.08L1146 956.08L1142 956.079L1142 955.079ZM1150 955.08L1154 955.08L1154 956.08L1150 956.08L1150 955.08ZM1158 955.081L1162 955.081L1162 956.081L1158 956.081L1158 955.081ZM1166 955.081L1170 955.081L1170 956.081L1166 956.081L1166 955.081ZM1174 955.082L1178 955.082L1178 956.082L1174 956.082L1174 955.082ZM1182 955.082L1186 955.082L1186 956.082L1182 956.082L1182 955.082ZM1190 955.083L1194 955.083L1194 956.083L1190 956.083L1190 955.083ZM1198 955.083L1202 955.084L1202 956.084L1198 956.083L1198 955.083ZM1206 955.084L1210 955.084L1210 956.084L1206 956.084L1206 955.084ZM1214 955.084L1218 955.085L1218 956.085L1214 956.084L1214 955.084ZM1222 955.085L1226 955.085L1226 956.085L1222 956.085L1222 955.085ZM1230 955.086L1234 955.086L1234 956.086L1230 956.086L1230 955.086ZM1238 955.086L1242 955.086L1242 956.086L1238 956.086L1238 955.086ZM1246 955.087L1250 955.087L1250 956.087L1246 956.087L1246 955.087ZM1254 955.087L1258 955.087L1258 956.087L1254 956.087L1254 955.087ZM1262 955.088L1266 955.088L1266 956.088L1262 956.088L1262 955.088ZM1270 955.088L1274 955.089L1274 956.089L1270 956.088L1270 955.088ZM1278 955.089L1282 955.089L1282 956.089L1278 956.089L1278 955.089ZM1286 955.089L1290 955.09L1290 956.09L1286 956.089L1286 955.089ZM1294 955.09L1298 955.09L1298 956.09L1294 956.09L1294 955.09ZM1302 955.091L1306 955.091L1306 956.091L1302 956.091L1302 955.091ZM1310 955.091L1314 955.091L1314 956.091L1310 956.091L1310 955.091ZM1318 955.092L1322 955.092L1322 956.092L1318 956.092L1318 955.092ZM1326 955.092L1330 955.092L1330 956.092L1326 956.092L1326 955.092ZM1334 955.093L1338 955.093L1338 956.093L1334 956.093L1334 955.093ZM1342 955.093L1346 955.094L1346 956.094L1342 956.093L1342 955.093ZM1350 955.094L1354 955.094L1354 956.094L1350 956.094L1350 955.094ZM1358 955.094L1362 955.095L1362 956.095L1358 956.094L1358 955.094ZM1366 955.095L1370 955.095L1370 956.095L1366 956.095L1366 955.095ZM1374 955.096L1378 955.096L1378 956.096L1374 956.096L1374 955.096ZM1382 955.096L1386 955.096L1386 956.096L1382 956.096L1382 955.096ZM1390 955.097L1394 955.097L1394 956.097L1390 956.097L1390 955.097ZM1398 955.097L1402 955.097L1402 956.097L1398 956.097L1398 955.097ZM1406 955.098L1410 955.098L1410 956.098L1406 956.098L1406 955.098ZM1414 955.098L1418 955.099L1418 956.099L1414 956.098L1414 955.098ZM1422 955.099L1426 955.099L1426 956.099L1422 956.099L1422 955.099ZM1430 955.099L1434 955.1L1434 956.1L1430 956.099L1430 955.099ZM1438 955.1L1440 955.1L1440 956.1L1438 956.1L1438 955.1Z">
</path>
</g>
<g opacity="0.5">
<path   fill="url(#linear_border_555EBCFE-24F8-4368-8007-A6700301454A_0)"  d="M152.5 630.5L152.5 628.506L153.5 628.506L153.5 630.5L152.5 630.5ZM152.501 624.519L152.502 620.532L153.502 620.532L153.501 624.519L152.501 624.519ZM152.502 616.544L152.503 612.557L153.503 612.557L153.502 616.544L152.502 616.544ZM152.503 608.57L152.504 604.582L153.504 604.582L153.503 608.57L152.503 608.57ZM152.505 600.595L152.505 596.607L153.505 596.608L153.505 600.595L152.505 600.595ZM152.506 592.62L152.507 588.633L153.507 588.633L153.506 592.62L152.506 592.62ZM152.507 584.646L152.508 580.658L153.508 580.658L153.507 584.646L152.507 584.646ZM152.509 576.671L152.509 572.683L153.509 572.684L153.509 576.671L152.509 576.671ZM152.51 568.696L152.51 564.709L153.51 564.709L153.51 568.696L152.51 568.696ZM152.511 560.721L152.512 556.734L153.512 556.734L153.511 560.722L152.511 560.721ZM152.512 552.747L152.513 548.759L153.513 548.76L153.512 552.747L152.512 552.747ZM152.514 544.772L152.514 540.785L153.514 540.785L153.514 544.772L152.514 544.772ZM152.515 536.797L152.516 532.81L153.516 532.81L153.515 536.798L152.515 536.797ZM152.516 528.823L152.517 524.835L153.517 524.836L153.516 528.823L152.516 528.823ZM152.517 520.848L152.518 516.861L153.518 516.861L153.517 520.848L152.517 520.848ZM152.519 512.873L152.519 508.886L153.519 508.886L153.519 512.873L152.519 512.873ZM152.52 504.899L152.521 500.911L153.521 500.911L153.52 504.899L152.52 504.899ZM152.521 496.924L152.522 492.937L153.522 492.937L153.521 496.924L152.521 496.924ZM152.522 488.949L152.523 484.962L153.523 484.962L153.522 488.949L152.522 488.949ZM152.524 480.975L152.524 476.987L153.524 476.987L153.524 480.975L152.524 480.975ZM152.525 473L152.526 469.013L153.526 469.013L153.525 473L152.525 473ZM152.526 465.025L152.527 461.038L153.527 461.038L153.526 465.025L152.526 465.025ZM152.528 457.051L152.528 453.063L153.528 453.063L153.528 457.051L152.528 457.051ZM152.529 449.076L152.529 445.089L153.529 445.089L153.529 449.076L152.529 449.076ZM152.53 441.101L152.531 437.114L153.531 437.114L153.53 441.101L152.53 441.101ZM152.531 433.127L152.532 429.139L153.532 429.139L153.531 433.127L152.531 433.127ZM152.533 425.152L152.533 421.165L153.533 421.165L153.533 425.152L152.533 425.152ZM152.534 417.177L152.535 413.19L153.535 413.19L153.534 417.177L152.534 417.177ZM152.535 409.203L152.536 405.215L153.536 405.215L153.535 409.203L152.535 409.203ZM152.536 401.228L152.537 397.241L153.537 397.241L153.536 401.228L152.536 401.228ZM152.538 393.253L152.538 389.266L153.538 389.266L153.538 393.253L152.538 393.253ZM152.539 385.279L152.54 381.291L153.54 381.291L153.539 385.279L152.539 385.279ZM152.54 377.304L152.541 373.317L153.541 373.317L153.54 377.304L152.54 377.304ZM152.541 369.329L152.542 365.342L153.542 365.342L153.541 369.329L152.541 369.329ZM152.543 361.355L152.543 357.367L153.543 357.367L153.543 361.355L152.543 361.355ZM152.544 353.38L152.545 349.393L153.545 349.393L153.544 353.38L152.544 353.38ZM152.545 345.405L152.546 341.418L153.546 341.418L153.545 345.405L152.545 345.405ZM152.547 337.431L152.547 333.443L153.547 333.443L153.547 337.431L152.547 337.431ZM152.548 329.456L152.548 325.469L153.548 325.469L153.548 329.456L152.548 329.456ZM152.549 321.481L152.55 317.494L153.55 317.494L153.549 321.481L152.549 321.481ZM152.55 313.507L152.551 309.519L153.551 309.519L153.55 313.507L152.55 313.507ZM152.552 305.532L152.552 301.544L153.552 301.545L153.552 305.532L152.552 305.532ZM152.553 297.557L152.554 293.57L153.554 293.57L153.553 297.557L152.553 297.557ZM152.554 289.582L152.555 285.595L153.555 285.595L153.554 289.583L152.554 289.582ZM152.555 281.608L152.556 277.62L153.556 277.621L153.555 281.608L152.555 281.608ZM152.557 273.633L152.557 269.646L153.557 269.646L153.557 273.633L152.557 273.633ZM152.558 265.658L152.559 261.671L153.559 261.671L153.558 265.659L152.558 265.658ZM152.559 257.684L152.56 253.696L153.56 253.697L153.559 257.684L152.559 257.684ZM152.561 249.709L152.561 245.722L153.561 245.722L153.561 249.709L152.561 249.709ZM152.562 241.734L152.562 237.747L153.562 237.747L153.562 241.735L152.562 241.734ZM152.563 233.76L152.564 229.772L153.564 229.773L153.563 233.76L152.563 233.76ZM152.564 225.785L152.565 221.798L153.565 221.798L153.564 225.785L152.564 225.785ZM152.566 217.81L152.566 213.823L153.566 213.823L153.566 217.811L152.566 217.81ZM152.567 209.836L152.567 205.848L153.567 205.849L153.567 209.836L152.567 209.836ZM152.568 201.861L152.569 197.874L153.569 197.874L153.568 201.861L152.568 201.861ZM152.569 193.886L152.57 189.899L153.57 189.899L153.569 193.887L152.569 193.886ZM152.571 185.912L152.571 181.924L153.571 181.925L153.571 185.912L152.571 185.912ZM152.572 177.937L152.573 173.95L153.573 173.95L153.572 177.937L152.572 177.937ZM152.573 169.962L152.574 165.975L153.574 165.975L153.573 169.963L152.573 169.962ZM152.574 161.988L152.575 158L153.575 158.001L153.574 161.988L152.574 161.988ZM152.576 154.013L152.576 150.026L153.576 150.026L153.576 154.013L152.576 154.013ZM152.577 146.038L152.578 142.051L153.578 142.051L153.577 146.039L152.577 146.038ZM152.578 138.064L152.579 134.076L153.579 134.077L153.578 138.064L152.578 138.064ZM152.58 130.089L152.58 126.102L153.58 126.102L153.58 130.089L152.58 130.089ZM152.581 122.114L152.581 118.127L153.581 118.127L153.581 122.115L152.581 122.114ZM152.582 114.14L152.583 110.152L153.583 110.152L153.582 114.14L152.582 114.14ZM152.583 106.165L152.584 102.178L153.584 102.178L153.583 106.165L152.583 106.165ZM152.585 98.1902L152.585 94.2029L153.585 94.203L153.585 98.1904L152.585 98.1902ZM152.586 90.2155L152.586 86.2281L153.586 86.2283L153.586 90.2156L152.586 90.2155ZM152.587 82.2408L152.588 78.2534L153.588 78.2535L153.587 82.2409L152.587 82.2408ZM152.588 74.2661L152.589 70.2787L153.589 70.2788L153.588 74.2662L152.588 74.2661ZM152.59 66.2913L152.59 62.304L153.59 62.3041L153.59 66.2914L152.59 66.2913ZM152.591 58.3166L152.592 54.3292L153.592 54.3293L153.591 58.3167L152.591 58.3166ZM152.592 50.3419L152.593 46.3545L153.593 46.3546L153.592 50.342L152.592 50.3419ZM152.593 42.3671L152.594 38.3798L153.594 38.3799L153.593 42.3672L152.593 42.3671ZM152.595 34.3924L152.595 30.405L153.595 30.4052L153.595 34.3925L152.595 34.3924ZM152.596 26.4177L152.597 22.4303L153.597 22.4304L153.596 26.4178L152.596 26.4177ZM152.597 18.4429L152.598 14.4556L153.598 14.4557L153.597 18.4431L152.597 18.4429ZM152.599 10.4682L152.599 6.48083L153.599 6.48096L153.599 10.4683L152.599 10.4682ZM152.6 2.49347L152.6 0.499817L153.6 0.499939L153.6 2.49359L152.6 2.49347Z">
</path>
</g>
<g opacity="0.5">
<path   fill="url(#linear_border_5B735FF7-4B34-4064-96C2-39A0969686A4_0)"  d="M1286.5 1131.5L1286.5 1129.5L1287.5 1129.5L1287.5 1131.5L1286.5 1131.5ZM1286.5 1125.51L1286.5 1121.51L1287.5 1121.51L1287.5 1125.51L1286.5 1125.51ZM1286.5 1117.52L1286.5 1113.52L1287.5 1113.52L1287.5 1117.52L1286.5 1117.52ZM1286.5 1109.53L1286.5 1105.53L1287.5 1105.53L1287.5 1109.53L1286.5 1109.53ZM1286.5 1101.54L1286.5 1097.54L1287.5 1097.54L1287.5 1101.54L1286.5 1101.54ZM1286.51 1093.55L1286.51 1089.55L1287.51 1089.55L1287.51 1093.55L1286.51 1093.55ZM1286.51 1085.56L1286.51 1081.57L1287.51 1081.57L1287.51 1085.56L1286.51 1085.56ZM1286.51 1077.57L1286.51 1073.58L1287.51 1073.58L1287.51 1077.57L1286.51 1077.57ZM1286.51 1069.58L1286.51 1065.59L1287.51 1065.59L1287.51 1069.58L1286.51 1069.58ZM1286.51 1061.59L1286.51 1057.6L1287.51 1057.6L1287.51 1061.59L1286.51 1061.59ZM1286.51 1053.6L1286.51 1049.61L1287.51 1049.61L1287.51 1053.6L1286.51 1053.6ZM1286.51 1045.61L1286.51 1041.62L1287.51 1041.62L1287.51 1045.61L1286.51 1045.61ZM1286.51 1037.62L1286.51 1033.63L1287.51 1033.63L1287.51 1037.62L1286.51 1037.62ZM1286.51 1029.63L1286.51 1025.64L1287.51 1025.64L1287.51 1029.63L1286.51 1029.63ZM1286.51 1021.64L1286.51 1017.65L1287.51 1017.65L1287.51 1021.64L1286.51 1021.64ZM1286.52 1013.65L1286.52 1009.66L1287.52 1009.66L1287.52 1013.65L1286.52 1013.65ZM1286.52 1005.66L1286.52 1001.67L1287.52 1001.67L1287.52 1005.66L1286.52 1005.66ZM1286.52 997.674L1286.52 993.68L1287.52 993.68L1287.52 997.675L1286.52 997.674ZM1286.52 989.685L1286.52 985.69L1287.52 985.69L1287.52 989.685L1286.52 989.685ZM1286.52 981.695L1286.52 977.7L1287.52 977.701L1287.52 981.695L1286.52 981.695ZM1286.52 973.706L1286.52 969.711L1287.52 969.711L1287.52 973.706L1286.52 973.706ZM1286.52 965.716L1286.52 961.721L1287.52 961.721L1287.52 965.716L1286.52 965.716ZM1286.52 957.726L1286.52 953.732L1287.52 953.732L1287.52 957.727L1286.52 957.726ZM1286.52 949.737L1286.52 945.742L1287.52 945.742L1287.52 949.737L1286.52 949.737ZM1286.52 941.747L1286.53 937.753L1287.53 937.753L1287.52 941.747L1286.52 941.747ZM1286.53 933.758L1286.53 929.763L1287.53 929.763L1287.53 933.758L1286.53 933.758ZM1286.53 925.768L1286.53 921.773L1287.53 921.773L1287.53 925.768L1286.53 925.768ZM1286.53 917.779L1286.53 913.784L1287.53 913.784L1287.53 917.779L1286.53 917.779ZM1286.53 909.789L1286.53 905.794L1287.53 905.794L1287.53 909.789L1286.53 909.789ZM1286.53 901.799L1286.53 897.805L1287.53 897.805L1287.53 901.799L1286.53 901.799ZM1286.53 893.81L1286.53 889.815L1287.53 889.815L1287.53 893.81L1286.53 893.81ZM1286.53 885.82L1286.53 881.825L1287.53 881.825L1287.53 885.82L1286.53 885.82ZM1286.53 877.831L1286.53 873.836L1287.53 873.836L1287.53 877.831L1286.53 877.831ZM1286.53 869.841L1286.53 865.846L1287.53 865.846L1287.53 869.841L1286.53 869.841ZM1286.54 861.851L1286.54 857.857L1287.54 857.857L1287.54 861.852L1286.54 861.851ZM1286.54 853.862L1286.54 849.867L1287.54 849.867L1287.54 853.862L1286.54 853.862ZM1286.54 845.872L1286.54 841.878L1287.54 841.878L1287.54 845.872L1286.54 845.872ZM1286.54 837.883L1286.54 833.888L1287.54 833.888L1287.54 837.883L1286.54 837.883ZM1286.54 829.893L1286.54 825.898L1287.54 825.898L1287.54 829.893L1286.54 829.893ZM1286.54 821.904L1286.54 817.909L1287.54 817.909L1287.54 821.904L1286.54 821.904ZM1286.54 813.914L1286.54 809.919L1287.54 809.919L1287.54 813.914L1286.54 813.914ZM1286.54 805.924L1286.54 801.93L1287.54 801.93L1287.54 805.925L1286.54 805.924ZM1286.54 797.935L1286.54 793.94L1287.54 793.94L1287.54 797.935L1286.54 797.935ZM1286.54 789.945L1286.55 785.951L1287.55 785.951L1287.54 789.945L1286.54 789.945ZM1286.55 781.956L1286.55 777.961L1287.55 777.961L1287.55 781.956L1286.55 781.956ZM1286.55 773.966L1286.55 769.971L1287.55 769.972L1287.55 773.966L1286.55 773.966ZM1286.55 765.977L1286.55 761.982L1287.55 761.982L1287.55 765.977L1286.55 765.977ZM1286.55 757.987L1286.55 753.992L1287.55 753.992L1287.55 757.987L1286.55 757.987ZM1286.55 749.998L1286.55 746.003L1287.55 746.003L1287.55 749.998L1286.55 749.998ZM1286.55 742.008L1286.55 738.013L1287.55 738.013L1287.55 742.008L1286.55 742.008ZM1286.55 734.018L1286.55 730.024L1287.55 730.024L1287.55 734.019L1286.55 734.018ZM1286.55 726.029L1286.55 722.034L1287.55 722.034L1287.55 726.029L1286.55 726.029ZM1286.55 718.039L1286.55 714.044L1287.55 714.045L1287.55 718.039L1286.55 718.039ZM1286.55 710.05L1286.56 706.055L1287.56 706.055L1287.55 710.05L1286.55 710.05ZM1286.56 702.06L1286.56 698.065L1287.56 698.065L1287.56 702.06L1286.56 702.06ZM1286.56 694.071L1286.56 690.076L1287.56 690.076L1287.56 694.071L1286.56 694.071ZM1286.56 686.081L1286.56 682.086L1287.56 682.086L1287.56 686.081L1286.56 686.081ZM1286.56 678.091L1286.56 674.097L1287.56 674.097L1287.56 678.092L1286.56 678.091ZM1286.56 670.102L1286.56 666.107L1287.56 666.107L1287.56 670.102L1286.56 670.102ZM1286.56 662.112L1286.56 658.118L1287.56 658.118L1287.56 662.112L1286.56 662.112ZM1286.56 654.123L1286.56 650.128L1287.56 650.128L1287.56 654.123L1286.56 654.123ZM1286.56 646.133L1286.56 642.138L1287.56 642.139L1287.56 646.133L1286.56 646.133ZM1286.56 638.144L1286.56 634.149L1287.56 634.149L1287.56 638.144L1286.56 638.144ZM1286.57 630.154L1286.57 626.159L1287.57 626.159L1287.57 630.154L1286.57 630.154ZM1286.57 622.165L1286.57 618.17L1287.57 618.17L1287.57 622.165L1286.57 622.165ZM1286.57 614.175L1286.57 610.18L1287.57 610.18L1287.57 614.175L1286.57 614.175ZM1286.57 606.185L1286.57 602.19L1287.57 602.191L1287.57 606.185L1286.57 606.185ZM1286.57 598.196L1286.57 594.201L1287.57 594.201L1287.57 598.196L1286.57 598.196ZM1286.57 590.206L1286.57 586.211L1287.57 586.211L1287.57 590.206L1286.57 590.206ZM1286.57 582.216L1286.57 578.222L1287.57 578.222L1287.57 582.217L1286.57 582.216ZM1286.57 574.227L1286.57 570.232L1287.57 570.232L1287.57 574.227L1286.57 574.227ZM1286.57 566.237L1286.57 562.242L1287.57 562.242L1287.57 566.237L1286.57 566.237ZM1286.57 558.248L1286.58 554.253L1287.58 554.253L1287.57 558.248L1286.57 558.248ZM1286.58 550.258L1286.58 546.263L1287.58 546.263L1287.58 550.258L1286.58 550.258ZM1286.58 542.268L1286.58 538.273L1287.58 538.274L1287.58 542.268L1286.58 542.268ZM1286.58 534.279L1286.58 530.284L1287.58 530.284L1287.58 534.279L1286.58 534.279ZM1286.58 526.289L1286.58 522.294L1287.58 522.294L1287.58 526.289L1286.58 526.289ZM1286.58 518.299L1286.58 514.305L1287.58 514.305L1287.58 518.3L1286.58 518.299ZM1286.58 510.31L1286.58 506.315L1287.58 506.315L1287.58 510.31L1286.58 510.31ZM1286.58 502.32L1286.58 498.325L1287.58 498.326L1287.58 502.32L1286.58 502.32ZM1286.58 494.331L1286.58 490.336L1287.58 490.336L1287.58 494.331L1286.58 494.331ZM1286.58 486.341L1286.58 482.346L1287.58 482.346L1287.58 486.341L1286.58 486.341ZM1286.59 478.351L1286.59 474.357L1287.59 474.357L1287.59 478.351L1286.59 478.351ZM1286.59 470.362L1286.59 466.367L1287.59 466.367L1287.59 470.362L1286.59 470.362ZM1286.59 462.372L1286.59 458.377L1287.59 458.377L1287.59 462.372L1286.59 462.372ZM1286.59 454.382L1286.59 450.388L1287.59 450.388L1287.59 454.383L1286.59 454.382ZM1286.59 446.393L1286.59 442.398L1287.59 442.398L1287.59 446.393L1286.59 446.393ZM1286.59 438.403L1286.59 434.408L1287.59 434.409L1287.59 438.403L1286.59 438.403ZM1286.59 430.414L1286.59 426.419L1287.59 426.419L1287.59 430.414L1286.59 430.414ZM1286.59 422.424L1286.59 418.429L1287.59 418.429L1287.59 422.424L1286.59 422.424ZM1286.59 414.434L1286.59 410.44L1287.59 410.44L1287.59 414.434L1286.59 414.434ZM1286.59 406.445L1286.59 402.45L1287.59 402.45L1287.59 406.445L1286.59 406.445ZM1286.6 398.455L1286.6 394.46L1287.6 394.46L1287.6 398.455L1286.6 398.455ZM1286.6 390.465L1286.6 386.471L1287.6 386.471L1287.6 390.466L1286.6 390.465ZM1286.6 382.476L1286.6 378.481L1287.6 378.481L1287.6 382.476L1286.6 382.476ZM1286.6 374.486L1286.6 370.491L1287.6 370.492L1287.6 374.486L1286.6 374.486ZM1286.6 366.497L1286.6 364.499L1287.6 364.499L1287.6 366.497L1286.6 366.497Z">
</path>
</g>
<g opacity="0.5">
<path   fill="url(#linear_border_78B3C3C3-4DCB-49B4-B09F-645B19132B45_0)"  d="M152.5 1495.5L152.5 1493.52L153.5 1493.52L153.5 1495.5L152.5 1495.5ZM152.501 1489.56L152.502 1485.61L153.502 1485.61L153.501 1489.56L152.501 1489.56ZM152.502 1481.65L152.503 1477.69L153.503 1477.69L153.502 1481.65L152.502 1481.65ZM152.503 1473.73L152.504 1469.78L153.504 1469.78L153.503 1473.73L152.503 1473.73ZM152.505 1465.82L152.505 1461.86L153.505 1461.86L153.505 1465.82L152.505 1465.82ZM152.506 1457.91L152.506 1453.95L153.506 1453.95L153.506 1457.91L152.506 1457.91ZM152.507 1449.99L152.508 1446.03L153.508 1446.03L153.507 1449.99L152.507 1449.99ZM152.508 1442.08L152.509 1438.12L153.509 1438.12L153.508 1442.08L152.508 1442.08ZM152.509 1434.16L152.51 1430.2L153.51 1430.2L153.509 1434.16L152.509 1434.16ZM152.511 1426.25L152.511 1422.29L153.511 1422.29L153.511 1426.25L152.511 1426.25ZM152.512 1418.33L152.513 1414.38L153.513 1414.38L153.512 1418.33L152.512 1418.33ZM152.513 1410.42L152.514 1406.46L153.514 1406.46L153.513 1410.42L152.513 1410.42ZM152.514 1402.5L152.515 1398.55L153.515 1398.55L153.514 1402.5L152.514 1402.5ZM152.516 1394.59L152.516 1390.63L153.516 1390.63L153.516 1394.59L152.516 1394.59ZM152.517 1386.67L152.517 1382.72L153.517 1382.72L153.517 1386.67L152.517 1386.67ZM152.518 1378.76L152.519 1374.8L153.519 1374.8L153.518 1378.76L152.518 1378.76ZM152.519 1370.84L152.52 1366.89L153.52 1366.89L153.519 1370.84L152.519 1370.84ZM152.52 1362.93L152.521 1358.97L153.521 1358.97L153.52 1362.93L152.52 1362.93ZM152.522 1355.02L152.522 1351.06L153.522 1351.06L153.522 1355.02L152.522 1355.02ZM152.523 1347.1L152.523 1343.14L153.523 1343.14L153.523 1347.1L152.523 1347.1ZM152.524 1339.19L152.525 1335.23L153.525 1335.23L153.524 1339.19L152.524 1339.19ZM152.525 1331.27L152.526 1327.31L153.526 1327.31L153.525 1331.27L152.525 1331.27ZM152.527 1323.36L152.527 1319.4L153.527 1319.4L153.527 1323.36L152.527 1323.36ZM152.528 1315.44L152.528 1311.48L153.528 1311.48L153.528 1315.44L152.528 1315.44ZM152.529 1307.53L152.53 1303.57L153.53 1303.57L153.529 1307.53L152.529 1307.53ZM152.53 1299.61L152.531 1295.66L153.531 1295.66L153.53 1299.61L152.53 1299.61ZM152.531 1291.7L152.532 1287.74L153.532 1287.74L153.531 1291.7L152.531 1291.7ZM152.533 1283.78L152.533 1279.83L153.533 1279.83L153.533 1283.78L152.533 1283.78ZM152.534 1275.87L152.534 1271.91L153.534 1271.91L153.534 1275.87L152.534 1275.87ZM152.535 1267.95L152.536 1264L153.536 1264L153.535 1267.95L152.535 1267.95ZM152.536 1260.04L152.537 1256.08L153.537 1256.08L153.536 1260.04L152.536 1260.04ZM152.538 1252.12L152.538 1248.17L153.538 1248.17L153.538 1252.12L152.538 1252.12ZM152.539 1244.21L152.539 1240.25L153.539 1240.25L153.539 1244.21L152.539 1244.21ZM152.54 1236.3L152.541 1232.34L153.541 1232.34L153.54 1236.3L152.54 1236.3ZM152.541 1228.38L152.542 1224.42L153.542 1224.42L153.541 1228.38L152.541 1228.38ZM152.542 1220.47L152.543 1216.51L153.543 1216.51L153.542 1220.47L152.542 1220.47ZM152.544 1212.55L152.544 1208.59L153.544 1208.59L153.544 1212.55L152.544 1212.55ZM152.545 1204.64L152.545 1200.68L153.545 1200.68L153.545 1204.64L152.545 1204.64ZM152.546 1196.72L152.547 1192.77L153.547 1192.77L153.546 1196.72L152.546 1196.72ZM152.547 1188.81L152.548 1184.85L153.548 1184.85L153.547 1188.81L152.547 1188.81ZM152.549 1180.89L152.549 1176.94L153.549 1176.94L153.549 1180.89L152.549 1180.89ZM152.55 1172.98L152.55 1169.02L153.55 1169.02L153.55 1172.98L152.55 1172.98ZM152.551 1165.06L152.552 1161.11L153.552 1161.11L153.551 1165.06L152.551 1165.06ZM152.552 1157.15L152.553 1153.19L153.553 1153.19L153.552 1157.15L152.552 1157.15ZM152.553 1149.23L152.554 1145.28L153.554 1145.28L153.553 1149.23L152.553 1149.23ZM152.555 1141.32L152.555 1137.36L153.555 1137.36L153.555 1141.32L152.555 1141.32ZM152.556 1133.41L152.556 1129.45L153.556 1129.45L153.556 1133.41L152.556 1133.41ZM152.557 1125.49L152.558 1121.53L153.558 1121.53L153.557 1125.49L152.557 1125.49ZM152.558 1117.58L152.559 1113.62L153.559 1113.62L153.558 1117.58L152.558 1117.58ZM152.56 1109.66L152.56 1105.7L153.56 1105.7L153.56 1109.66L152.56 1109.66ZM152.561 1101.75L152.561 1097.79L153.561 1097.79L153.561 1101.75L152.561 1101.75ZM152.562 1093.83L152.563 1089.88L153.563 1089.88L153.562 1093.83L152.562 1093.83ZM152.563 1085.92L152.564 1081.96L153.564 1081.96L153.563 1085.92L152.563 1085.92ZM152.564 1078L152.565 1074.05L153.565 1074.05L153.564 1078L152.564 1078ZM152.566 1070.09L152.566 1066.13L153.566 1066.13L153.566 1070.09L152.566 1070.09ZM152.567 1062.17L152.567 1058.22L153.567 1058.22L153.567 1062.17L152.567 1062.17ZM152.568 1054.26L152.569 1050.3L153.569 1050.3L153.568 1054.26L152.568 1054.26ZM152.569 1046.34L152.57 1042.39L153.57 1042.39L153.569 1046.35L152.569 1046.34ZM152.57 1038.43L152.571 1034.47L153.571 1034.47L153.57 1038.43L152.57 1038.43ZM152.572 1030.52L152.572 1026.56L153.572 1026.56L153.572 1030.52L152.572 1030.52ZM152.573 1022.6L152.574 1018.64L153.574 1018.64L153.573 1022.6L152.573 1022.6ZM152.574 1014.69L152.575 1010.73L153.575 1010.73L153.574 1014.69L152.574 1014.69ZM152.575 1006.77L152.576 1002.81L153.576 1002.81L153.575 1006.77L152.575 1006.77ZM152.577 998.857L152.577 994.9L153.577 994.9L153.577 998.857L152.577 998.857ZM152.578 990.943L152.578 986.985L153.578 986.985L153.578 990.943L152.578 990.943ZM152.579 983.028L152.58 979.071L153.58 979.071L153.579 983.028L152.579 983.028ZM152.58 975.113L152.581 971.156L153.581 971.156L153.58 975.113L152.58 975.113ZM152.581 967.199L152.582 963.241L153.582 963.241L153.581 967.199L152.581 967.199ZM152.583 959.284L152.583 955.327L153.583 955.327L153.583 959.284L152.583 959.284ZM152.584 951.369L152.585 947.412L153.585 947.412L153.584 951.369L152.584 951.369ZM152.585 943.455L152.586 939.497L153.586 939.497L153.585 943.455L152.585 943.455ZM152.586 935.54L152.587 931.583L153.587 931.583L153.586 935.54L152.586 935.54ZM152.588 927.625L152.588 923.668L153.588 923.668L153.588 927.625L152.588 927.625ZM152.589 919.711L152.589 915.753L153.589 915.753L153.589 919.711L152.589 919.711ZM152.59 911.796L152.591 907.839L153.591 907.839L153.59 911.796L152.59 911.796ZM152.591 903.881L152.592 899.924L153.592 899.924L153.591 903.881L152.591 903.881ZM152.592 895.967L152.593 892.009L153.593 892.009L153.592 895.967L152.592 895.967ZM152.594 888.052L152.594 884.095L153.594 884.095L153.594 888.052L152.594 888.052ZM152.595 880.137L152.596 876.18L153.596 876.18L153.595 880.137L152.595 880.137ZM152.596 872.223L152.597 868.265L153.597 868.265L153.596 872.223L152.596 872.223ZM152.597 864.308L152.598 860.351L153.598 860.351L153.597 864.308L152.597 864.308ZM152.599 856.393L152.599 852.436L153.599 852.436L153.599 856.393L152.599 856.393ZM152.6 848.479L152.6 846.5L153.6 846.5L153.6 848.479L152.6 848.479Z">
</path>
</g>
<g opacity="0.5">
<path    stroke="rgba(129, 133, 152, 1)" stroke-width="1"    d="M0 0.5L1440 0.5">
</path>
</g>
<defs>
<linearGradient id="linear_border_555EBCFE-24F8-4368-8007-A6700301454A_0" x1="153.078125" y1="138.763671875" x2="152.989013671875" y2="699.370361328125" gradientUnits="userSpaceOnUse">
<stop offset="0" stop-color="#818598"  />
<stop offset="1" stop-color="#818598" stop-opacity="0" />
</linearGradient>
<linearGradient id="linear_border_5B735FF7-4B34-4064-96C2-39A0969686A4_0" x1="1287.10107421875" y1="356.07861328125" x2="1286.9990234375" y2="1138.947998046875" gradientUnits="userSpaceOnUse">
<stop offset="0" stop-color="#818598" stop-opacity="0" />
<stop offset="0.5285714268684387" stop-color="#818598"  />
<stop offset="1" stop-color="#818598" stop-opacity="0" />
</linearGradient>
<linearGradient id="linear_border_78B3C3C3-4DCB-49B4-B09F-645B19132B45_0" x1="153.101318359375" y1="839.374267578125" x2="152.9990234375" y2="1501.80224609375" gradientUnits="userSpaceOnUse">
<stop offset="0" stop-color="#818598" stop-opacity="0" />
<stop offset="0.2642857134342194" stop-color="#818598"  />
<stop offset="1" stop-color="#818598" stop-opacity="0" />
</linearGradient>
</defs>
</svg>
