<svg xmlns="http://www.w3.org/2000/svg" xmlns:xlink="http://www.w3.org/1999/xlink" width="697.498291015625" height="385" viewBox="0 0 697.498291015625 385" fill="none">
<g opacity="0.1">
<path    stroke="url(#linear_border_45973E4B-BE21-419A-950E-E1CB0BAB6230_0)" stroke-width="1"    d="M64.4949 0L64.4949 329">
</path>
<path    stroke="url(#linear_border_D586B768-9CBB-4875-B33E-A66594382285_0)" stroke-width="1"    d="M86.4949 0L86.4949 329">
</path>
<path    stroke="url(#linear_border_AFA4E664-6174-4E4F-B61C-C7690B68C235_0)" stroke-width="1"    d="M128.495 0L128.495 329">
</path>
<path    stroke="url(#linear_border_74DFE04C-2BC6-4159-8105-49B9A8DA08A7_0)" stroke-width="1"    d="M171.495 0L171.495 329">
</path>
<path    stroke="url(#linear_border_8134263A-1245-4B69-A078-50149E1F4677_0)" stroke-width="1"    d="M214.495 0L214.495 329">
</path>
<path    stroke="url(#linear_border_5E0BF665-4041-4E87-BD14-31407BCDA9DB_0)" stroke-width="1"    d="M257.495 0L257.495 329">
</path>
<path    stroke="url(#linear_border_6CE690CC-5961-405A-B202-4C6D39A7F8C2_0)" stroke-width="1"    d="M300.495 0L300.495 329">
</path>
<path    stroke="url(#linear_border_5C8571F7-8ACA-47EB-981B-EA74A33C11BA_0)" stroke-width="1"    d="M342.495 0L342.495 329">
</path>
<path    stroke="url(#linear_border_75A32564-9F1E-468D-A7E0-A43865A93279_0)" stroke-width="1"    d="M385.495 0L385.495 329">
</path>
<path    stroke="url(#linear_border_8A0925C7-39BE-45F6-B24C-EE1A6089E03F_0)" stroke-width="1"    d="M428.495 0L428.495 329">
</path>
<path    stroke="url(#linear_border_DC1B78D6-99BE-4917-A760-12878F33393D_0)" stroke-width="1"    d="M471.495 0L471.495 329">
</path>
<path    stroke="url(#linear_border_FEAE342E-1953-4C6E-83A5-574346E2D0FF_0)" stroke-width="1"    d="M514.495 0L514.495 329">
</path>
<path    stroke="url(#linear_border_7CCB27CF-837D-4E3D-8E1E-F29FEA185560_0)" stroke-width="1"    d="M107.495 0L107.495 329">
</path>
<path    stroke="url(#linear_border_FEB0553E-BA77-4ECE-A8C8-116E1403FEFC_0)" stroke-width="1"    d="M150.495 0L150.495 329">
</path>
<path    stroke="url(#linear_border_9F2A2E3E-2A4F-4E23-B449-4FD1B7E9D497_0)" stroke-width="1"    d="M193.495 0L193.495 329">
</path>
<path    stroke="url(#linear_border_E535EE49-5CFA-4BCC-A238-679A02660921_0)" stroke-width="1"    d="M235.495 0L235.495 329">
</path>
<path    stroke="url(#linear_border_A4B9B561-921A-4A0B-883C-A06393C83D1A_0)" stroke-width="1"    d="M278.495 0L278.495 329">
</path>
<path    stroke="url(#linear_border_41D93C2A-B861-4953-9B34-E0F8BE9303AE_0)" stroke-width="1"    d="M321.495 0L321.495 329">
</path>
<path    stroke="url(#linear_border_E7ED9EFA-0B5D-4375-8907-7B0834B5E27E_0)" stroke-width="1"    d="M364.495 0L364.495 329">
</path>
<path    stroke="url(#linear_border_9F5AF65E-BB3D-4422-A032-26706FEF2E00_0)" stroke-width="1"    d="M407.495 0L407.495 329">
</path>
<path    stroke="url(#linear_border_A5666758-6CB5-4A5A-A52E-B31264809E03_0)" stroke-width="1"    d="M449.495 0L449.495 329">
</path>
<path    stroke="url(#linear_border_01CB7E06-1F6E-4B37-92CB-FCF3AAD2E6DE_0)" stroke-width="1"    d="M492.495 0L492.495 329">
</path>
<path    stroke="url(#linear_border_7F16DB49-88CC-423F-BA81-E1C2337E76E7_0)" stroke-width="1"    d="M535.495 0L535.495 329">
</path>
<path    stroke="url(#linear_border_5ED4CB7F-D5D4-4CD8-8980-8C4B3407F429_0)" stroke-width="1"    d="M602.009 298.878L0.00170898 298.878">
</path>
<path    stroke="url(#linear_border_2FA7B277-D9C7-4F5A-9D7C-02A119AC7A60_0)" stroke-width="1"    d="M602.009 126.878L0.00170898 126.878">
</path>
<path    stroke="url(#linear_border_FDED8FFF-14BE-4D3C-BAB1-4BEB0DF06B4E_0)" stroke-width="1"    d="M602.007 191.476L0 191.476">
</path>
<path    stroke="url(#linear_border_C84EFE86-8FD9-43DB-AFD4-DB1AF0AF626A_0)" stroke-width="1"    d="M602.009 277.398L0.00170898 277.398">
</path>
<path    stroke="url(#linear_border_72171FDA-6D33-4B41-9A31-41E85464EB2E_0)" stroke-width="1"    d="M602.009 105.398L0.00170898 105.398">
</path>
<path    stroke="url(#linear_border_46F1F842-801F-451D-BEB0-70F131A73D4F_0)" stroke-width="1"    d="M602.009 169.998L0.00170898 169.998">
</path>
<path    stroke="url(#linear_border_5C660C0E-230F-4A5D-AB6F-6F2DEC9BDF0D_0)" stroke-width="1"    d="M602.009 234.438L0.00170898 234.438">
</path>
<path    stroke="url(#linear_border_6A78A934-C8A3-437C-9AED-6368B2EBAF0A_0)" stroke-width="1"    d="M602.009 62.438L0.00170898 62.438">
</path>
<path    stroke="url(#linear_border_0D52D69F-1743-48A4-9AC9-1C1777D9F50A_0)" stroke-width="1"    d="M602.009 255.918L0.00170898 255.918">
</path>
<path    stroke="url(#linear_border_20F76CB6-C79C-432F-B702-75343341FE4E_0)" stroke-width="1"    d="M602.009 83.9185L0.00170898 83.9185">
</path>
<path    stroke="url(#linear_border_E4442847-2191-422B-A59F-7AE0A61EBBB8_0)" stroke-width="1"    d="M602.009 148.517L0.00170898 148.517">
</path>
<path    stroke="url(#linear_border_5F5A88C0-DEAF-4A6E-9479-8DDFC6FD2342_0)" stroke-width="1"    d="M602.009 212.958L0.00170898 212.958">
</path>
<path    stroke="url(#linear_border_621703D3-A50F-4301-A4D5-1DED4A85D770_0)" stroke-width="1"    d="M602.009 40.9575L0.00170898 40.9575">
</path>
</g>
<path     fill="url(#linear_fill_FBA291D2-F1E0-4496-9AC0-8E5141B051D7_0)"  d="M358.498 301L358.498 15L54.4983 15L54.4983 301L358.498 301">
</path>
<path   fill-rule="evenodd"  fill="#343434"  d="M53.7483 40L53.7483 301L55.2483 301L55.2483 40L53.7483 40ZM359.248 301L359.248 40L357.748 40L357.748 301L359.248 301Z">
</path>
<path fill-rule="evenodd"  fill="url(#linear_border_CFAEE569-9253-4F90-88EC-B235830D9CD6_0)"  d="M55.2483 299.5L55.2483 40L53.7483 40L53.7483 301L55.2483 301L55.2483 299.5ZM359.248 41.5L359.248 40L357.748 40L357.748 301L359.248 301L359.248 41.5Z">
</path>
<g filter="url(#filter_02FF30E6-5E3B-4B54-A47F-0CCDDCFDB6F3)">
<rect  x="88.498291015625" y="64" width="64" height="64" rx="4"    fill="#23252B" >
</rect>
<path fill-rule="evenodd"  fill="rgba(39, 45, 244, 1)"  d="M148.498 64L92.4983 64C90.2892 64 88.4983 65.7909 88.4983 68L88.4983 124C88.4983 126.209 90.2892 128 92.4983 128L148.498 128C150.707 128 152.498 126.209 152.498 124L152.498 68C152.498 65.7909 150.707 64 148.498 64ZM89.4983 68C89.4983 66.3431 90.8414 65 92.4983 65L148.498 65C150.155 65 151.498 66.3431 151.498 68L151.498 124C151.498 125.657 150.155 127 148.498 127L92.4983 127C90.8414 127 89.4983 125.657 89.4983 124L89.4983 68Z">
</path>
</g>
<path d="M104.46 80.1508C104.462 78.7417 105.604 77.6001 107.013 77.6001L134.11 77.6001C135.519 77.6014 136.66 78.744 136.66 80.1531L138.96 111.849C138.96 113.257 137.82 114.4 136.41 114.4L104.713 114.4C103.303 114.4 102.16 113.257 102.16 111.847L104.46 80.1508ZM130.016 86.3795C131.155 86.3795 132.078 87.3034 132.077 88.4423C132.069 89.1991 131.643 89.8895 130.97 90.2363C130.802 95.7977 126.253 100.278 120.652 100.278C115.063 100.278 110.525 95.8207 110.337 90.2777C109.468 89.8656 109.004 88.9047 109.22 87.968C109.436 87.0314 110.275 86.3713 111.236 86.3815C112.375 86.3815 113.297 87.3038 113.297 88.4423C113.293 89.0227 113.042 89.5741 112.607 89.958C112.628 94.3892 116.223 97.9718 120.655 97.9781C125.072 97.972 128.66 94.4095 128.698 89.9925C128.233 89.6114 127.961 89.0436 127.955 88.4423C127.954 87.3034 128.877 86.3795 130.016 86.3795Z" fill-rule="evenodd"  fill="#272DF4" >
</path>
<rect  x="88.498291015625" y="144" width="18" height="2" rx="1"    fill="#3D3D3D" >
</rect>
<rect  x="125.498291015625" y="134" width="14" height="2" rx="1"    fill="#272DF4" >
</rect>
<rect  x="88.498291015625" y="134" width="31" height="2" rx="1"    fill="#272DF4" >
</rect>
<g filter="url(#filter_A27720CA-DA61-4ECE-AFBD-20CEBAAA4649)">
<rect  x="174.498291015625" y="64" width="64" height="64" rx="4"    fill="#121316" >
</rect>
<path fill-rule="evenodd"  fill="rgba(61, 61, 61, 1)"  d="M234.498 64L178.498 64C176.289 64 174.498 65.7909 174.498 68L174.498 124C174.498 126.209 176.289 128 178.498 128L234.498 128C236.707 128 238.498 126.209 238.498 124L238.498 68C238.498 65.7909 236.707 64 234.498 64ZM175.498 68C175.498 66.3431 176.841 65 178.498 65L234.498 65C236.155 65 237.498 66.3431 237.498 68L237.498 124C237.498 125.657 236.155 127 234.498 127L178.498 127C176.841 127 175.498 125.657 175.498 124L175.498 68Z">
</path>
</g>
<path d="M190.46 80.1508C190.462 78.7417 191.604 77.6001 193.013 77.6001L220.11 77.6001C221.519 77.6014 222.66 78.744 222.66 80.1531L224.96 111.849C224.96 113.257 223.82 114.4 222.41 114.4L190.713 114.4C189.303 114.4 188.16 113.257 188.16 111.847L190.46 80.1508ZM216.016 86.3795C217.155 86.3795 218.078 87.3034 218.077 88.4423C218.069 89.1991 217.643 89.8895 216.97 90.2363C216.802 95.7977 212.253 100.278 206.652 100.278C201.063 100.278 196.525 95.8207 196.337 90.2777C195.468 89.8656 195.004 88.9047 195.22 87.968C195.436 87.0314 196.275 86.3713 197.236 86.3815C198.375 86.3815 199.297 87.3038 199.297 88.4423C199.293 89.0227 199.042 89.5741 198.607 89.958C198.628 94.3892 202.223 97.9718 206.655 97.9781C211.072 97.972 214.66 94.4095 214.698 89.9925C214.233 89.6114 213.961 89.0436 213.955 88.4423C213.954 87.3034 214.877 86.3795 216.016 86.3795Z" fill-rule="evenodd"  fill="#3D3D3D" >
</path>
<rect  x="174.498291015625" y="144" width="18" height="2" rx="1"    fill="#3D3D3D" >
</rect>
<rect  x="211.498291015625" y="134" width="14" height="2" rx="1"    fill="#535353" >
</rect>
<rect  x="174.498291015625" y="134" width="31" height="2" rx="1"    fill="#535353" >
</rect>
<g filter="url(#filter_32370E75-C97C-4708-81BA-8DCE98B49E6F)">
<rect  x="174.498291015625" y="169" width="64" height="64" rx="4"    fill="#121316" >
</rect>
<path fill-rule="evenodd"  fill="rgba(61, 61, 61, 1)"  d="M234.498 169L178.498 169C176.289 169 174.498 170.791 174.498 173L174.498 229C174.498 231.209 176.289 233 178.498 233L234.498 233C236.707 233 238.498 231.209 238.498 229L238.498 173C238.498 170.791 236.707 169 234.498 169ZM175.498 173C175.498 171.343 176.841 170 178.498 170L234.498 170C236.155 170 237.498 171.343 237.498 173L237.498 229C237.498 230.657 236.155 232 234.498 232L178.498 232C176.841 232 175.498 230.657 175.498 229L175.498 173Z">
</path>
</g>
<path d="M190.46 185.151C190.462 183.742 191.604 182.6 193.013 182.6L220.11 182.6C221.519 182.601 222.66 183.744 222.66 185.153L224.96 216.849C224.96 218.257 223.82 219.4 222.41 219.4L190.713 219.4C189.303 219.4 188.16 218.257 188.16 216.847L190.46 185.151ZM216.016 191.379C217.155 191.379 218.078 192.303 218.077 193.442C218.069 194.199 217.643 194.889 216.97 195.236C216.802 200.798 212.253 205.278 206.652 205.278C201.063 205.278 196.525 200.821 196.337 195.278C195.468 194.866 195.004 193.905 195.22 192.968C195.436 192.031 196.275 191.371 197.236 191.382C198.375 191.382 199.297 192.304 199.297 193.442C199.293 194.023 199.042 194.574 198.607 194.958C198.628 199.389 202.223 202.972 206.655 202.978C211.072 202.972 214.66 199.409 214.698 194.992C214.233 194.611 213.961 194.044 213.955 193.442C213.954 192.303 214.877 191.379 216.016 191.379Z" fill-rule="evenodd"  fill="#3D3D3D" >
</path>
<rect  x="174.498291015625" y="249" width="18" height="2" rx="1"    fill="#3D3D3D" >
</rect>
<rect  x="211.498291015625" y="239" width="14" height="2" rx="1"    fill="#535353" >
</rect>
<rect  x="174.498291015625" y="239" width="31" height="2" rx="1"    fill="#535353" >
</rect>
<g filter="url(#filter_EECA1A69-C194-48C3-8EA2-33FAAE9ADFF4)">
<rect  x="88.498291015625" y="169" width="64" height="64" rx="4"    fill="#121316" >
</rect>
<path fill-rule="evenodd"  fill="rgba(61, 61, 61, 1)"  d="M148.498 169L92.4983 169C90.2892 169 88.4983 170.791 88.4983 173L88.4983 229C88.4983 231.209 90.2892 233 92.4983 233L148.498 233C150.707 233 152.498 231.209 152.498 229L152.498 173C152.498 170.791 150.707 169 148.498 169ZM89.4983 173C89.4983 171.343 90.8414 170 92.4983 170L148.498 170C150.155 170 151.498 171.343 151.498 173L151.498 229C151.498 230.657 150.155 232 148.498 232L92.4983 232C90.8414 232 89.4983 230.657 89.4983 229L89.4983 173Z">
</path>
</g>
<path d="M104.46 185.151C104.462 183.742 105.604 182.6 107.013 182.6L134.11 182.6C135.519 182.601 136.66 183.744 136.66 185.153L138.96 216.849C138.96 218.257 137.82 219.4 136.41 219.4L104.713 219.4C103.303 219.4 102.16 218.257 102.16 216.847L104.46 185.151ZM130.016 191.379C131.155 191.379 132.078 192.303 132.077 193.442C132.069 194.199 131.643 194.889 130.97 195.236C130.802 200.798 126.253 205.278 120.652 205.278C115.063 205.278 110.525 200.821 110.337 195.278C109.468 194.866 109.004 193.905 109.22 192.968C109.436 192.031 110.275 191.371 111.236 191.382C112.375 191.382 113.297 192.304 113.297 193.442C113.293 194.023 113.042 194.574 112.607 194.958C112.628 199.389 116.223 202.972 120.655 202.978C125.072 202.972 128.66 199.409 128.698 194.992C128.233 194.611 127.961 194.044 127.955 193.442C127.954 192.303 128.877 191.379 130.016 191.379Z" fill-rule="evenodd"  fill="#3D3D3D" >
</path>
<rect  x="88.498291015625" y="249" width="18" height="2" rx="1"    fill="#3D3D3D" >
</rect>
<rect  x="125.498291015625" y="239" width="14" height="2" rx="1"    fill="#535353" >
</rect>
<rect  x="88.498291015625" y="239" width="31" height="2" rx="1"    fill="#535353" >
</rect>
<g filter="url(#filter_85117F0B-E28F-4138-AD98-9E7F3C901FB7)">
<rect  x="260.498291015625" y="64" width="64" height="64" rx="4"    fill="#121316" >
</rect>
<path fill-rule="evenodd"  fill="rgba(61, 61, 61, 1)"  d="M320.498 64L264.498 64C262.289 64 260.498 65.7909 260.498 68L260.498 124C260.498 126.209 262.289 128 264.498 128L320.498 128C322.707 128 324.498 126.209 324.498 124L324.498 68C324.498 65.7909 322.707 64 320.498 64ZM261.498 68C261.498 66.3431 262.841 65 264.498 65L320.498 65C322.155 65 323.498 66.3431 323.498 68L323.498 124C323.498 125.657 322.155 127 320.498 127L264.498 127C262.841 127 261.498 125.657 261.498 124L261.498 68Z">
</path>
</g>
<path d="M276.46 80.1508C276.462 78.7417 277.604 77.6001 279.013 77.6001L306.11 77.6001C307.519 77.6014 308.66 78.744 308.66 80.1531L310.96 111.849C310.96 113.257 309.82 114.4 308.41 114.4L276.713 114.4C275.303 114.4 274.16 113.257 274.16 111.847L276.46 80.1508ZM302.016 86.3795C303.155 86.3795 304.078 87.3034 304.077 88.4423C304.069 89.1991 303.643 89.8895 302.97 90.2363C302.802 95.7977 298.253 100.278 292.652 100.278C287.063 100.278 282.526 95.8207 282.337 90.2777C281.468 89.8656 281.004 88.9047 281.22 87.968C281.436 87.0314 282.275 86.3713 283.236 86.3815C284.375 86.3815 285.297 87.3038 285.297 88.4423C285.293 89.0227 285.042 89.5741 284.607 89.958C284.629 94.3892 288.223 97.9718 292.655 97.9781C297.072 97.972 300.66 94.4095 300.698 89.9925C300.233 89.6114 299.961 89.0436 299.955 88.4423C299.954 87.3034 300.877 86.3795 302.016 86.3795Z" fill-rule="evenodd"  fill="#3D3D3D" >
</path>
<rect  x="260.498291015625" y="144" width="18" height="2" rx="1"    fill="#3D3D3D" >
</rect>
<rect  x="297.498291015625" y="134" width="14" height="2" rx="1"    fill="#535353" >
</rect>
<rect  x="260.498291015625" y="134" width="31" height="2" rx="1"    fill="#535353" >
</rect>
<g filter="url(#filter_AA68E0B1-204D-4C0F-A2FB-6C134C7CAFEE)">
<rect  x="260.498291015625" y="169" width="64" height="64" rx="4"    fill="#121316" >
</rect>
<path fill-rule="evenodd"  fill="rgba(61, 61, 61, 1)"  d="M320.498 169L264.498 169C262.289 169 260.498 170.791 260.498 173L260.498 229C260.498 231.209 262.289 233 264.498 233L320.498 233C322.707 233 324.498 231.209 324.498 229L324.498 173C324.498 170.791 322.707 169 320.498 169ZM261.498 173C261.498 171.343 262.841 170 264.498 170L320.498 170C322.155 170 323.498 171.343 323.498 173L323.498 229C323.498 230.657 322.155 232 320.498 232L264.498 232C262.841 232 261.498 230.657 261.498 229L261.498 173Z">
</path>
</g>
<path d="M276.46 185.151C276.462 183.742 277.604 182.6 279.013 182.6L306.11 182.6C307.519 182.601 308.66 183.744 308.66 185.153L310.96 216.849C310.96 218.257 309.82 219.4 308.41 219.4L276.713 219.4C275.303 219.4 274.16 218.257 274.16 216.847L276.46 185.151ZM302.016 191.379C303.155 191.379 304.078 192.303 304.077 193.442C304.069 194.199 303.643 194.889 302.97 195.236C302.802 200.798 298.253 205.278 292.652 205.278C287.063 205.278 282.526 200.821 282.337 195.278C281.468 194.866 281.004 193.905 281.22 192.968C281.436 192.031 282.275 191.371 283.236 191.382C284.375 191.382 285.297 192.304 285.297 193.442C285.293 194.023 285.042 194.574 284.607 194.958C284.629 199.389 288.223 202.972 292.655 202.978C297.072 202.972 300.66 199.409 300.698 194.992C300.233 194.611 299.961 194.044 299.955 193.442C299.954 192.303 300.877 191.379 302.016 191.379Z" fill-rule="evenodd"  fill="#3D3D3D" >
</path>
<rect  x="260.498291015625" y="249" width="18" height="2" rx="1"    fill="#3D3D3D" >
</rect>
<rect  x="297.498291015625" y="239" width="14" height="2" rx="1"    fill="#535353" >
</rect>
<rect  x="260.498291015625" y="239" width="31" height="2" rx="1"    fill="#535353" >
</rect>
<path     fill="url(#linear_fill_17E41C0F-D52B-4206-ADB6-A4DF9AF32BF0_0)"  d="M343.498 286L343.498 179L69.4983 179L69.4983 286L343.498 286">
</path>
<g filter="url(#filter_1C44EB47-E959-48A9-89ED-432FB228DA2B)">
<path     fill="url(#linear_fill_1C44EB47-E959-48A9-89ED-432FB228DA2B_0)"  d="M553.498 361L553.498 156L249.498 156L249.498 361L553.498 361">
</path>
</g>
<path     fill="#141414"  d="M553.498 174.427L553.498 156L249.498 156L249.498 174.427L553.498 174.427">
</path>
<path   fill="url(#linear_border_A28279D7-D313-40EB-802A-BA5CAE615265_0)"  d="M248.748 361L248.748 155.25L554.248 155.25L554.248 361L552.748 361L552.748 156L553.498 156L553.498 156.75L249.498 156.75L249.498 156L250.248 156L250.248 361L248.748 361ZM249.498 155.25L249.498 156L248.748 156L248.748 155.25L249.498 155.25ZM554.248 156L553.498 156L553.498 155.25L554.248 155.25L554.248 156Z">
</path>
<path    stroke="rgba(44, 44, 44, 1)" stroke-width="1.5"    d="M249.498 174.427L553.498 174.427">
</path>
<ellipse cx="262.16499495506287" cy="165.02414846420288" rx="3.454545736312866" ry="3.455056667327881"   fill="#535353" >
</ellipse>
<ellipse cx="271.37715315818787" cy="165.02414846420288" rx="3.454545736312866" ry="3.455056667327881"   fill="#535353" >
</ellipse>
<ellipse cx="280.58931136131287" cy="165.02414846420288" rx="3.454545736312866" ry="3.455056667327881"   fill="#535353" >
</ellipse>
<rect  x="329.498291015625" y="217.25830078125" width="90" height="2" rx="1"    fill="#343434" >
</rect>
<rect  x="329.498291015625" y="207" width="29.93939590454102" height="2.303370714187622" rx="1"    fill="#272DF4" >
</rect>
<rect  x="430.468017578125" y="217" width="34.54545593261719" height="2.303370714187622" rx="1"    fill="#343434" >
</rect>
<rect  x="329.498291015625" y="237" width="45" height="14" rx="4"    fill="#272DF4" >
</rect>
<rect  x="339.498291015625" y="243" width="25" height="2" rx="1"    fill="#BCBCBC" >
</rect>
<g filter="url(#filter_25A60E82-C970-4239-B78D-D672EAAC3D2D)">
<rect  x="277.498291015625" y="201" width="43" height="50" rx="4"    fill="#23252B" >
</rect>
<path fill-rule="evenodd"  fill="rgba(39, 45, 244, 1)"  d="M316.498 201L281.498 201C279.289 201 277.498 202.791 277.498 205L277.498 247C277.498 249.209 279.289 251 281.498 251L316.498 251C318.707 251 320.498 249.209 320.498 247L320.498 205C320.498 202.791 318.707 201 316.498 201ZM278.498 205C278.498 203.343 279.841 202 281.498 202L316.498 202C318.155 202 319.498 203.343 319.498 205L319.498 247C319.498 248.657 318.155 250 316.498 250L281.498 250C279.841 250 278.498 248.657 278.498 247L278.498 205Z">
</path>
</g>
<rect  x="283.545166015625" y="211" width="30.90625" height="30.90625" rx="4"    fill="#23252B" >
</rect>
<path d="M288.223 215.804C288.224 214.858 288.991 214.091 289.938 214.091L308.143 214.091C309.09 214.091 309.857 214.859 309.857 215.806L311.402 237.102C311.402 238.048 310.636 238.816 309.689 238.816L288.393 238.816C287.445 238.816 286.677 238.048 286.677 237.1L288.223 215.804ZM305.393 219.989C306.158 219.989 306.778 220.61 306.777 221.375C306.772 221.884 306.486 222.347 306.034 222.581C305.921 226.317 302.865 229.327 299.102 229.327C295.347 229.327 292.298 226.333 292.171 222.608C291.588 222.331 291.275 221.686 291.421 221.057C291.566 220.427 292.129 219.984 292.775 219.991C293.54 219.991 294.16 220.61 294.16 221.375C294.157 221.765 293.989 222.136 293.696 222.394C293.711 225.371 296.126 227.778 299.103 227.782C302.071 227.778 304.482 225.384 304.507 222.417C304.195 222.161 304.012 221.779 304.008 221.375C304.007 220.61 304.628 219.989 305.393 219.989Z" fill-rule="evenodd"  fill="#272DF4" >
</path>
<rect  x="329.498291015625" y="283.25830078125" width="90" height="2" rx="1"    fill="#343434" >
</rect>
<rect  x="329.498291015625" y="273" width="29.93939590454102" height="2.303370714187622" rx="1"    fill="#343434" >
</rect>
<rect  x="430.468017578125" y="283" width="34.54545593261719" height="2.303370714187622" rx="1"    fill="#343434" >
</rect>
<rect  x="329.498291015625" y="303" width="45" height="14" rx="4"    fill="#2C2C2C" >
</rect>
<rect  x="339.498291015625" y="309" width="25" height="2" rx="1"    fill="#535353" >
</rect>
<g filter="url(#filter_8B3CA550-8238-4221-A9F9-6BC412260678)">
<rect  x="277.498291015625" y="267" width="43" height="50" rx="4"    fill="#121316" >
</rect>
<path fill-rule="evenodd"  fill="rgba(61, 61, 61, 1)"  d="M316.498 267L281.498 267C279.289 267 277.498 268.791 277.498 271L277.498 313C277.498 315.209 279.289 317 281.498 317L316.498 317C318.707 317 320.498 315.209 320.498 313L320.498 271C320.498 268.791 318.707 267 316.498 267ZM278.498 271C278.498 269.343 279.841 268 281.498 268L316.498 268C318.155 268 319.498 269.343 319.498 271L319.498 313C319.498 314.657 318.155 316 316.498 316L281.498 316C279.841 316 278.498 314.657 278.498 313L278.498 271Z">
</path>
</g>
<path d="M288.223 281.804C288.224 280.858 288.991 280.091 289.938 280.091L308.143 280.091C309.09 280.091 309.857 280.859 309.857 281.806L311.402 303.102C311.402 304.048 310.636 304.816 309.689 304.816L288.393 304.816C287.445 304.816 286.677 304.048 286.677 303.1L288.223 281.804ZM305.393 285.989C306.158 285.989 306.778 286.61 306.777 287.375C306.772 287.884 306.486 288.348 306.034 288.581C305.921 292.317 302.865 295.327 299.102 295.327C295.347 295.327 292.298 292.333 292.171 288.608C291.588 288.331 291.275 287.686 291.421 287.057C291.566 286.427 292.129 285.984 292.775 285.991C293.54 285.991 294.16 286.61 294.16 287.375C294.157 287.765 293.989 288.136 293.696 288.394C293.711 291.371 296.126 293.778 299.103 293.782C302.071 293.778 304.482 291.384 304.507 288.417C304.195 288.161 304.012 287.779 304.008 287.375C304.007 286.61 304.628 285.989 305.393 285.989Z" fill-rule="evenodd"  fill="#3D3D3D" >
</path>
<path     fill="url(#linear_fill_0C814521-FE7B-46E8-81E4-7A5638149F09_0)"  d="M538.498 385L538.498 278L264.498 278L264.498 385L538.498 385">
</path>
<g filter="url(#filter_A3615807-0250-491C-B91F-D1B2F4E8EA5E)">
<rect  x="34.498291015625" y="24" width="70" height="26" rx="4"    fill="url(#linear_fill_A3615807-0250-491C-B91F-D1B2F4E8EA5E_0)" >
</rect>
<path fill-rule="evenodd"  fill="rgba(90, 90, 90, 1)"  d="M100.498 24L38.4983 24C36.2892 24 34.4983 25.7909 34.4983 28L34.4983 46C34.4983 48.2091 36.2892 50 38.4983 50L100.498 50C102.707 50 104.498 48.2091 104.498 46L104.498 28C104.498 25.7909 102.707 24 100.498 24ZM35.2983 28C35.2983 26.2327 36.731 24.8 38.4983 24.8L100.498 24.8C102.266 24.8 103.698 26.2327 103.698 28L103.698 46C103.698 47.7673 102.266 49.2 100.498 49.2L38.4983 49.2C36.731 49.2 35.2983 47.7673 35.2983 46L35.2983 28Z">
</path>
</g>
<g >
<path     fill="#818598"  d="M58.8811 39.418L62.7542 39.418L62.7542 40.6016L57.3987 40.6016L57.3987 32.0703L58.8811 32.0703L58.8811 39.418ZM65.2678 40.6016L63.844 40.6016L63.844 34.2617L65.2678 34.2617L65.2678 40.6016ZM63.7561 32.6152Q63.7561 32.2871 63.9641 32.0703Q64.1721 31.8535 64.5588 31.8535Q64.9456 31.8535 65.1565 32.0703Q65.3674 32.2871 65.3674 32.6152Q65.3674 32.9375 65.1565 33.1514Q64.9456 33.3652 64.5588 33.3652Q64.1721 33.3652 63.9641 33.1514Q63.7561 32.9375 63.7561 32.6152ZM70.3713 38.8789Q70.3713 38.498 70.0579 38.2988Q69.7444 38.0996 69.0178 37.9473Q68.2913 37.7949 67.8049 37.5605Q66.7385 37.0449 66.7385 36.0664Q66.7385 35.2461 67.4299 34.6953Q68.1213 34.1445 69.1877 34.1445Q70.3245 34.1445 71.0247 34.707Q71.7249 35.2695 71.7249 36.166L70.301 36.166Q70.301 35.7559 69.9963 35.4834Q69.6917 35.2109 69.1877 35.2109Q68.719 35.2109 68.4231 35.4277Q68.1272 35.6445 68.1272 36.0078Q68.1272 36.3359 68.4026 36.5176Q68.678 36.6992 69.5159 36.8838Q70.3538 37.0684 70.8313 37.3232Q71.3088 37.5781 71.5403 37.9355Q71.7717 38.293 71.7717 38.8027Q71.7717 39.6582 71.0627 40.1885Q70.3538 40.7188 69.2053 40.7188Q68.426 40.7188 67.8167 40.4375Q67.2073 40.1562 66.8674 39.6641Q66.5276 39.1719 66.5276 38.6035L67.9104 38.6035Q67.9397 39.1074 68.2913 39.3799Q68.6428 39.6523 69.2229 39.6523Q69.7854 39.6523 70.0784 39.4385Q70.3713 39.2246 70.3713 38.8789ZM74.7952 32.7207L74.7952 34.2617L75.9143 34.2617L75.9143 35.3164L74.7952 35.3164L74.7952 38.8555Q74.7952 39.2188 74.9387 39.3799Q75.0823 39.541 75.4514 39.541Q75.6975 39.541 75.9495 39.4824L75.9495 40.584Q75.4631 40.7188 75.012 40.7188Q73.3713 40.7188 73.3713 38.9082L73.3713 35.3164L72.3284 35.3164L72.3284 34.2617L73.3713 34.2617L73.3713 32.7207L74.7952 32.7207ZM80.5549 38.8789Q80.5549 38.498 80.2415 38.2988Q79.928 38.0996 79.2014 37.9473Q78.4749 37.7949 77.9885 37.5605Q76.9221 37.0449 76.9221 36.0664Q76.9221 35.2461 77.6135 34.6953Q78.3049 34.1445 79.3713 34.1445Q80.5081 34.1445 81.2083 34.707Q81.9084 35.2695 81.9084 36.166L80.4846 36.166Q80.4846 35.7559 80.1799 35.4834Q79.8752 35.2109 79.3713 35.2109Q78.9026 35.2109 78.6067 35.4277Q78.3108 35.6445 78.3108 36.0078Q78.3108 36.3359 78.5862 36.5176Q78.8616 36.6992 79.6995 36.8838Q80.5374 37.0684 81.0149 37.3232Q81.4924 37.5781 81.7239 37.9355Q81.9553 38.293 81.9553 38.8027Q81.9553 39.6582 81.2463 40.1885Q80.5374 40.7188 79.3889 40.7188Q78.6096 40.7188 78.0002 40.4375Q77.3909 40.1562 77.051 39.6641Q76.7112 39.1719 76.7112 38.6035L78.094 38.6035Q78.1233 39.1074 78.4749 39.3799Q78.8264 39.6523 79.4065 39.6523Q79.969 39.6523 80.262 39.4385Q80.5549 39.2246 80.5549 38.8789Z">
</path>
</g>
<g filter="url(#filter_5AFF63EF-0217-4D26-9A53-E99575EAAD28)">
<rect  x="197.498291015625" y="259" width="70" height="26" rx="4"    fill="url(#linear_fill_5AFF63EF-0217-4D26-9A53-E99575EAAD28_0)" >
</rect>
<path fill-rule="evenodd"  fill="rgba(90, 90, 90, 1)"  d="M263.498 259L201.498 259C199.289 259 197.498 260.791 197.498 263L197.498 281C197.498 283.209 199.289 285 201.498 285L263.498 285C265.707 285 267.498 283.209 267.498 281L267.498 263C267.498 260.791 265.707 259 263.498 259ZM198.298 263C198.298 261.233 199.731 259.8 201.498 259.8L263.498 259.8C265.266 259.8 266.698 261.233 266.698 263L266.698 281C266.698 282.767 265.266 284.2 263.498 284.2L201.498 284.2C199.731 284.2 198.298 282.767 198.298 281L198.298 263Z">
</path>
</g>
<g >
<path     fill="#818598"  d="M225.511 272.824Q225.382 274.189 224.503 274.954Q223.624 275.719 222.165 275.719Q221.146 275.719 220.369 275.235Q219.593 274.752 219.171 273.861Q218.749 272.971 218.732 271.793L218.732 270.996Q218.732 269.789 219.159 268.869Q219.587 267.949 220.387 267.451Q221.187 266.953 222.236 266.953Q223.648 266.953 224.509 267.721Q225.37 268.488 225.511 269.889L224.034 269.889Q223.929 268.969 223.498 268.562Q223.068 268.154 222.236 268.154Q221.269 268.154 220.75 268.86Q220.232 269.566 220.22 270.932L220.22 271.688Q220.22 273.07 220.715 273.797Q221.21 274.523 222.165 274.523Q223.038 274.523 223.478 274.131Q223.917 273.738 224.034 272.824L225.511 272.824ZM230.486 275.602Q230.392 275.42 230.322 275.01Q229.642 275.719 228.657 275.719Q227.702 275.719 227.099 275.174Q226.495 274.629 226.495 273.826Q226.495 272.812 227.248 272.271Q228.001 271.729 229.402 271.729L230.275 271.729L230.275 271.312Q230.275 270.82 229.999 270.524Q229.724 270.229 229.161 270.229Q228.675 270.229 228.365 270.472Q228.054 270.715 228.054 271.09L226.63 271.09Q226.63 270.568 226.976 270.114Q227.322 269.66 227.916 269.402Q228.511 269.145 229.243 269.145Q230.357 269.145 231.019 269.704Q231.681 270.264 231.698 271.277L231.698 274.137Q231.698 274.992 231.939 275.502L231.939 275.602L230.486 275.602ZM228.921 274.576Q229.343 274.576 229.715 274.371Q230.087 274.166 230.275 273.82L230.275 272.625L229.507 272.625Q228.716 272.625 228.318 272.9Q227.919 273.176 227.919 273.68Q227.919 274.09 228.192 274.333Q228.464 274.576 228.921 274.576ZM236.509 270.562Q236.228 270.516 235.929 270.516Q234.95 270.516 234.611 271.266L234.611 275.602L233.187 275.602L233.187 269.262L234.546 269.262L234.581 269.971Q235.097 269.145 236.011 269.145Q236.316 269.145 236.515 269.227L236.509 270.562ZM239.193 267.721L239.193 269.262L240.312 269.262L240.312 270.316L239.193 270.316L239.193 273.855Q239.193 274.219 239.336 274.38Q239.48 274.541 239.849 274.541Q240.095 274.541 240.347 274.482L240.347 275.584Q239.861 275.719 239.409 275.719Q237.769 275.719 237.769 273.908L237.769 270.316L236.726 270.316L236.726 269.262L237.769 269.262L237.769 267.721L239.193 267.721ZM244.952 273.879Q244.952 273.498 244.639 273.299Q244.325 273.1 243.599 272.947Q242.872 272.795 242.386 272.561Q241.32 272.045 241.32 271.066Q241.32 270.246 242.011 269.695Q242.702 269.145 243.769 269.145Q244.906 269.145 245.606 269.707Q246.306 270.27 246.306 271.166L244.882 271.166Q244.882 270.756 244.577 270.483Q244.273 270.211 243.769 270.211Q243.3 270.211 243.004 270.428Q242.708 270.645 242.708 271.008Q242.708 271.336 242.984 271.518Q243.259 271.699 244.097 271.884Q244.935 272.068 245.412 272.323Q245.89 272.578 246.121 272.936Q246.353 273.293 246.353 273.803Q246.353 274.658 245.644 275.188Q244.935 275.719 243.786 275.719Q243.007 275.719 242.398 275.438Q241.788 275.156 241.448 274.664Q241.109 274.172 241.109 273.604L242.491 273.604Q242.521 274.107 242.872 274.38Q243.224 274.652 243.804 274.652Q244.366 274.652 244.659 274.438Q244.952 274.225 244.952 273.879Z">
</path>
</g>
<g filter="url(#filter_E1A9840E-71C2-4901-BED4-13CA3DD47AFB)">
<rect  x="376.498291015625" y="2" width="88" height="26" rx="4"    fill="url(#linear_fill_E1A9840E-71C2-4901-BED4-13CA3DD47AFB_0)" >
</rect>
<path fill-rule="evenodd"  fill="rgba(90, 90, 90, 1)"  d="M460.498 2L380.498 2C378.289 2 376.498 3.79086 376.498 6L376.498 24C376.498 26.2091 378.289 28 380.498 28L460.498 28C462.707 28 464.498 26.2091 464.498 24L464.498 6C464.498 3.79086 462.707 2 460.498 2ZM377.298 6C377.298 4.23269 378.731 2.8 380.498 2.8L460.498 2.8C462.266 2.8 463.698 4.23269 463.698 6L463.698 24C463.698 25.7673 462.266 27.2 460.498 27.2L380.498 27.2C378.731 27.2 377.298 25.7673 377.298 24L377.298 6Z">
</path>
</g>
<g >
<path     fill="#818598"  d="M398.908 15.4316L398.908 18.6016L397.426 18.6016L397.426 10.0703L400.69 10.0703Q402.119 10.0703 402.96 10.8145Q403.801 11.5586 403.801 12.7832Q403.801 14.0371 402.978 14.7344Q402.155 15.4316 400.672 15.4316L398.908 15.4316ZM398.908 14.2422L400.69 14.2422Q401.481 14.2422 401.897 13.8701Q402.313 13.498 402.313 12.7949Q402.313 12.1035 401.891 11.6904Q401.469 11.2773 400.731 11.2656L398.908 11.2656L398.908 14.2422ZM408.278 13.5625Q407.996 13.5156 407.698 13.5156Q406.719 13.5156 406.379 14.2656L406.379 18.6016L404.955 18.6016L404.955 12.2617L406.315 12.2617L406.35 12.9707Q406.865 12.1445 407.78 12.1445Q408.084 12.1445 408.283 12.2266L408.278 13.5625ZM411.969 18.7188Q410.615 18.7188 409.775 17.8662Q408.934 17.0137 408.934 15.5957L408.934 15.4199Q408.934 14.4707 409.3 13.7236Q409.666 12.9766 410.328 12.5605Q410.99 12.1445 411.805 12.1445Q413.1 12.1445 413.806 12.9707Q414.512 13.7969 414.512 15.3086L414.512 15.8828L410.369 15.8828Q410.434 16.668 410.894 17.125Q411.354 17.582 412.051 17.582Q413.03 17.582 413.645 16.791L414.412 17.5234Q414.031 18.0918 413.396 18.4053Q412.76 18.7188 411.969 18.7188ZM411.799 13.2871Q411.213 13.2871 410.853 13.6973Q410.492 14.1074 410.393 14.8398L413.106 14.8398L413.106 14.7344Q413.059 14.0195 412.725 13.6533Q412.391 13.2871 411.799 13.2871ZM417.852 16.7969L419.194 12.2617L420.664 12.2617L418.467 18.6016L417.231 18.6016L415.016 12.2617L416.492 12.2617L417.852 16.7969ZM423.067 18.6016L421.643 18.6016L421.643 12.2617L423.067 12.2617L423.067 18.6016ZM421.555 10.6152Q421.555 10.2871 421.763 10.0703Q421.971 9.85352 422.358 9.85352Q422.744 9.85352 422.955 10.0703Q423.166 10.2871 423.166 10.6152Q423.166 10.9375 422.955 11.1514Q422.744 11.3652 422.358 11.3652Q421.971 11.3652 421.763 11.1514Q421.555 10.9375 421.555 10.6152ZM427.408 18.7188Q426.055 18.7188 425.214 17.8662Q424.373 17.0137 424.373 15.5957L424.373 15.4199Q424.373 14.4707 424.74 13.7236Q425.106 12.9766 425.768 12.5605Q426.43 12.1445 427.244 12.1445Q428.539 12.1445 429.245 12.9707Q429.951 13.7969 429.951 15.3086L429.951 15.8828L425.809 15.8828Q425.873 16.668 426.333 17.125Q426.793 17.582 427.49 17.582Q428.469 17.582 429.084 16.791L429.852 17.5234Q429.471 18.0918 428.835 18.4053Q428.199 18.7188 427.408 18.7188ZM427.239 13.2871Q426.653 13.2871 426.292 13.6973Q425.932 14.1074 425.832 14.8398L428.545 14.8398L428.545 14.7344Q428.498 14.0195 428.164 13.6533Q427.83 13.2871 427.239 13.2871ZM436.625 16.6387L437.633 12.2617L439.022 12.2617L437.293 18.6016L436.121 18.6016L434.762 14.248L433.426 18.6016L432.254 18.6016L430.52 12.2617L431.908 12.2617L432.934 16.5918L434.235 12.2617L435.307 12.2617L436.625 16.6387ZM443.528 16.8789Q443.528 16.498 443.214 16.2988Q442.901 16.0996 442.174 15.9473Q441.448 15.7949 440.961 15.5605Q439.895 15.0449 439.895 14.0664Q439.895 13.2461 440.586 12.6953Q441.278 12.1445 442.344 12.1445Q443.481 12.1445 444.181 12.707Q444.881 13.2695 444.881 14.166L443.457 14.166Q443.457 13.7559 443.153 13.4834Q442.848 13.2109 442.344 13.2109Q441.875 13.2109 441.579 13.4277Q441.283 13.6445 441.283 14.0078Q441.283 14.3359 441.559 14.5176Q441.834 14.6992 442.672 14.8838Q443.51 15.0684 443.988 15.3232Q444.465 15.5781 444.697 15.9355Q444.928 16.293 444.928 16.8027Q444.928 17.6582 444.219 18.1885Q443.51 18.7188 442.362 18.7188Q441.582 18.7188 440.973 18.4375Q440.364 18.1562 440.024 17.6641Q439.684 17.1719 439.684 16.6035L441.067 16.6035Q441.096 17.1074 441.448 17.3799Q441.799 17.6523 442.379 17.6523Q442.942 17.6523 443.235 17.4385Q443.528 17.2246 443.528 16.8789Z">
</path>
</g>
<g filter="url(#filter_5D73330A-343A-49F9-B1C6-73753229BE16)">
<rect  x="412.498291015625" y="51" width="113" height="114" rx="4"    fill="#23252B" >
</rect>
<path fill-rule="evenodd"  fill="rgba(39, 45, 244, 1)"  d="M521.498 51L416.498 51C414.289 51 412.498 52.7909 412.498 55L412.498 161C412.498 163.209 414.289 165 416.498 165L521.498 165C523.707 165 525.498 163.209 525.498 161L525.498 55C525.498 52.7909 523.707 51 521.498 51ZM413.498 55C413.498 53.3431 414.841 52 416.498 52L521.498 52C523.155 52 524.498 53.3431 524.498 55L524.498 161C524.498 162.657 523.155 164 521.498 164L416.498 164C414.841 164 413.498 162.657 413.498 161L413.498 55Z">
</path>
</g>
<path d="M440.773 79.7776C440.775 77.2684 442.786 75.2356 445.266 75.2356L492.953 75.2356C495.433 75.2379 497.442 77.2725 497.442 79.7817L501.49 136.223C501.49 138.729 499.482 140.764 497.001 140.764L441.218 140.764C438.737 140.764 436.725 138.729 436.725 136.218L440.773 79.7776ZM485.748 90.8688C487.752 90.8688 489.377 92.514 489.375 94.542C489.361 95.8896 488.611 97.119 487.428 97.7366C487.132 107.64 479.126 115.618 469.269 115.618C459.433 115.618 451.447 107.681 451.115 97.8103C449.587 97.0764 448.769 95.3654 449.149 93.6975C449.53 92.0296 451.006 90.8543 452.698 90.8724C454.701 90.8724 456.325 92.5147 456.325 94.542C456.318 95.5756 455.876 96.5574 455.11 97.241C455.148 105.132 461.475 111.511 469.273 111.522C477.047 111.511 483.362 105.168 483.428 97.3024C482.61 96.6239 482.131 95.6128 482.121 94.542C482.119 92.514 483.743 90.8688 485.748 90.8688Z" fill-rule="evenodd"  fill="#272DF4" >
</path>
<rect  x="425.1474609375" y="151.48876953125" width="42.48041152954102" height="2.759891510009766" rx="1"    fill="#272DF4" >
</rect>
<g filter="url(#filter_D487112D-77C3-4455-8E22-578DDEB1575B)">
<rect  x="538.498291015625" y="52" width="155" height="52" rx="4"    fill="#121316" >
</rect>
<path fill-rule="evenodd"  fill="rgba(61, 61, 61, 1)"  d="M689.498 52L542.498 52C540.289 52 538.498 53.7909 538.498 56L538.498 100C538.498 102.209 540.289 104 542.498 104L689.498 104C691.707 104 693.498 102.209 693.498 100L693.498 56C693.498 53.7909 691.707 52 689.498 52ZM539.498 56C539.498 54.3431 540.841 53 542.498 53L689.498 53C691.155 53 692.498 54.3431 692.498 56L692.498 100C692.498 101.657 691.155 103 689.498 103L542.498 103C540.841 103 539.498 101.657 539.498 100L539.498 56Z">
</path>
</g>
<rect  x="550.498291015625" y="92" width="42.48041152954102" height="2.759891510009766" rx="1"    fill="#3D3D3D" >
</rect>
<g filter="url(#filter_0E7BAED4-6F69-49B2-B8D2-5972ACE39A76)">
<rect  x="538.498291015625" y="113" width="155" height="52" rx="4"    fill="#121316" >
</rect>
<path fill-rule="evenodd"  fill="rgba(61, 61, 61, 1)"  d="M689.498 113L542.498 113C540.289 113 538.498 114.791 538.498 117L538.498 161C538.498 163.209 540.289 165 542.498 165L689.498 165C691.707 165 693.498 163.209 693.498 161L693.498 117C693.498 114.791 691.707 113 689.498 113ZM539.498 117C539.498 115.343 540.841 114 542.498 114L689.498 114C691.155 114 692.498 115.343 692.498 117L692.498 161C692.498 162.657 691.155 164 689.498 164L542.498 164C540.841 164 539.498 162.657 539.498 161L539.498 117Z">
</path>
</g>
<rect  x="550.498291015625" y="153" width="42.48041152954102" height="2.759891510009766" rx="1"    fill="#3D3D3D" >
</rect>
<defs>
<linearGradient id="linear_border_45973E4B-BE21-419A-950E-E1CB0BAB6230_0" x1="64.494873046875" y1="164.5" x2="64.494873046875" y2="164.5" gradientUnits="userSpaceOnUse">
<stop offset="0" stop-color="#FFFFFF" stop-opacity="0" />
<stop offset="0.5285714268684387" stop-color="#FFFFFF"  />
<stop offset="1" stop-color="#FFFFFF" stop-opacity="0" />
</linearGradient>
<linearGradient id="linear_border_D586B768-9CBB-4875-B33E-A66594382285_0" x1="86.494873046875" y1="164.5" x2="86.494873046875" y2="164.5" gradientUnits="userSpaceOnUse">
<stop offset="0" stop-color="#FFFFFF" stop-opacity="0" />
<stop offset="0.5285714268684387" stop-color="#FFFFFF"  />
<stop offset="1" stop-color="#FFFFFF" stop-opacity="0" />
</linearGradient>
<linearGradient id="linear_border_AFA4E664-6174-4E4F-B61C-C7690B68C235_0" x1="128.494873046875" y1="164.5" x2="128.494873046875" y2="164.5" gradientUnits="userSpaceOnUse">
<stop offset="0" stop-color="#FFFFFF" stop-opacity="0" />
<stop offset="0.5285714268684387" stop-color="#FFFFFF"  />
<stop offset="1" stop-color="#FFFFFF" stop-opacity="0" />
</linearGradient>
<linearGradient id="linear_border_74DFE04C-2BC6-4159-8105-49B9A8DA08A7_0" x1="171.494873046875" y1="164.5" x2="171.494873046875" y2="164.5" gradientUnits="userSpaceOnUse">
<stop offset="0" stop-color="#FFFFFF" stop-opacity="0" />
<stop offset="0.5285714268684387" stop-color="#FFFFFF"  />
<stop offset="1" stop-color="#FFFFFF" stop-opacity="0" />
</linearGradient>
<linearGradient id="linear_border_8134263A-1245-4B69-A078-50149E1F4677_0" x1="214.494873046875" y1="164.5" x2="214.494873046875" y2="164.5" gradientUnits="userSpaceOnUse">
<stop offset="0" stop-color="#FFFFFF" stop-opacity="0" />
<stop offset="0.5285714268684387" stop-color="#FFFFFF"  />
<stop offset="1" stop-color="#FFFFFF" stop-opacity="0" />
</linearGradient>
<linearGradient id="linear_border_5E0BF665-4041-4E87-BD14-31407BCDA9DB_0" x1="257.494873046875" y1="164.5" x2="257.494873046875" y2="164.5" gradientUnits="userSpaceOnUse">
<stop offset="0" stop-color="#FFFFFF" stop-opacity="0" />
<stop offset="0.5285714268684387" stop-color="#FFFFFF"  />
<stop offset="1" stop-color="#FFFFFF" stop-opacity="0" />
</linearGradient>
<linearGradient id="linear_border_6CE690CC-5961-405A-B202-4C6D39A7F8C2_0" x1="300.494873046875" y1="164.5" x2="300.494873046875" y2="164.5" gradientUnits="userSpaceOnUse">
<stop offset="0" stop-color="#FFFFFF" stop-opacity="0" />
<stop offset="0.5285714268684387" stop-color="#FFFFFF"  />
<stop offset="1" stop-color="#FFFFFF" stop-opacity="0" />
</linearGradient>
<linearGradient id="linear_border_5C8571F7-8ACA-47EB-981B-EA74A33C11BA_0" x1="342.494873046875" y1="164.5" x2="342.494873046875" y2="164.5" gradientUnits="userSpaceOnUse">
<stop offset="0" stop-color="#FFFFFF" stop-opacity="0" />
<stop offset="0.5285714268684387" stop-color="#FFFFFF"  />
<stop offset="1" stop-color="#FFFFFF" stop-opacity="0" />
</linearGradient>
<linearGradient id="linear_border_75A32564-9F1E-468D-A7E0-A43865A93279_0" x1="385.494873046875" y1="164.5" x2="385.494873046875" y2="164.5" gradientUnits="userSpaceOnUse">
<stop offset="0" stop-color="#FFFFFF" stop-opacity="0" />
<stop offset="0.5285714268684387" stop-color="#FFFFFF"  />
<stop offset="1" stop-color="#FFFFFF" stop-opacity="0" />
</linearGradient>
<linearGradient id="linear_border_8A0925C7-39BE-45F6-B24C-EE1A6089E03F_0" x1="428.494873046875" y1="164.5" x2="428.494873046875" y2="164.5" gradientUnits="userSpaceOnUse">
<stop offset="0" stop-color="#FFFFFF" stop-opacity="0" />
<stop offset="0.5285714268684387" stop-color="#FFFFFF"  />
<stop offset="1" stop-color="#FFFFFF" stop-opacity="0" />
</linearGradient>
<linearGradient id="linear_border_DC1B78D6-99BE-4917-A760-12878F33393D_0" x1="471.494873046875" y1="164.5" x2="471.494873046875" y2="164.5" gradientUnits="userSpaceOnUse">
<stop offset="0" stop-color="#FFFFFF" stop-opacity="0" />
<stop offset="0.5285714268684387" stop-color="#FFFFFF"  />
<stop offset="1" stop-color="#FFFFFF" stop-opacity="0" />
</linearGradient>
<linearGradient id="linear_border_FEAE342E-1953-4C6E-83A5-574346E2D0FF_0" x1="514.494873046875" y1="164.5" x2="514.494873046875" y2="164.5" gradientUnits="userSpaceOnUse">
<stop offset="0" stop-color="#FFFFFF" stop-opacity="0" />
<stop offset="0.5285714268684387" stop-color="#FFFFFF"  />
<stop offset="1" stop-color="#FFFFFF" stop-opacity="0" />
</linearGradient>
<linearGradient id="linear_border_7CCB27CF-837D-4E3D-8E1E-F29FEA185560_0" x1="107.494873046875" y1="164.5" x2="107.494873046875" y2="164.5" gradientUnits="userSpaceOnUse">
<stop offset="0" stop-color="#FFFFFF" stop-opacity="0" />
<stop offset="0.5285714268684387" stop-color="#FFFFFF"  />
<stop offset="1" stop-color="#FFFFFF" stop-opacity="0" />
</linearGradient>
<linearGradient id="linear_border_FEB0553E-BA77-4ECE-A8C8-116E1403FEFC_0" x1="150.494873046875" y1="164.5" x2="150.494873046875" y2="164.5" gradientUnits="userSpaceOnUse">
<stop offset="0" stop-color="#FFFFFF" stop-opacity="0" />
<stop offset="0.5285714268684387" stop-color="#FFFFFF"  />
<stop offset="1" stop-color="#FFFFFF" stop-opacity="0" />
</linearGradient>
<linearGradient id="linear_border_9F2A2E3E-2A4F-4E23-B449-4FD1B7E9D497_0" x1="193.494873046875" y1="164.5" x2="193.494873046875" y2="164.5" gradientUnits="userSpaceOnUse">
<stop offset="0" stop-color="#FFFFFF" stop-opacity="0" />
<stop offset="0.5285714268684387" stop-color="#FFFFFF"  />
<stop offset="1" stop-color="#FFFFFF" stop-opacity="0" />
</linearGradient>
<linearGradient id="linear_border_E535EE49-5CFA-4BCC-A238-679A02660921_0" x1="235.494873046875" y1="164.5" x2="235.494873046875" y2="164.5" gradientUnits="userSpaceOnUse">
<stop offset="0" stop-color="#FFFFFF" stop-opacity="0" />
<stop offset="0.5285714268684387" stop-color="#FFFFFF"  />
<stop offset="1" stop-color="#FFFFFF" stop-opacity="0" />
</linearGradient>
<linearGradient id="linear_border_A4B9B561-921A-4A0B-883C-A06393C83D1A_0" x1="278.494873046875" y1="164.5" x2="278.494873046875" y2="164.5" gradientUnits="userSpaceOnUse">
<stop offset="0" stop-color="#FFFFFF" stop-opacity="0" />
<stop offset="0.5285714268684387" stop-color="#FFFFFF"  />
<stop offset="1" stop-color="#FFFFFF" stop-opacity="0" />
</linearGradient>
<linearGradient id="linear_border_41D93C2A-B861-4953-9B34-E0F8BE9303AE_0" x1="321.494873046875" y1="164.5" x2="321.494873046875" y2="164.5" gradientUnits="userSpaceOnUse">
<stop offset="0" stop-color="#FFFFFF" stop-opacity="0" />
<stop offset="0.5285714268684387" stop-color="#FFFFFF"  />
<stop offset="1" stop-color="#FFFFFF" stop-opacity="0" />
</linearGradient>
<linearGradient id="linear_border_E7ED9EFA-0B5D-4375-8907-7B0834B5E27E_0" x1="364.494873046875" y1="164.5" x2="364.494873046875" y2="164.5" gradientUnits="userSpaceOnUse">
<stop offset="0" stop-color="#FFFFFF" stop-opacity="0" />
<stop offset="0.5285714268684387" stop-color="#FFFFFF"  />
<stop offset="1" stop-color="#FFFFFF" stop-opacity="0" />
</linearGradient>
<linearGradient id="linear_border_9F5AF65E-BB3D-4422-A032-26706FEF2E00_0" x1="407.494873046875" y1="164.5" x2="407.494873046875" y2="164.5" gradientUnits="userSpaceOnUse">
<stop offset="0" stop-color="#FFFFFF" stop-opacity="0" />
<stop offset="0.5285714268684387" stop-color="#FFFFFF"  />
<stop offset="1" stop-color="#FFFFFF" stop-opacity="0" />
</linearGradient>
<linearGradient id="linear_border_A5666758-6CB5-4A5A-A52E-B31264809E03_0" x1="449.494873046875" y1="164.5" x2="449.494873046875" y2="164.5" gradientUnits="userSpaceOnUse">
<stop offset="0" stop-color="#FFFFFF" stop-opacity="0" />
<stop offset="0.5285714268684387" stop-color="#FFFFFF"  />
<stop offset="1" stop-color="#FFFFFF" stop-opacity="0" />
</linearGradient>
<linearGradient id="linear_border_01CB7E06-1F6E-4B37-92CB-FCF3AAD2E6DE_0" x1="492.494873046875" y1="164.5" x2="492.494873046875" y2="164.5" gradientUnits="userSpaceOnUse">
<stop offset="0" stop-color="#FFFFFF" stop-opacity="0" />
<stop offset="0.5285714268684387" stop-color="#FFFFFF"  />
<stop offset="1" stop-color="#FFFFFF" stop-opacity="0" />
</linearGradient>
<linearGradient id="linear_border_7F16DB49-88CC-423F-BA81-E1C2337E76E7_0" x1="535.494873046875" y1="164.5" x2="535.494873046875" y2="164.5" gradientUnits="userSpaceOnUse">
<stop offset="0" stop-color="#FFFFFF" stop-opacity="0" />
<stop offset="0.5285714268684387" stop-color="#FFFFFF"  />
<stop offset="1" stop-color="#FFFFFF" stop-opacity="0" />
</linearGradient>
<linearGradient id="linear_border_5ED4CB7F-D5D4-4CD8-8980-8C4B3407F429_0" x1="301.005126953125" y1="298.87841796875" x2="301.005126953125" y2="298.87841796875" gradientUnits="userSpaceOnUse">
<stop offset="0" stop-color="#FFFFFF" stop-opacity="0" />
<stop offset="0.550000011920929" stop-color="#FFFFFF"  />
<stop offset="1" stop-color="#FFFFFF" stop-opacity="0" />
</linearGradient>
<linearGradient id="linear_border_2FA7B277-D9C7-4F5A-9D7C-02A119AC7A60_0" x1="301.005126953125" y1="126.87841796875" x2="301.005126953125" y2="126.87841796875" gradientUnits="userSpaceOnUse">
<stop offset="0" stop-color="#FFFFFF" stop-opacity="0" />
<stop offset="0.550000011920929" stop-color="#FFFFFF"  />
<stop offset="1" stop-color="#FFFFFF" stop-opacity="0" />
</linearGradient>
<linearGradient id="linear_border_FDED8FFF-14BE-4D3C-BAB1-4BEB0DF06B4E_0" x1="301.00341796875" y1="191.475830078125" x2="301.00341796875" y2="191.475830078125" gradientUnits="userSpaceOnUse">
<stop offset="0" stop-color="#FFFFFF" stop-opacity="0" />
<stop offset="0.550000011920929" stop-color="#FFFFFF"  />
<stop offset="1" stop-color="#FFFFFF" stop-opacity="0" />
</linearGradient>
<linearGradient id="linear_border_C84EFE86-8FD9-43DB-AFD4-DB1AF0AF626A_0" x1="301.005126953125" y1="277.3984375" x2="301.005126953125" y2="277.3984375" gradientUnits="userSpaceOnUse">
<stop offset="0" stop-color="#FFFFFF" stop-opacity="0" />
<stop offset="0.550000011920929" stop-color="#FFFFFF"  />
<stop offset="1" stop-color="#FFFFFF" stop-opacity="0" />
</linearGradient>
<linearGradient id="linear_border_72171FDA-6D33-4B41-9A31-41E85464EB2E_0" x1="301.005126953125" y1="105.3984375" x2="301.005126953125" y2="105.3984375" gradientUnits="userSpaceOnUse">
<stop offset="0" stop-color="#FFFFFF" stop-opacity="0" />
<stop offset="0.550000011920929" stop-color="#FFFFFF"  />
<stop offset="1" stop-color="#FFFFFF" stop-opacity="0" />
</linearGradient>
<linearGradient id="linear_border_46F1F842-801F-451D-BEB0-70F131A73D4F_0" x1="301.005126953125" y1="169.99755859375" x2="301.005126953125" y2="169.99755859375" gradientUnits="userSpaceOnUse">
<stop offset="0" stop-color="#FFFFFF" stop-opacity="0" />
<stop offset="0.550000011920929" stop-color="#FFFFFF"  />
<stop offset="1" stop-color="#FFFFFF" stop-opacity="0" />
</linearGradient>
<linearGradient id="linear_border_5C660C0E-230F-4A5D-AB6F-6F2DEC9BDF0D_0" x1="301.005126953125" y1="234.43798828125" x2="301.005126953125" y2="234.43798828125" gradientUnits="userSpaceOnUse">
<stop offset="0" stop-color="#FFFFFF" stop-opacity="0" />
<stop offset="0.550000011920929" stop-color="#FFFFFF"  />
<stop offset="1" stop-color="#FFFFFF" stop-opacity="0" />
</linearGradient>
<linearGradient id="linear_border_6A78A934-C8A3-437C-9AED-6368B2EBAF0A_0" x1="301.005126953125" y1="62.43798828125" x2="301.005126953125" y2="62.43798828125" gradientUnits="userSpaceOnUse">
<stop offset="0" stop-color="#FFFFFF" stop-opacity="0" />
<stop offset="0.550000011920929" stop-color="#FFFFFF"  />
<stop offset="1" stop-color="#FFFFFF" stop-opacity="0" />
</linearGradient>
<linearGradient id="linear_border_0D52D69F-1743-48A4-9AC9-1C1777D9F50A_0" x1="301.005126953125" y1="255.91845703125" x2="301.005126953125" y2="255.91845703125" gradientUnits="userSpaceOnUse">
<stop offset="0" stop-color="#FFFFFF" stop-opacity="0" />
<stop offset="0.550000011920929" stop-color="#FFFFFF"  />
<stop offset="1" stop-color="#FFFFFF" stop-opacity="0" />
</linearGradient>
<linearGradient id="linear_border_20F76CB6-C79C-432F-B702-75343341FE4E_0" x1="301.005126953125" y1="83.91845703125" x2="301.005126953125" y2="83.91845703125" gradientUnits="userSpaceOnUse">
<stop offset="0" stop-color="#FFFFFF" stop-opacity="0" />
<stop offset="0.550000011920929" stop-color="#FFFFFF"  />
<stop offset="1" stop-color="#FFFFFF" stop-opacity="0" />
</linearGradient>
<linearGradient id="linear_border_E4442847-2191-422B-A59F-7AE0A61EBBB8_0" x1="301.005126953125" y1="148.51708984375" x2="301.005126953125" y2="148.51708984375" gradientUnits="userSpaceOnUse">
<stop offset="0" stop-color="#FFFFFF" stop-opacity="0" />
<stop offset="0.550000011920929" stop-color="#FFFFFF"  />
<stop offset="1" stop-color="#FFFFFF" stop-opacity="0" />
</linearGradient>
<linearGradient id="linear_border_5F5A88C0-DEAF-4A6E-9479-8DDFC6FD2342_0" x1="301.005126953125" y1="212.95751953125" x2="301.005126953125" y2="212.95751953125" gradientUnits="userSpaceOnUse">
<stop offset="0" stop-color="#FFFFFF" stop-opacity="0" />
<stop offset="0.550000011920929" stop-color="#FFFFFF"  />
<stop offset="1" stop-color="#FFFFFF" stop-opacity="0" />
</linearGradient>
<linearGradient id="linear_border_621703D3-A50F-4301-A4D5-1DED4A85D770_0" x1="301.005126953125" y1="40.95751953125" x2="301.005126953125" y2="40.95751953125" gradientUnits="userSpaceOnUse">
<stop offset="0" stop-color="#FFFFFF" stop-opacity="0" />
<stop offset="0.550000011920929" stop-color="#FFFFFF"  />
<stop offset="1" stop-color="#FFFFFF" stop-opacity="0" />
</linearGradient>
<linearGradient id="linear_fill_FBA291D2-F1E0-4496-9AC0-8E5141B051D7_0" x1="206.498291015625" y1="60.78857421875" x2="206.498291015625" y2="301" gradientUnits="userSpaceOnUse">
<stop offset="0" stop-color="#121316"  />
<stop offset="1" stop-color="#121316"  />
</linearGradient>
<linearGradient id="linear_border_CFAEE569-9253-4F90-88EC-B235830D9CD6_0" x1="206.498291015625" y1="31.599853515625" x2="206.498291015625" y2="301" gradientUnits="userSpaceOnUse">
<stop offset="0" stop-color="#5A5A5A" stop-opacity="0" />
<stop offset="0.5" stop-color="#5A5A5A"  />
<stop offset="1" stop-color="#5A5A5A" stop-opacity="0" />
</linearGradient>
<filter id="filter_02FF30E6-5E3B-4B54-A47F-0CCDDCFDB6F3" x="84.498291015625" y="64" width="72" height="72" filterUnits="userSpaceOnUse" color-interpolation-filters="sRGB">
<feFlood flood-opacity="0" result="feFloodId_02FF30E6-5E3B-4B54-A47F-0CCDDCFDB6F3"/>
<feColorMatrix in="SourceAlpha" type="matrix" values="0 0 0 0 0 0 0 0 0 0 0 0 0 0 0 0 0 0 127 0" result="hardAlpha_02FF30E6-5E3B-4B54-A47F-0CCDDCFDB6F3"/>
<feOffset dx="0" dy="4"/>
<feGaussianBlur stdDeviation="2"/>
<feComposite in2="hardAlpha_02FF30E6-5E3B-4B54-A47F-0CCDDCFDB6F3" operator="out"/>
<feColorMatrix type="matrix" values="0 0 0 0 0 0 0 0 0 0 0 0 0 0 0 0 0 0 0.3 0"/>
<feBlend mode="normal" in2="feFloodId_02FF30E6-5E3B-4B54-A47F-0CCDDCFDB6F3" result="dropShadow_1_02FF30E6-5E3B-4B54-A47F-0CCDDCFDB6F3"/>
<feBlend mode="normal" in="SourceGraphic" in2="dropShadow_1_02FF30E6-5E3B-4B54-A47F-0CCDDCFDB6F3" result="shape_02FF30E6-5E3B-4B54-A47F-0CCDDCFDB6F3"/>
</filter>
<filter id="filter_A27720CA-DA61-4ECE-AFBD-20CEBAAA4649" x="170.498291015625" y="64" width="72" height="72" filterUnits="userSpaceOnUse" color-interpolation-filters="sRGB">
<feFlood flood-opacity="0" result="feFloodId_A27720CA-DA61-4ECE-AFBD-20CEBAAA4649"/>
<feColorMatrix in="SourceAlpha" type="matrix" values="0 0 0 0 0 0 0 0 0 0 0 0 0 0 0 0 0 0 127 0" result="hardAlpha_A27720CA-DA61-4ECE-AFBD-20CEBAAA4649"/>
<feOffset dx="0" dy="4"/>
<feGaussianBlur stdDeviation="2"/>
<feComposite in2="hardAlpha_A27720CA-DA61-4ECE-AFBD-20CEBAAA4649" operator="out"/>
<feColorMatrix type="matrix" values="0 0 0 0 0 0 0 0 0 0 0 0 0 0 0 0 0 0 0.3 0"/>
<feBlend mode="normal" in2="feFloodId_A27720CA-DA61-4ECE-AFBD-20CEBAAA4649" result="dropShadow_1_A27720CA-DA61-4ECE-AFBD-20CEBAAA4649"/>
<feBlend mode="normal" in="SourceGraphic" in2="dropShadow_1_A27720CA-DA61-4ECE-AFBD-20CEBAAA4649" result="shape_A27720CA-DA61-4ECE-AFBD-20CEBAAA4649"/>
</filter>
<filter id="filter_32370E75-C97C-4708-81BA-8DCE98B49E6F" x="170.498291015625" y="169" width="72" height="72" filterUnits="userSpaceOnUse" color-interpolation-filters="sRGB">
<feFlood flood-opacity="0" result="feFloodId_32370E75-C97C-4708-81BA-8DCE98B49E6F"/>
<feColorMatrix in="SourceAlpha" type="matrix" values="0 0 0 0 0 0 0 0 0 0 0 0 0 0 0 0 0 0 127 0" result="hardAlpha_32370E75-C97C-4708-81BA-8DCE98B49E6F"/>
<feOffset dx="0" dy="4"/>
<feGaussianBlur stdDeviation="2"/>
<feComposite in2="hardAlpha_32370E75-C97C-4708-81BA-8DCE98B49E6F" operator="out"/>
<feColorMatrix type="matrix" values="0 0 0 0 0 0 0 0 0 0 0 0 0 0 0 0 0 0 0.3 0"/>
<feBlend mode="normal" in2="feFloodId_32370E75-C97C-4708-81BA-8DCE98B49E6F" result="dropShadow_1_32370E75-C97C-4708-81BA-8DCE98B49E6F"/>
<feBlend mode="normal" in="SourceGraphic" in2="dropShadow_1_32370E75-C97C-4708-81BA-8DCE98B49E6F" result="shape_32370E75-C97C-4708-81BA-8DCE98B49E6F"/>
</filter>
<filter id="filter_EECA1A69-C194-48C3-8EA2-33FAAE9ADFF4" x="84.498291015625" y="169" width="72" height="72" filterUnits="userSpaceOnUse" color-interpolation-filters="sRGB">
<feFlood flood-opacity="0" result="feFloodId_EECA1A69-C194-48C3-8EA2-33FAAE9ADFF4"/>
<feColorMatrix in="SourceAlpha" type="matrix" values="0 0 0 0 0 0 0 0 0 0 0 0 0 0 0 0 0 0 127 0" result="hardAlpha_EECA1A69-C194-48C3-8EA2-33FAAE9ADFF4"/>
<feOffset dx="0" dy="4"/>
<feGaussianBlur stdDeviation="2"/>
<feComposite in2="hardAlpha_EECA1A69-C194-48C3-8EA2-33FAAE9ADFF4" operator="out"/>
<feColorMatrix type="matrix" values="0 0 0 0 0 0 0 0 0 0 0 0 0 0 0 0 0 0 0.3 0"/>
<feBlend mode="normal" in2="feFloodId_EECA1A69-C194-48C3-8EA2-33FAAE9ADFF4" result="dropShadow_1_EECA1A69-C194-48C3-8EA2-33FAAE9ADFF4"/>
<feBlend mode="normal" in="SourceGraphic" in2="dropShadow_1_EECA1A69-C194-48C3-8EA2-33FAAE9ADFF4" result="shape_EECA1A69-C194-48C3-8EA2-33FAAE9ADFF4"/>
</filter>
<filter id="filter_85117F0B-E28F-4138-AD98-9E7F3C901FB7" x="256.498291015625" y="64" width="72" height="72" filterUnits="userSpaceOnUse" color-interpolation-filters="sRGB">
<feFlood flood-opacity="0" result="feFloodId_85117F0B-E28F-4138-AD98-9E7F3C901FB7"/>
<feColorMatrix in="SourceAlpha" type="matrix" values="0 0 0 0 0 0 0 0 0 0 0 0 0 0 0 0 0 0 127 0" result="hardAlpha_85117F0B-E28F-4138-AD98-9E7F3C901FB7"/>
<feOffset dx="0" dy="4"/>
<feGaussianBlur stdDeviation="2"/>
<feComposite in2="hardAlpha_85117F0B-E28F-4138-AD98-9E7F3C901FB7" operator="out"/>
<feColorMatrix type="matrix" values="0 0 0 0 0 0 0 0 0 0 0 0 0 0 0 0 0 0 0.3 0"/>
<feBlend mode="normal" in2="feFloodId_85117F0B-E28F-4138-AD98-9E7F3C901FB7" result="dropShadow_1_85117F0B-E28F-4138-AD98-9E7F3C901FB7"/>
<feBlend mode="normal" in="SourceGraphic" in2="dropShadow_1_85117F0B-E28F-4138-AD98-9E7F3C901FB7" result="shape_85117F0B-E28F-4138-AD98-9E7F3C901FB7"/>
</filter>
<filter id="filter_AA68E0B1-204D-4C0F-A2FB-6C134C7CAFEE" x="256.498291015625" y="169" width="72" height="72" filterUnits="userSpaceOnUse" color-interpolation-filters="sRGB">
<feFlood flood-opacity="0" result="feFloodId_AA68E0B1-204D-4C0F-A2FB-6C134C7CAFEE"/>
<feColorMatrix in="SourceAlpha" type="matrix" values="0 0 0 0 0 0 0 0 0 0 0 0 0 0 0 0 0 0 127 0" result="hardAlpha_AA68E0B1-204D-4C0F-A2FB-6C134C7CAFEE"/>
<feOffset dx="0" dy="4"/>
<feGaussianBlur stdDeviation="2"/>
<feComposite in2="hardAlpha_AA68E0B1-204D-4C0F-A2FB-6C134C7CAFEE" operator="out"/>
<feColorMatrix type="matrix" values="0 0 0 0 0 0 0 0 0 0 0 0 0 0 0 0 0 0 0.3 0"/>
<feBlend mode="normal" in2="feFloodId_AA68E0B1-204D-4C0F-A2FB-6C134C7CAFEE" result="dropShadow_1_AA68E0B1-204D-4C0F-A2FB-6C134C7CAFEE"/>
<feBlend mode="normal" in="SourceGraphic" in2="dropShadow_1_AA68E0B1-204D-4C0F-A2FB-6C134C7CAFEE" result="shape_AA68E0B1-204D-4C0F-A2FB-6C134C7CAFEE"/>
</filter>
<linearGradient id="linear_fill_17E41C0F-D52B-4206-ADB6-A4DF9AF32BF0_0" x1="206.498291015625" y1="176.41845703125" x2="206.498291015625" y2="244.251220703125" gradientUnits="userSpaceOnUse">
<stop offset="0" stop-color="#121316" stop-opacity="0" />
<stop offset="1" stop-color="#121316"  />
</linearGradient>
<linearGradient id="linear_fill_1C44EB47-E959-48A9-89ED-432FB228DA2B_0" x1="401.498291015625" y1="188.820556640625" x2="401.498291015625" y2="361" gradientUnits="userSpaceOnUse">
<stop offset="0" stop-color="#121316"  />
<stop offset="1" stop-color="#121316"  />
</linearGradient>
<filter id="filter_1C44EB47-E959-48A9-89ED-432FB228DA2B" x="229.498291015625" y="136" width="344" height="245" filterUnits="userSpaceOnUse" color-interpolation-filters="sRGB">
<feFlood flood-opacity="0" result="feFloodId_1C44EB47-E959-48A9-89ED-432FB228DA2B"/>
<feColorMatrix in="SourceAlpha" type="matrix" values="0 0 0 0 0 0 0 0 0 0 0 0 0 0 0 0 0 0 127 0" result="hardAlpha_1C44EB47-E959-48A9-89ED-432FB228DA2B"/>
<feOffset dx="0" dy="0"/>
<feGaussianBlur stdDeviation="10"/>
<feComposite in2="hardAlpha_1C44EB47-E959-48A9-89ED-432FB228DA2B" operator="out"/>
<feColorMatrix type="matrix" values="0 0 0 0 0 0 0 0 0 0 0 0 0 0 0 0 0 0 0.1 0"/>
<feBlend mode="normal" in2="feFloodId_1C44EB47-E959-48A9-89ED-432FB228DA2B" result="dropShadow_1_1C44EB47-E959-48A9-89ED-432FB228DA2B"/>
<feBlend mode="normal" in="SourceGraphic" in2="dropShadow_1_1C44EB47-E959-48A9-89ED-432FB228DA2B" result="shape_1C44EB47-E959-48A9-89ED-432FB228DA2B"/>
</filter>
<linearGradient id="linear_border_A28279D7-D313-40EB-802A-BA5CAE615265_0" x1="401.498291015625" y1="156" x2="401.498291015625" y2="361" gradientUnits="userSpaceOnUse">
<stop offset="0" stop-color="#2C2C2C"  />
<stop offset="1" stop-color="#2C2C2C" stop-opacity="0" />
</linearGradient>
<filter id="filter_25A60E82-C970-4239-B78D-D672EAAC3D2D" x="273.498291015625" y="201" width="51" height="58" filterUnits="userSpaceOnUse" color-interpolation-filters="sRGB">
<feFlood flood-opacity="0" result="feFloodId_25A60E82-C970-4239-B78D-D672EAAC3D2D"/>
<feColorMatrix in="SourceAlpha" type="matrix" values="0 0 0 0 0 0 0 0 0 0 0 0 0 0 0 0 0 0 127 0" result="hardAlpha_25A60E82-C970-4239-B78D-D672EAAC3D2D"/>
<feOffset dx="0" dy="4"/>
<feGaussianBlur stdDeviation="2"/>
<feComposite in2="hardAlpha_25A60E82-C970-4239-B78D-D672EAAC3D2D" operator="out"/>
<feColorMatrix type="matrix" values="0 0 0 0 0 0 0 0 0 0 0 0 0 0 0 0 0 0 0.3 0"/>
<feBlend mode="normal" in2="feFloodId_25A60E82-C970-4239-B78D-D672EAAC3D2D" result="dropShadow_1_25A60E82-C970-4239-B78D-D672EAAC3D2D"/>
<feBlend mode="normal" in="SourceGraphic" in2="dropShadow_1_25A60E82-C970-4239-B78D-D672EAAC3D2D" result="shape_25A60E82-C970-4239-B78D-D672EAAC3D2D"/>
</filter>
<filter id="filter_8B3CA550-8238-4221-A9F9-6BC412260678" x="273.498291015625" y="267" width="51" height="58" filterUnits="userSpaceOnUse" color-interpolation-filters="sRGB">
<feFlood flood-opacity="0" result="feFloodId_8B3CA550-8238-4221-A9F9-6BC412260678"/>
<feColorMatrix in="SourceAlpha" type="matrix" values="0 0 0 0 0 0 0 0 0 0 0 0 0 0 0 0 0 0 127 0" result="hardAlpha_8B3CA550-8238-4221-A9F9-6BC412260678"/>
<feOffset dx="0" dy="4"/>
<feGaussianBlur stdDeviation="2"/>
<feComposite in2="hardAlpha_8B3CA550-8238-4221-A9F9-6BC412260678" operator="out"/>
<feColorMatrix type="matrix" values="0 0 0 0 0 0 0 0 0 0 0 0 0 0 0 0 0 0 0.3 0"/>
<feBlend mode="normal" in2="feFloodId_8B3CA550-8238-4221-A9F9-6BC412260678" result="dropShadow_1_8B3CA550-8238-4221-A9F9-6BC412260678"/>
<feBlend mode="normal" in="SourceGraphic" in2="dropShadow_1_8B3CA550-8238-4221-A9F9-6BC412260678" result="shape_8B3CA550-8238-4221-A9F9-6BC412260678"/>
</filter>
<linearGradient id="linear_fill_0C814521-FE7B-46E8-81E4-7A5638149F09_0" x1="401.498291015625" y1="275.41845703125" x2="401.498291015625" y2="343.251220703125" gradientUnits="userSpaceOnUse">
<stop offset="0" stop-color="#121316" stop-opacity="0" />
<stop offset="1" stop-color="#121316"  />
</linearGradient>
<linearGradient id="linear_fill_A3615807-0250-491C-B91F-D1B2F4E8EA5E_0" x1="69.498291015625" y1="28.16260266304016" x2="69.498291015625" y2="50" gradientUnits="userSpaceOnUse">
<stop offset="0" stop-color="#121316"  />
<stop offset="1" stop-color="#121316"  />
</linearGradient>
<filter id="filter_A3615807-0250-491C-B91F-D1B2F4E8EA5E" x="30.498291015625" y="24" width="78" height="34" filterUnits="userSpaceOnUse" color-interpolation-filters="sRGB">
<feFlood flood-opacity="0" result="feFloodId_A3615807-0250-491C-B91F-D1B2F4E8EA5E"/>
<feColorMatrix in="SourceAlpha" type="matrix" values="0 0 0 0 0 0 0 0 0 0 0 0 0 0 0 0 0 0 127 0" result="hardAlpha_A3615807-0250-491C-B91F-D1B2F4E8EA5E"/>
<feOffset dx="0" dy="4"/>
<feGaussianBlur stdDeviation="2"/>
<feComposite in2="hardAlpha_A3615807-0250-491C-B91F-D1B2F4E8EA5E" operator="out"/>
<feColorMatrix type="matrix" values="0 0 0 0 0 0 0 0 0 0 0 0 0 0 0 0 0 0 0.6 0"/>
<feBlend mode="normal" in2="feFloodId_A3615807-0250-491C-B91F-D1B2F4E8EA5E" result="dropShadow_1_A3615807-0250-491C-B91F-D1B2F4E8EA5E"/>
<feBlend mode="normal" in="SourceGraphic" in2="dropShadow_1_A3615807-0250-491C-B91F-D1B2F4E8EA5E" result="shape_A3615807-0250-491C-B91F-D1B2F4E8EA5E"/>
</filter>
<linearGradient id="linear_fill_5AFF63EF-0217-4D26-9A53-E99575EAAD28_0" x1="232.498291015625" y1="263.16260266304016" x2="232.498291015625" y2="285" gradientUnits="userSpaceOnUse">
<stop offset="0" stop-color="#121316"  />
<stop offset="1" stop-color="#121316"  />
</linearGradient>
<filter id="filter_5AFF63EF-0217-4D26-9A53-E99575EAAD28" x="193.498291015625" y="259" width="78" height="34" filterUnits="userSpaceOnUse" color-interpolation-filters="sRGB">
<feFlood flood-opacity="0" result="feFloodId_5AFF63EF-0217-4D26-9A53-E99575EAAD28"/>
<feColorMatrix in="SourceAlpha" type="matrix" values="0 0 0 0 0 0 0 0 0 0 0 0 0 0 0 0 0 0 127 0" result="hardAlpha_5AFF63EF-0217-4D26-9A53-E99575EAAD28"/>
<feOffset dx="0" dy="4"/>
<feGaussianBlur stdDeviation="2"/>
<feComposite in2="hardAlpha_5AFF63EF-0217-4D26-9A53-E99575EAAD28" operator="out"/>
<feColorMatrix type="matrix" values="0 0 0 0 0 0 0 0 0 0 0 0 0 0 0 0 0 0 0.6 0"/>
<feBlend mode="normal" in2="feFloodId_5AFF63EF-0217-4D26-9A53-E99575EAAD28" result="dropShadow_1_5AFF63EF-0217-4D26-9A53-E99575EAAD28"/>
<feBlend mode="normal" in="SourceGraphic" in2="dropShadow_1_5AFF63EF-0217-4D26-9A53-E99575EAAD28" result="shape_5AFF63EF-0217-4D26-9A53-E99575EAAD28"/>
</filter>
<linearGradient id="linear_fill_E1A9840E-71C2-4901-BED4-13CA3DD47AFB_0" x1="420.498291015625" y1="6.162602663040161" x2="420.498291015625" y2="28" gradientUnits="userSpaceOnUse">
<stop offset="0" stop-color="#121316"  />
<stop offset="1" stop-color="#121316"  />
</linearGradient>
<filter id="filter_E1A9840E-71C2-4901-BED4-13CA3DD47AFB" x="372.498291015625" y="2" width="96" height="34" filterUnits="userSpaceOnUse" color-interpolation-filters="sRGB">
<feFlood flood-opacity="0" result="feFloodId_E1A9840E-71C2-4901-BED4-13CA3DD47AFB"/>
<feColorMatrix in="SourceAlpha" type="matrix" values="0 0 0 0 0 0 0 0 0 0 0 0 0 0 0 0 0 0 127 0" result="hardAlpha_E1A9840E-71C2-4901-BED4-13CA3DD47AFB"/>
<feOffset dx="0" dy="4"/>
<feGaussianBlur stdDeviation="2"/>
<feComposite in2="hardAlpha_E1A9840E-71C2-4901-BED4-13CA3DD47AFB" operator="out"/>
<feColorMatrix type="matrix" values="0 0 0 0 0 0 0 0 0 0 0 0 0 0 0 0 0 0 0.6 0"/>
<feBlend mode="normal" in2="feFloodId_E1A9840E-71C2-4901-BED4-13CA3DD47AFB" result="dropShadow_1_E1A9840E-71C2-4901-BED4-13CA3DD47AFB"/>
<feBlend mode="normal" in="SourceGraphic" in2="dropShadow_1_E1A9840E-71C2-4901-BED4-13CA3DD47AFB" result="shape_E1A9840E-71C2-4901-BED4-13CA3DD47AFB"/>
</filter>
<filter id="filter_5D73330A-343A-49F9-B1C6-73753229BE16" x="408.498291015625" y="51" width="121" height="122" filterUnits="userSpaceOnUse" color-interpolation-filters="sRGB">
<feFlood flood-opacity="0" result="feFloodId_5D73330A-343A-49F9-B1C6-73753229BE16"/>
<feColorMatrix in="SourceAlpha" type="matrix" values="0 0 0 0 0 0 0 0 0 0 0 0 0 0 0 0 0 0 127 0" result="hardAlpha_5D73330A-343A-49F9-B1C6-73753229BE16"/>
<feOffset dx="0" dy="4"/>
<feGaussianBlur stdDeviation="2"/>
<feComposite in2="hardAlpha_5D73330A-343A-49F9-B1C6-73753229BE16" operator="out"/>
<feColorMatrix type="matrix" values="0 0 0 0 0 0 0 0 0 0 0 0 0 0 0 0 0 0 0.3 0"/>
<feBlend mode="normal" in2="feFloodId_5D73330A-343A-49F9-B1C6-73753229BE16" result="dropShadow_1_5D73330A-343A-49F9-B1C6-73753229BE16"/>
<feBlend mode="normal" in="SourceGraphic" in2="dropShadow_1_5D73330A-343A-49F9-B1C6-73753229BE16" result="shape_5D73330A-343A-49F9-B1C6-73753229BE16"/>
</filter>
<filter id="filter_D487112D-77C3-4455-8E22-578DDEB1575B" x="534.498291015625" y="52" width="163" height="60" filterUnits="userSpaceOnUse" color-interpolation-filters="sRGB">
<feFlood flood-opacity="0" result="feFloodId_D487112D-77C3-4455-8E22-578DDEB1575B"/>
<feColorMatrix in="SourceAlpha" type="matrix" values="0 0 0 0 0 0 0 0 0 0 0 0 0 0 0 0 0 0 127 0" result="hardAlpha_D487112D-77C3-4455-8E22-578DDEB1575B"/>
<feOffset dx="0" dy="4"/>
<feGaussianBlur stdDeviation="2"/>
<feComposite in2="hardAlpha_D487112D-77C3-4455-8E22-578DDEB1575B" operator="out"/>
<feColorMatrix type="matrix" values="0 0 0 0 0 0 0 0 0 0 0 0 0 0 0 0 0 0 0.3 0"/>
<feBlend mode="normal" in2="feFloodId_D487112D-77C3-4455-8E22-578DDEB1575B" result="dropShadow_1_D487112D-77C3-4455-8E22-578DDEB1575B"/>
<feBlend mode="normal" in="SourceGraphic" in2="dropShadow_1_D487112D-77C3-4455-8E22-578DDEB1575B" result="shape_D487112D-77C3-4455-8E22-578DDEB1575B"/>
</filter>
<filter id="filter_0E7BAED4-6F69-49B2-B8D2-5972ACE39A76" x="534.498291015625" y="113" width="163" height="60" filterUnits="userSpaceOnUse" color-interpolation-filters="sRGB">
<feFlood flood-opacity="0" result="feFloodId_0E7BAED4-6F69-49B2-B8D2-5972ACE39A76"/>
<feColorMatrix in="SourceAlpha" type="matrix" values="0 0 0 0 0 0 0 0 0 0 0 0 0 0 0 0 0 0 127 0" result="hardAlpha_0E7BAED4-6F69-49B2-B8D2-5972ACE39A76"/>
<feOffset dx="0" dy="4"/>
<feGaussianBlur stdDeviation="2"/>
<feComposite in2="hardAlpha_0E7BAED4-6F69-49B2-B8D2-5972ACE39A76" operator="out"/>
<feColorMatrix type="matrix" values="0 0 0 0 0 0 0 0 0 0 0 0 0 0 0 0 0 0 0.3 0"/>
<feBlend mode="normal" in2="feFloodId_0E7BAED4-6F69-49B2-B8D2-5972ACE39A76" result="dropShadow_1_0E7BAED4-6F69-49B2-B8D2-5972ACE39A76"/>
<feBlend mode="normal" in="SourceGraphic" in2="dropShadow_1_0E7BAED4-6F69-49B2-B8D2-5972ACE39A76" result="shape_0E7BAED4-6F69-49B2-B8D2-5972ACE39A76"/>
</filter>
</defs>
</svg>
