<svg xmlns="http://www.w3.org/2000/svg" xmlns:xlink="http://www.w3.org/1999/xlink" width="8" height="8" viewBox="0 0 8 8" fill="none">
<path d="M6.72763 2.16302L6.72763 6.99801C6.72763 7.26839 6.91085 7.45161 6.91085 7.45161C7.09408 7.63483 7.36382 7.6342 7.36382 7.6342C7.63419 7.6342 7.81678 7.45097 7.81678 7.45097C7.99936 7.26775 8 6.99801 8 6.99801L8 0.636183C8 0.365805 7.81678 0.183221 7.81678 0.183221C7.63356 0.000636364 7.36382 -7.79099e-17 7.36382 -7.79099e-17L1.00199 -8.57009e-16C0.731611 -8.90121e-16 0.548391 0.183221 0.548391 0.183221C0.36517 0.366441 0.365806 0.636183 0.365806 0.636183C0.365806 0.906561 0.549026 1.08978 0.549026 1.08978C0.732248 1.273 1.00199 1.27237 1.00199 1.27237L5.83698 1.27237L0.17495 6.93439C0 7.10935 0 7.37972 0 7.37972C0 7.6501 0.17495 7.82505 0.17495 7.82505C0.349901 8 0.620277 8 0.620277 8C0.890655 8 1.06561 7.82505 1.06561 7.82505L6.72763 2.16302Z"   fill="#B3B6C1" >
</path>
</svg>
