<svg xmlns="http://www.w3.org/2000/svg" xmlns:xlink="http://www.w3.org/1999/xlink" width="16" height="16" viewBox="0 0 16 16" fill="none">
<path d="M6.21415 11.4866C6.33298 11.4866 6.44577 11.4535 6.54044 11.3935L11.195 8.61091C11.4146 8.50341 11.5676 8.27393 11.5676 8.00725C11.5676 7.76123 11.4387 7.54623 11.2454 7.43253L6.69552 4.71191C6.5787 4.5734 6.40549 4.48657 6.21415 4.48657C5.85967 4.48657 5.57367 4.78427 5.57367 5.15019C5.57367 5.16259 5.57367 5.175 5.57568 5.1874L5.56763 5.19153L5.5777 10.7527C5.57568 10.7754 5.57367 10.7982 5.57367 10.823C5.57367 11.1889 5.86169 11.4866 6.21415 11.4866Z"   fill="#121316" >
</path>
<path d="M13.2925 13.7218C13.444 13.5844 13.5173 13.3692 13.4608 13.1584C13.381 12.8605 13.0754 12.684 12.7792 12.7634C12.6788 12.7903 12.591 12.8443 12.5237 12.9144L12.5216 12.9132C11.7653 13.5983 10.8393 14.1191 9.78667 14.4011C6.24544 15.35 2.60413 13.2477 1.65526 9.70646C0.706392 6.16523 2.80826 2.52224 6.34949 1.57337C9.89072 0.624502 13.5304 2.72726 14.4792 6.26849C14.7595 7.31446 14.773 8.36912 14.5632 9.35987L14.5708 9.36143C14.5479 9.45007 14.547 9.54717 14.5725 9.64256C14.6524 9.94045 14.9579 10.1169 15.2542 10.0375C15.4734 9.97875 15.6271 9.79587 15.6596 9.58267C15.9041 8.42658 15.8872 7.19883 15.5603 5.97881C14.4514 1.84012 10.1973 -0.614577 6.06025 0.493933C1.92324 1.60244 -0.533584 5.85533 0.575375 9.99402C1.68433 14.1327 5.93677 16.5879 10.0755 15.4789C11.3156 15.1466 12.4047 14.5319 13.2925 13.7218Z"   fill="#121316" >
</path>
</svg>
