<svg xmlns="http://www.w3.org/2000/svg" xmlns:xlink="http://www.w3.org/1999/xlink" fill="none" version="1.1" width="129" height="74" viewBox="0 0 129 74"><defs><mask id="master_svg0_4252_57585" style="mask-type:alpha" maskUnits="objectBoundingBox"><g><path d="M38.64990234375,57.88433837890625L49.915202343749996,57.88433837890625L49.915202343749996,72.48153837890625L38.64990234375,72.48153837890625L38.64990234375,57.88433837890625Z" fill-rule="evenodd" fill="#FFFFFF" fill-opacity="1"/></g></mask><mask id="master_svg1_4252_57589" style="mask-type:alpha" maskUnits="objectBoundingBox"><g><path d="M0.625732421875,0.768646240234375L128.899732421875,0.768646240234375L128.899732421875,28.788346240234375L0.625732421875,28.788346240234375L0.625732421875,0.768646240234375Z" fill-rule="evenodd" fill="#FFFFFF" fill-opacity="1"/></g></mask></defs><g><g><path d="M5.87141,50.783091015625004C4.09187,50.783091015625004,2.6784,50.374291015625,1.62872,49.557691015625C0.579789,48.742491015625,0.0371368,47.569391015625,0,46.040481015625L3.27638,46.040481015625C3.41053,47.373391015625,4.27074,48.039491015625,5.85322,48.039491015625C6.44211,48.039491015625,6.94232,47.918891015625,7.35385,47.676091015625C7.76463,47.434891015625,7.97002,47.066891015625,7.97002,46.570591015625C7.97002,46.229491015625,7.84118,45.945981015625,7.58349,45.717031015625C7.32657,45.489621015625,7.06434,45.329821015625,6.8021,45.237631015625C6.5376,45.146971015625,6.03739,45.001771015624996,5.30072,44.805861015625C5.26509,44.793561015625,5.24008,44.783581015625,5.2272,44.776661015625C5.21507,44.770521015625,5.19613,44.765141015625,5.17263,44.758221015625C5.14762,44.751311015625,5.12337,44.748241015625,5.09836,44.748241015625C4.53448,44.604571015625,4.07065,44.477031015625,3.70838,44.366401015625C3.34686,44.255001015625,2.93533,44.085211015625,2.47528,43.856271015625C2.01524,43.628091015625,1.65069,43.375331015625,1.38088,43.101821015625C1.10956,42.828311015625,0.879916,42.464151015625,0.689684,42.014711015625C0.50021,41.564501015625,0.404716,41.058201015625,0.404716,40.496591015625C0.404716,39.059151015625,0.885979,37.981251015625,1.84926,37.262911015625C2.81331,36.544576015625,4.07368,36.185791015625,5.63192,36.185791015625C7.12952,36.185791015625,8.35352,36.551491015625,9.30467,37.282121015625C10.2558,38.014291015625,10.7621,39.085271015625,10.8243,40.496591015625L7.63882,40.496591015625C7.57667,39.961101015625,7.36219,39.547001015625,6.99461,39.252751015625C6.62627,38.958501015625004,6.13516,38.810991015625,5.52202,38.810991015625C4.95663,38.810991015625,4.50038,38.931611015625,4.15023,39.172851015625C3.80084,39.415631015625,3.62577,39.732161015625,3.62577,40.123981015625C3.62577,40.568041015625,3.83419,40.891491015625,4.25103,41.093541015625C4.66939,41.295601015625,5.45457,41.535301015625,6.60884,41.808041015625C7.33187,41.991661015625,7.92758,42.170671015625004,8.39368,42.348141015625C8.85979,42.524071015625,9.33499,42.776841015625,9.8208,43.101821015625C10.3051,43.428341015625,10.6666,43.849351015625004,10.9061,44.366401015625C11.1448,44.881151015625,11.2653,45.498841015625004,11.2653,46.217191015625C11.2653,47.642291015625,10.7591,48.757891015625,9.74653,49.567591015625C8.73398,50.378191015625,7.44177,50.783091015625004,5.87141,50.783091015625004L5.87141,50.783091015625004Z" fill-rule="evenodd" fill="#000000" fill-opacity="1"/></g><g><path d="M13.443115234375,50.44981416015625L13.443115234375,36.43951416015625L23.420045234375,36.43951416015625L23.420045234375,39.30057416015625L16.701305234375,39.30057416015625L16.701305234375,41.808234160156246L22.462815234375,41.808234160156246L22.462815234375,44.51256416015625L16.701305234375,44.51256416015625L16.701305234375,47.51041416015625L23.530715234375002,47.51041416015625L22.903155234375,50.44981416015625L13.443115234375,50.44981416015625Z" fill-rule="evenodd" fill="#000000" fill-opacity="1"/></g><g><path d="M42.14747265625,50.44981416015625L37.80322265625,36.43951416015625L41.19025265625,36.43951416015625L43.25172265625,43.78808416015625L43.85956265625,46.25732416015625L43.89594265625,46.25732416015625C44.11724265625,45.30312416015625,44.31960265625,44.48030416015625,44.50377265625,43.78808416015625L46.54705265625,36.43951416015625L49.841622656249996,36.43951416015625L45.51556265625,50.44981416015625L42.14747265625,50.44981416015625Z" fill-rule="evenodd" fill="#000000" fill-opacity="1"/></g><g><path d="M63.93255615234375,36.43965148925781L63.93255615234375,50.44995148925781L67.19074615234375,50.44995148925781L67.19074615234375,45.19801148925781L69.16051615234375,45.19801148925781C70.44969615234375,45.19801148925781,71.17878615234375,45.86564148925781,71.35158615234376,47.197851489257815C71.40009615234375,47.52355148925781,71.44253615234375,47.97535148925781,71.47967615234376,48.54925148925781C71.51680615234375,49.12395148925781,71.58047615234375,49.89145148925781,71.73735615234375,50.44995148925781L75.01375615234375,50.449151489257815C75.01375615234375,50.449151489257815,74.67265615234375,49.39895148925781,74.61885615234375,48.18665148925781C74.58935615234375,47.51435148925781,74.53545615234376,46.94965148925781,74.46125615234375,46.49175148925781C74.28915615234375,45.17342148925781,73.65255615234375,44.31679148925781,72.54754615234376,43.924971489257814L72.54754615234376,43.86505148925781C74.06935615234374,43.30497148925781,74.82955615234376,42.17561148925781,74.82955615234376,40.47618148925781C74.82955615234376,39.209291489257815,74.40135615234375,38.22128148925781,73.54114615234374,37.50832148925781C72.68245615234375,36.79766848925781,71.57819615234375,36.43965148925781,70.22838615234375,36.43965148925781L63.93255615234375,36.43965148925781ZM69.63885615234375,42.63207148925781L67.19085615234376,42.63207148925781L67.19085615234376,39.18327148925781L69.71237615234375,39.18327148925781C70.32626615234375,39.18327148925781,70.79237615234375,39.34384148925781,71.11220615234375,39.662681489257814C71.43051615234376,39.98458148925781,71.59119615234376,40.40560148925781,71.59119615234376,40.927261489257816C71.59119615234376,41.46275148925781,71.42445615234375,41.881461489257816,71.09249615234376,42.18109148925781C70.76205615234375,42.48225148925781,70.27700615234374,42.63207148925781,69.63885615234375,42.63207148925781Z" fill-rule="evenodd" fill="#000000" fill-opacity="1"/></g><g><path d="M110.714211015625,50.783091015625004C108.933911015625,50.783091015625004,107.520441015625,50.374291015625,106.471511015625,49.557691015625C105.422588015625,48.742491015625,104.879177815625,47.569391015625,104.842041015625,46.040481015625L108.118421015625,46.040481015625C108.253321015625,47.373391015625,109.112781015625,48.039491015625,110.696021015625,48.039491015625C111.284901015625,48.039491015625,111.784361015625,47.918891015625,112.195891015625,47.676091015625C112.606671015625,47.434891015625,112.812821015625,47.066891015625,112.812821015625,46.570591015625C112.812821015625,46.229491015625,112.683981015625,45.945981015625,112.426291015625,45.717031015625C112.168611015625,45.489621015625,111.907131015625,45.329821015625,111.644901015625,45.237631015625C111.380401015625,45.146971015625,110.880191015625,45.001771015624996,110.142761015625,44.805861015625C110.107131015625,44.793561015625,110.082121015625,44.783581015625,110.070001015625,44.776661015625C110.057871015625,44.770521015625,110.038171015625,44.765141015625,110.014671015625,44.758221015625C109.990421015625,44.751311015625,109.966171015625,44.748241015625,109.940401015625,44.748241015625C109.376521015625,44.604571015625,108.912691015625,44.477031015625,108.551181015625,44.366401015625C108.189661015625,44.255001015625,107.778121015625,44.085211015625,107.318081015625,43.856271015625C106.858041015625,43.628091015625,106.492731015625,43.375331015625,106.222921015625,43.101821015625C105.952361015625,42.828311015625,105.721957015625,42.464151015625,105.531725015625,42.014711015625C105.342251015625,41.564501015625,105.246757015625,41.058201015625,105.246757015625,40.496591015625C105.246757015625,39.059151015625,105.728778015625,37.981251015625,106.691301015625,37.262911015625C107.656101015625,36.544576015625,108.916481015625,36.185791015625,110.474711015625,36.185791015625C111.972311015625,36.185791015625,113.195561015625,36.551491015625,114.147471015625,37.282121015625C115.097841015625,38.014291015625,115.604941015625,39.085271015625,115.666341015625,40.496591015625L112.480861015625,40.496591015625C112.41947101562499,39.961101015625,112.204991015625,39.547001015625,111.837411015625,39.252751015625C111.469071015625,38.958501015625004,110.977961015625,38.810991015625,110.364061015625,38.810991015625C109.799431015625,38.810991015625,109.343181015625,38.931611015625,108.99303101562501,39.172851015625C108.643641015625,39.415631015625,108.467811015625,39.732161015625,108.467811015625,40.123981015625C108.467811015625,40.568041015625,108.676991015625,40.891491015625,109.093831015625,41.093541015625C109.51143101562499,41.295601015625,110.296611015625,41.535301015625,111.450881015625,41.808041015625C112.174671015625,41.991661015625,112.770381015625,42.170671015625004,113.236481015625,42.348141015625C113.702591015625,42.524071015625,114.177791015625,42.776841015625,114.662841015625,43.101821015625C115.147941015625,43.428341015625,115.509441015625,43.849351015625004,115.74894101562501,44.366401015625C115.987641015625,44.881151015625,116.108141015625,45.498841015625004,116.108141015625,46.217191015625C116.108141015625,47.642291015625,115.601141015625,48.757891015625,114.588571015625,49.567591015625C113.576781015625,50.378191015625,112.284571015625,50.783091015625004,110.714211015625,50.783091015625004L110.714211015625,50.783091015625004Z" fill-rule="evenodd" fill="#000000" fill-opacity="1"/></g><g><path d="M123.507396328125,50.783091015625004C121.727856328125,50.783091015625004,120.314386328125,50.374291015625,119.264706328125,49.557691015625C118.215775328125,48.742491015625,117.673123128125,47.569391015625,117.635986328125,46.040481015625L120.912366328125,46.040481015625C121.047266328125,47.373391015625,121.906726328125,48.039491015625,123.489966328125,48.039491015625C124.078846328125,48.039491015625,124.578306328125,47.918891015625,124.989836328125,47.676091015625C125.400616328125,47.434891015625,125.606766328125,47.066891015625,125.606766328125,46.570591015625C125.606766328125,46.229491015625,125.477166328125,45.945981015625,125.220236328125,45.717031015625C124.962556328125,45.489621015625,124.701076328125,45.329821015625,124.438086328125,45.237631015625C124.174346328125,45.146971015625,123.674136328125,45.001771015624996,122.936706328125,44.805861015625C122.901076328125,44.793561015625,122.876066328125,44.783581015625,122.863946328125,44.776661015625C122.851816328125,44.770521015625,122.832116328125,44.765141015625,122.808616328125,44.758221015625C122.784366328125,44.751311015625,122.759356328125,44.748241015625,122.734346328125,44.748241015625C122.170466328125,44.604571015625,121.706636328125,44.477031015625,121.344366328125,44.366401015625C120.982846328125,44.255001015625,120.572066328125,44.085211015625,120.111266328125,43.856271015625C119.651986328125,43.628091015625,119.286676328125,43.375331015625,119.016866328125,43.101821015625C118.746306328125,42.828311015625,118.515902328125,42.464151015625,118.325670328125,42.014711015625C118.136196328125,41.564501015625,118.040702328125,41.058201015625,118.040702328125,40.496591015625C118.040702328125,39.059151015625,118.522723328125,37.981251015625,119.485246328125,37.262911015625C120.449296328125,36.544576015625,121.710426328125,36.185791015625,123.268656328125,36.185791015625C124.766256328125,36.185791015625,125.989506328125,36.551491015625,126.940656328125,37.282121015625C127.891786328125,38.014291015625,128.398086328125,39.085271015625,128.460286328125,40.496591015625L125.274806328125,40.496591015625C125.21341632812499,39.961101015625,124.998936328125,39.547001015625,124.630596328125,39.252751015625C124.262256328125,38.958501015625004,123.771906328125,38.810991015625,123.158006328125,38.810991015625C122.593376328125,38.810991015625,122.136366328125,38.931611015625,121.786216328125,39.172851015625C121.437586328125,39.415631015625,121.261756328125,39.732161015625,121.261756328125,40.123981015625C121.261756328125,40.568041015625,121.470176328125,40.891491015625,121.887016328125,41.093541015625C122.30537632812499,41.295601015625,123.090556328125,41.535301015625,124.244826328125,41.808041015625C124.968616328125,41.991661015625,125.563566328125,42.170671015625004,126.029666328125,42.348141015625C126.495776328125,42.524071015625,126.970976328125,42.776841015625,127.456786328125,43.101821015625C127.941886328125,43.428341015625,128.302586328125,43.849351015625004,128.542886328125,44.366401015625C128.781586328125,44.881151015625,128.901286328125,45.498841015625004,128.901286328125,46.217191015625C128.901286328125,47.642291015625,128.395086328125,48.757891015625,127.382516328125,49.567591015625C126.369966328125,50.378191015625,125.078516328125,50.783091015625004,123.507396328125,50.783091015625004L123.507396328125,50.783091015625004Z" fill-rule="evenodd" fill="#000000" fill-opacity="1"/></g><g><path d="M30.296181875000002,72.14759204101563L25.951171875,58.138092041015625L29.338961875,58.138092041015625L31.400431875,65.48589204101563L32.008261875,67.95513204101563L32.044641874999996,67.95513204101563C32.265951875,67.00093204101563,32.467551875,66.17811204101562,32.651721875,65.48589204101563L34.695761875,58.138092041015625L37.990371875,58.138092041015625L33.664261875,72.14759204101563L30.296181875000002,72.14759204101563Z" fill-rule="evenodd" fill="#000000" fill-opacity="1"/></g><g mask="url(#master_svg0_4252_57585)"><g><path d="M44.52131234375,72.48163837890625C42.74177234375,72.48163837890625,41.328302343749996,72.07283837890625,40.27862234375,71.25623837890625C39.22969134375,70.44023837890624,38.68703914375,69.26713837890625,38.64990234375,67.73902837890626L41.92628234375,67.73902837890626C42.06043234375,69.07193837890625,42.92064234375,69.73803837890625,44.50388234375,69.73803837890625C45.09201234375,69.73803837890625,45.59222234375,69.61673837890625,46.00375234375,69.37463837890625C46.41453234375,69.13343837890625,46.62068234375,68.76543837890625,46.62068234375,68.26833837890625C46.62068234375,67.92803837890625,46.49108234375,67.64452837890624,46.23339234375,67.41557837890625C45.976472343750004,67.18739837890625,45.71499234375,67.02836837890625,45.45200234375,66.93617837890625C45.18750234375,66.84474837890625,44.68805234375,66.70031837890625,43.95062234375,66.50440837890625C43.91499234375,66.49210837890625,43.88998234375,66.48135837890625,43.87786234375,66.47520837890625C43.86497234375,66.46906837890626,43.84603234375,66.46368837890626,43.82253234375,66.45676837890625C43.79752234375,66.44985837890624,43.77327234375,66.44678837890625,43.74826234375,66.44678837890625C43.18438234375,66.30311837890625,42.72055234375,66.17557837890625,42.35828234375,66.06494837890625C41.99676234375,65.95277837890625,41.58523234375,65.78375837890626,41.12518234375,65.55481837890625C40.66514234375,65.32663837890625,40.30059234375,65.07387837890624,40.03078234375,64.80036837890626C39.75946234375,64.52608837890625,39.52981834375,64.16269837890626,39.33958634375,63.71248837890625C39.15011234375,63.26304837890625,39.05461834375,62.75597837890625,39.05461834375,62.19436837890625C39.05461834375,60.75769837890625,39.53588134375,59.67979837890625,40.49916234375,58.96145837890625C41.46321234375,58.24235537890625,42.72358234375,57.88433837890625,44.28257234375,57.88433837890625C45.78017234375,57.88433837890625,47.00342234375,58.24927037890625,47.95457234375,58.98066837890625C48.90570234375,59.71283837890625,49.412002343750004,60.78304837890625,49.47420234375,62.19436837890625L46.28872234375,62.19436837890625C46.22657234375,61.65964837890625,46.01209234375,61.24477837890625,45.64451234375,60.95129837890625C45.27617234375,60.657048378906254,44.78582234375,60.50953837890625,44.17192234375,60.50953837890625C43.60653234375,60.50953837890625,43.15028234375,60.63015837890625,42.80013234375,60.87139837890625C42.45074234375,61.11417837890625,42.27567234375,61.43070837890625,42.27567234375,61.82175837890625C42.27567234375,62.26658837890625,42.48409234375,62.59003837890625,42.90093234375,62.79131837890625C43.31929234375,62.99414837890625,44.104472343750004,63.23307837890625,45.25874234375,63.50658837890625C45.98177234375,63.69020837890625,46.57748234375,63.869218378906254,47.04358234375,64.04668837890625C47.509692343750004,64.22185837890625,47.98489234375,64.47461837890626,48.47070234375,64.80036837890626C48.955002343749996,65.12611837890626,49.31650234375,65.54789837890625,49.55600234375,66.06494837890625C49.794702343750004,66.57969837890624,49.915202343749996,67.19661837890625,49.915202343749996,67.91573837890625C49.915202343749996,69.34013837890625,49.409002343750004,70.45643837890626,48.39643234375,71.26613837890625C47.38388234375,72.07593837890624,46.09243234375,72.48163837890625,44.52131234375,72.48163837890625L44.52131234375,72.48163837890625Z" fill-rule="evenodd" fill="#000000" fill-opacity="1"/></g></g><g><path d="M0.6257326602935791,58.13825225830078L0.6257326602935791,72.14775225830078L6.037862660293579,72.14775225830078C7.644592660293579,72.14775225830078,8.98304266029358,71.72365225830077,10.050152660293579,70.87475225830079C11.572732660293578,69.63475225830078,12.33293266029358,67.75324225830079,12.33293266029358,65.23098225830078C12.33293266029358,63.08979225830078,11.77433266029358,61.37116225830078,10.658032660293578,60.07892225830078Q8.98228266029358,58.13825225830078,6.2402126602935795,58.13825225830078L0.6257326602935791,58.13825225830078ZM5.798472660293579,69.22895225830078L3.8840326602935793,69.22895225830078L3.8840326602935793,61.039162258300784L5.8348526602935795,61.039162258300784C6.841342660293579,61.039162258300784,7.626512660293579,61.41331225830078,8.191902660293579,62.16545225830078Q9.037722660293579,63.29252225830078,9.037722660293579,65.23088225830078C9.037722660293579,66.52466225830078,8.76260266029358,67.51420225830078,8.21009266029358,68.19945225830078C7.657592660293579,68.88485225830078,6.853462660293579,69.22895225830078,5.798472660293579,69.22895225830078Z" fill-rule="evenodd" fill="#000000" fill-opacity="1"/></g><g><path d="M81.39172203125,31.8748779296875L78.09033203125,33.2961879296875L85.10692203125,50.782977929687505L88.42953203125,49.4123779296875L81.39172203125,31.8748779296875Z" fill-rule="evenodd" fill="#000000" fill-opacity="1"/></g><g mask="url(#master_svg1_4252_57589)"><g><path d="M0.625732421875,0.76824951171875L0.625732421875,28.78804951171875L70.596832421875,28.78804951171875L70.596832421875,9.77168951171875L88.562032421875,28.78804951171875L128.899732421875,28.78804951171875L128.899732421875,0.76824951171875L0.625732421875,0.76824951171875Z" fill-rule="evenodd" fill="#000000" fill-opacity="1"/></g></g><g><path d="M25.924591064453125,36.43965148925781L25.924591064453125,50.44995148925781L29.182781064453124,50.44995148925781L29.182781064453124,45.19801148925781L31.152551064453124,45.19801148925781C32.44097106445312,45.19801148925781,33.17006106445312,45.86564148925781,33.343621064453124,47.197851489257815C33.391371064453125,47.52355148925781,33.433811064453124,47.97535148925781,33.471711064453125,48.54925148925781C33.50884106445312,49.12395148925781,33.572511064453124,49.89145148925781,33.729391064453125,50.44995148925781L37.00579106445313,50.449151489257815C37.00579106445313,50.449151489257815,36.66469106445312,49.39895148925781,36.610191064453126,48.18665148925781C36.580591064453124,47.51435148925781,36.52749106445312,46.94965148925781,36.453291064453126,46.49175148925781C36.281191064453125,45.17342148925781,35.643831064453124,44.31679148925781,34.539581064453124,43.924971489257814L34.539581064453124,43.86505148925781C36.061391064453126,43.30497148925781,36.82159106445312,42.17561148925781,36.82159106445312,40.47618148925781C36.82159106445312,39.209291489257815,36.39259106445313,38.22128148925781,35.533181064453125,37.50832148925781C34.67449106445312,36.79766848925781,33.570231064453125,36.43965148925781,32.21966106445313,36.43965148925781L25.924591064453125,36.43965148925781ZM31.630891064453124,42.63207148925781L29.182891064453123,42.63207148925781L29.182891064453123,39.18327148925781L31.704411064453126,39.18327148925781C32.317541064453124,39.18327148925781,32.783651064453124,39.34384148925781,33.10424106445313,39.662681489257814C33.42180106445313,39.98458148925781,33.582471064453124,40.40560148925781,33.582471064453124,40.927261489257816C33.582471064453124,41.46275148925781,33.416491064453126,41.881461489257816,33.084531064453124,42.18109148925781C32.75333106445312,42.48225148925781,32.26904106445313,42.63207148925781,31.630891064453124,42.63207148925781Z" fill-rule="evenodd" fill="#000000" fill-opacity="1"/></g><g><path d="M14.483642578125,72.138962109375L14.483642578125,58.128662109375L24.460572578125,58.128662109375L24.460572578125,60.989722109375L17.741832578125,60.989722109375L17.741832578125,63.497382109374996L23.503342578125,63.497382109374996L23.503342578125,66.201712109375L17.741832578125,66.201712109375L17.741832578125,69.199562109375L24.571242578125002,69.199562109375L23.943682578125,72.138962109375L14.483642578125,72.138962109375Z" fill-rule="evenodd" fill="#000000" fill-opacity="1"/></g><g><path d="M51.500732421875,50.44981416015625L51.500732421875,36.43951416015625L61.477662421874996,36.43951416015625L61.477662421874996,39.30057416015625L54.758922421875,39.30057416015625L54.758922421875,41.808234160156246L60.520432421875,41.808234160156246L60.520432421875,44.51256416015625L54.758922421875,44.51256416015625L54.758922421875,47.51041416015625L61.587532421875,47.51041416015625L60.960772421875,50.44981416015625L51.500732421875,50.44981416015625Z" fill-rule="evenodd" fill="#000000" fill-opacity="1"/></g><g><path d="M93.1640625,50.44981416015625L93.1640625,36.43951416015625L103.1409925,36.43951416015625L103.1409925,39.30057416015625L96.4222525,39.30057416015625L96.4222525,41.808234160156246L102.1837625,41.808234160156246L102.1837625,44.51256416015625L96.4222525,44.51256416015625L96.4222525,47.51041416015625L103.2516625,47.51041416015625L102.62410249999999,50.44981416015625L93.1640625,50.44981416015625Z" fill-rule="evenodd" fill="#000000" fill-opacity="1"/></g></g></svg>