<svg xmlns="http://www.w3.org/2000/svg" xmlns:xlink="http://www.w3.org/1999/xlink" width="552.75" height="296" viewBox="0 0 552.75 296" fill="none">
<path     fill="url(#linear_fill_36A10D9D-9FF0-4D9D-B7D9-8CCA36C71C74_0)"  d="M304.75 280L304.75 75L0.75 75L0.75 280L304.75 280">
</path>
<path     fill="#141414"  d="M304.75 93.427L304.75 75L0.75 75L0.75 93.427L304.75 93.427">
</path>
<path   fill="url(#linear_border_01291AD1-099C-457A-96C8-DE1FB1061DDD_0)"  d="M0 280L0 74.25L305.5 74.25L305.5 280L304 280L304 75L304.75 75L304.75 75.75L0.75 75.75L0.75 75L1.5 75L1.5 280L0 280ZM0.75 74.25L0.75 75L0 75L0 74.25L0.75 74.25ZM305.5 75L304.75 75L304.75 74.25L305.5 74.25L305.5 75Z">
</path>
<path    stroke="rgba(44, 44, 44, 1)" stroke-width="1.5"    d="M0.75 93.427L304.75 93.427">
</path>
<ellipse cx="13.416703939437866" cy="84.02414846420288" rx="3.454545736312866" ry="3.455056667327881"   fill="#535353" >
</ellipse>
<ellipse cx="22.628862142562866" cy="84.02414846420288" rx="3.454545736312866" ry="3.455056667327881"   fill="#535353" >
</ellipse>
<ellipse cx="31.841020345687866" cy="84.02414846420288" rx="3.454545736312866" ry="3.455056667327881"   fill="#535353" >
</ellipse>
<ellipse cx="35.29556608200073" cy="111.85396099090576" rx="6.90909147262573" ry="6.91011333465576"   fill="#464646" >
</ellipse>
<rect  x="189.598388671875" y="111.85400390625" width="23.03030586242676" height="2.303370714187622" rx="1"    fill="#343434" >
</rect>
<rect  x="28.386474609375" y="171.74169921875" width="43.7575798034668" height="2.303370714187622" rx="1"    fill="#343434" >
</rect>
<rect  x="28.386474609375" y="183.258544921875" width="29.93939590454102" height="2.303370714187622" rx="1"    fill="#343434" >
</rect>
<rect  x="69.8408203125" y="183.258544921875" width="46.06061172485352" height="2.303370714187622" rx="1"    fill="#343434" >
</rect>
<rect  x="127.416748046875" y="183.258544921875" width="13.81818294525146" height="2.303370714187622" rx="1"    fill="#343434" >
</rect>
<rect  x="83.6591796875" y="171.74169921875" width="34.54545593261719" height="2.303370714187622" rx="1"    fill="#343434" >
</rect>
<rect  x="129.7197265625" y="171.74169921875" width="34.54545593261719" height="2.303370714187622" rx="1"    fill="#343434" >
</rect>
<rect  x="224.14404296875" y="111.85400390625" width="23.03030586242676" height="2.303370714187622" rx="1"    fill="#343434" >
</rect>
<rect  x="260.992431640625" y="111.85400390625" width="23.03030586242676" height="2.303370714187622" rx="1"    fill="#343434" >
</rect>
<g >
<path     fill="#535353"  d="M28.7617 147.285L28.7617 137.332L31.7012 137.332Q33.0205 137.332 34.0425 137.92Q35.0645 138.508 35.625 139.588Q36.1855 140.668 36.1855 142.062L36.1855 142.562Q36.1855 143.977 35.6216 145.05Q35.0576 146.123 34.0151 146.704Q32.9727 147.285 31.626 147.285L28.7617 147.285ZM30.4912 138.727L30.4912 145.904L31.6191 145.904Q32.9795 145.904 33.7075 145.053Q34.4355 144.202 34.4492 142.609L34.4492 142.056Q34.4492 140.436 33.7451 139.581Q33.041 138.727 31.7012 138.727L30.4912 138.727ZM41.0049 147.422Q39.4258 147.422 38.4448 146.427Q37.4639 145.433 37.4639 143.778L37.4639 143.573Q37.4639 142.466 37.8911 141.594Q38.3184 140.723 39.0908 140.237Q39.8633 139.752 40.8135 139.752Q42.3242 139.752 43.1479 140.716Q43.9717 141.68 43.9717 143.443L43.9717 144.113L39.1387 144.113Q39.2139 145.029 39.7505 145.562Q40.2871 146.096 41.1006 146.096Q42.2422 146.096 42.96 145.173L43.8555 146.027Q43.4111 146.69 42.6694 147.056Q41.9277 147.422 41.0049 147.422ZM40.8066 141.085Q40.123 141.085 39.7026 141.563Q39.2822 142.042 39.166 142.896L42.3311 142.896L42.3311 142.773Q42.2764 141.939 41.8867 141.512Q41.4971 141.085 40.8066 141.085ZM47.8682 145.18L49.4336 139.889L51.1494 139.889L48.5859 147.285L47.1436 147.285L44.5596 139.889L46.2822 139.889L47.8682 145.18ZM55.4424 147.422Q53.8633 147.422 52.8823 146.427Q51.9014 145.433 51.9014 143.778L51.9014 143.573Q51.9014 142.466 52.3286 141.594Q52.7559 140.723 53.5283 140.237Q54.3008 139.752 55.251 139.752Q56.7617 139.752 57.5854 140.716Q58.4092 141.68 58.4092 143.443L58.4092 144.113L53.5762 144.113Q53.6514 145.029 54.188 145.562Q54.7246 146.096 55.5381 146.096Q56.6797 146.096 57.3975 145.173L58.293 146.027Q57.8486 146.69 57.1069 147.056Q56.3652 147.422 55.4424 147.422ZM55.2441 141.085Q54.5605 141.085 54.1401 141.563Q53.7197 142.042 53.6035 142.896L56.7686 142.896L56.7686 142.773Q56.7139 141.939 56.3242 141.512Q55.9346 141.085 55.2441 141.085ZM61.4648 147.285L59.8037 147.285L59.8037 136.785L61.4648 136.785L61.4648 147.285ZM62.9619 143.519Q62.9619 142.432 63.3926 141.56Q63.8232 140.688 64.6025 140.22Q65.3818 139.752 66.3936 139.752Q67.8906 139.752 68.8237 140.716Q69.7568 141.68 69.832 143.272L69.8389 143.662Q69.8389 144.756 69.4185 145.617Q68.998 146.479 68.2153 146.95Q67.4326 147.422 66.4072 147.422Q64.8418 147.422 63.9019 146.379Q62.9619 145.337 62.9619 143.601L62.9619 143.519ZM64.623 143.662Q64.623 144.804 65.0947 145.45Q65.5664 146.096 66.4072 146.096Q67.248 146.096 67.7163 145.439Q68.1846 144.783 68.1846 143.519Q68.1846 142.397 67.7026 141.741Q67.2207 141.085 66.3936 141.085Q65.5801 141.085 65.1016 141.731Q64.623 142.377 64.623 143.662ZM77.7207 143.662Q77.7207 145.378 76.9414 146.4Q76.1621 147.422 74.8496 147.422Q73.6328 147.422 72.9014 146.622L72.9014 150.129L71.2402 150.129L71.2402 139.889L72.7715 139.889L72.8398 140.641Q73.5713 139.752 74.8291 139.752Q76.1826 139.752 76.9517 140.76Q77.7207 141.769 77.7207 143.56L77.7207 143.662ZM76.0664 143.519Q76.0664 142.411 75.6255 141.762Q75.1846 141.112 74.3643 141.112Q73.3457 141.112 72.9014 141.953L72.9014 145.234Q73.3525 146.096 74.3779 146.096Q75.1709 146.096 75.6187 145.457Q76.0664 144.817 76.0664 143.519ZM80.6875 139.889L80.7354 140.661Q81.5146 139.752 82.8682 139.752Q84.3516 139.752 84.8984 140.887Q85.7051 139.752 87.168 139.752Q88.3916 139.752 88.9897 140.429Q89.5879 141.105 89.6016 142.425L89.6016 147.285L87.9404 147.285L87.9404 142.473Q87.9404 141.769 87.6328 141.44Q87.3252 141.112 86.6143 141.112Q86.0469 141.112 85.688 141.417Q85.3291 141.721 85.1855 142.213L85.1924 147.285L83.5312 147.285L83.5312 142.418Q83.4971 141.112 82.1982 141.112Q81.2002 141.112 80.7832 141.926L80.7832 147.285L79.1221 147.285L79.1221 139.889L80.6875 139.889ZM94.5645 147.422Q92.9854 147.422 92.0044 146.427Q91.0234 145.433 91.0234 143.778L91.0234 143.573Q91.0234 142.466 91.4507 141.594Q91.8779 140.723 92.6504 140.237Q93.4229 139.752 94.373 139.752Q95.8838 139.752 96.7075 140.716Q97.5312 141.68 97.5312 143.443L97.5312 144.113L92.6982 144.113Q92.7734 145.029 93.3101 145.562Q93.8467 146.096 94.6602 146.096Q95.8018 146.096 96.5195 145.173L97.415 146.027Q96.9707 146.69 96.229 147.056Q95.4873 147.422 94.5645 147.422ZM94.3662 141.085Q93.6826 141.085 93.2622 141.563Q92.8418 142.042 92.7256 142.896L95.8906 142.896L95.8906 142.773Q95.8359 141.939 95.4463 141.512Q95.0566 141.085 94.3662 141.085ZM100.361 139.889L100.409 140.743Q101.229 139.752 102.562 139.752Q104.873 139.752 104.914 142.397L104.914 147.285L103.253 147.285L103.253 142.493Q103.253 141.789 102.949 141.451Q102.645 141.112 101.954 141.112Q100.949 141.112 100.457 142.021L100.457 147.285L98.7959 147.285L98.7959 139.889L100.361 139.889ZM108.688 138.091L108.688 139.889L109.993 139.889L109.993 141.119L108.688 141.119L108.688 145.248Q108.688 145.672 108.855 145.86Q109.022 146.048 109.453 146.048Q109.74 146.048 110.034 145.979L110.034 147.265Q109.467 147.422 108.94 147.422Q107.026 147.422 107.026 145.31L107.026 141.119L105.81 141.119L105.81 139.889L107.026 139.889L107.026 138.091L108.688 138.091ZM119.146 147.285Q119.037 147.073 118.955 146.595Q118.162 147.422 117.014 147.422Q115.899 147.422 115.195 146.786Q114.491 146.15 114.491 145.214Q114.491 144.031 115.37 143.399Q116.248 142.767 117.882 142.767L118.9 142.767L118.9 142.281Q118.9 141.707 118.579 141.362Q118.258 141.017 117.602 141.017Q117.034 141.017 116.672 141.3Q116.31 141.584 116.31 142.021L114.648 142.021Q114.648 141.413 115.052 140.883Q115.455 140.354 116.149 140.053Q116.843 139.752 117.697 139.752Q118.996 139.752 119.769 140.405Q120.541 141.058 120.562 142.24L120.562 145.576Q120.562 146.574 120.842 147.169L120.842 147.285L119.146 147.285ZM117.321 146.089Q117.813 146.089 118.248 145.85Q118.682 145.61 118.9 145.207L118.9 143.812L118.005 143.812Q117.082 143.812 116.617 144.134Q116.152 144.455 116.152 145.043Q116.152 145.521 116.47 145.805Q116.788 146.089 117.321 146.089ZM123.843 139.889L123.891 140.743Q124.711 139.752 126.044 139.752Q128.354 139.752 128.396 142.397L128.396 147.285L126.734 147.285L126.734 142.493Q126.734 141.789 126.43 141.451Q126.126 141.112 125.436 141.112Q124.431 141.112 123.938 142.021L123.938 147.285L122.277 147.285L122.277 139.889L123.843 139.889ZM129.776 143.532Q129.776 141.823 130.569 140.788Q131.362 139.752 132.695 139.752Q133.871 139.752 134.596 140.572L134.596 136.785L136.257 136.785L136.257 147.285L134.753 147.285L134.671 146.52Q133.926 147.422 132.682 147.422Q131.383 147.422 130.58 146.376Q129.776 145.33 129.776 143.532ZM131.438 143.676Q131.438 144.804 131.872 145.436Q132.306 146.068 133.105 146.068Q134.124 146.068 134.596 145.159L134.596 142.001Q134.138 141.112 133.119 141.112Q132.312 141.112 131.875 141.751Q131.438 142.391 131.438 143.676ZM141.145 143.532Q141.145 141.823 141.938 140.788Q142.73 139.752 144.063 139.752Q145.239 139.752 145.964 140.572L145.964 136.785L147.625 136.785L147.625 147.285L146.121 147.285L146.039 146.52Q145.294 147.422 144.05 147.422Q142.751 147.422 141.948 146.376Q141.145 145.33 141.145 143.532ZM142.806 143.676Q142.806 144.804 143.24 145.436Q143.674 146.068 144.474 146.068Q145.492 146.068 145.964 145.159L145.964 142.001Q145.506 141.112 144.487 141.112Q143.681 141.112 143.243 141.751Q142.806 142.391 142.806 143.676ZM152.615 147.422Q151.036 147.422 150.055 146.427Q149.074 145.433 149.074 143.778L149.074 143.573Q149.074 142.466 149.501 141.594Q149.929 140.723 150.701 140.237Q151.474 139.752 152.424 139.752Q153.935 139.752 154.758 140.716Q155.582 141.68 155.582 143.443L155.582 144.113L150.749 144.113Q150.824 145.029 151.361 145.562Q151.897 146.096 152.711 146.096Q153.853 146.096 154.57 145.173L155.466 146.027Q155.021 146.69 154.28 147.056Q153.538 147.422 152.615 147.422ZM152.417 141.085Q151.733 141.085 151.313 141.563Q150.893 142.042 150.776 142.896L153.941 142.896L153.941 142.773Q153.887 141.939 153.497 141.512Q153.107 141.085 152.417 141.085ZM163.348 143.662Q163.348 145.378 162.568 146.4Q161.789 147.422 160.477 147.422Q159.26 147.422 158.528 146.622L158.528 150.129L156.867 150.129L156.867 139.889L158.398 139.889L158.467 140.641Q159.198 139.752 160.456 139.752Q161.81 139.752 162.579 140.76Q163.348 141.769 163.348 143.56L163.348 143.662ZM161.693 143.519Q161.693 142.411 161.252 141.762Q160.812 141.112 159.991 141.112Q158.973 141.112 158.528 141.953L158.528 145.234Q158.979 146.096 160.005 146.096Q160.798 146.096 161.246 145.457Q161.693 144.817 161.693 143.519ZM166.52 147.285L164.858 147.285L164.858 136.785L166.52 136.785L166.52 147.285ZM168.017 143.519Q168.017 142.432 168.447 141.56Q168.878 140.688 169.657 140.22Q170.437 139.752 171.448 139.752Q172.945 139.752 173.878 140.716Q174.812 141.68 174.887 143.272L174.894 143.662Q174.894 144.756 174.473 145.617Q174.053 146.479 173.27 146.95Q172.487 147.422 171.462 147.422Q169.896 147.422 168.957 146.379Q168.017 145.337 168.017 143.601L168.017 143.519ZM169.678 143.662Q169.678 144.804 170.149 145.45Q170.621 146.096 171.462 146.096Q172.303 146.096 172.771 145.439Q173.239 144.783 173.239 143.519Q173.239 142.397 172.757 141.741Q172.275 141.085 171.448 141.085Q170.635 141.085 170.156 141.731Q169.678 142.377 169.678 143.662ZM178.886 144.906L180.39 139.889L182.16 139.889L179.221 148.406Q178.544 150.272 176.924 150.272Q176.562 150.272 176.124 150.149L176.124 148.864L176.438 148.885Q177.067 148.885 177.385 148.656Q177.703 148.427 177.888 147.887L178.127 147.251L175.529 139.889L177.32 139.889L178.886 144.906ZM184.676 139.889L184.724 140.661Q185.503 139.752 186.856 139.752Q188.34 139.752 188.887 140.887Q189.693 139.752 191.156 139.752Q192.38 139.752 192.978 140.429Q193.576 141.105 193.59 142.425L193.59 147.285L191.929 147.285L191.929 142.473Q191.929 141.769 191.621 141.44Q191.313 141.112 190.603 141.112Q190.035 141.112 189.676 141.417Q189.317 141.721 189.174 142.213L189.181 147.285L187.52 147.285L187.52 142.418Q187.485 141.112 186.187 141.112Q185.188 141.112 184.771 141.926L184.771 147.285L183.11 147.285L183.11 139.889L184.676 139.889ZM198.553 147.422Q196.974 147.422 195.993 146.427Q195.012 145.433 195.012 143.778L195.012 143.573Q195.012 142.466 195.439 141.594Q195.866 140.723 196.639 140.237Q197.411 139.752 198.361 139.752Q199.872 139.752 200.696 140.716Q201.52 141.68 201.52 143.443L201.52 144.113L196.687 144.113Q196.762 145.029 197.298 145.562Q197.835 146.096 198.648 146.096Q199.79 146.096 200.508 145.173L201.403 146.027Q200.959 146.69 200.217 147.056Q199.476 147.422 198.553 147.422ZM198.354 141.085Q197.671 141.085 197.25 141.563Q196.83 142.042 196.714 142.896L199.879 142.896L199.879 142.773Q199.824 141.939 199.435 141.512Q199.045 141.085 198.354 141.085ZM204.35 139.889L204.397 140.743Q205.218 139.752 206.551 139.752Q208.861 139.752 208.902 142.397L208.902 147.285L207.241 147.285L207.241 142.493Q207.241 141.789 206.937 141.451Q206.633 141.112 205.942 141.112Q204.938 141.112 204.445 142.021L204.445 147.285L202.784 147.285L202.784 139.889L204.35 139.889ZM212.676 138.091L212.676 139.889L213.981 139.889L213.981 141.119L212.676 141.119L212.676 145.248Q212.676 145.672 212.843 145.86Q213.011 146.048 213.441 146.048Q213.729 146.048 214.022 145.979L214.022 147.265Q213.455 147.422 212.929 147.422Q211.015 147.422 211.015 145.31L211.015 141.119L209.798 141.119L209.798 139.889L211.015 139.889L211.015 138.091L212.676 138.091ZM225.192 143.662Q225.192 145.378 224.413 146.4Q223.634 147.422 222.321 147.422Q221.104 147.422 220.373 146.622L220.373 150.129L218.712 150.129L218.712 139.889L220.243 139.889L220.312 140.641Q221.043 139.752 222.301 139.752Q223.654 139.752 224.423 140.76Q225.192 141.769 225.192 143.56L225.192 143.662ZM223.538 143.519Q223.538 142.411 223.097 141.762Q222.656 141.112 221.836 141.112Q220.817 141.112 220.373 141.953L220.373 145.234Q220.824 146.096 221.85 146.096Q222.643 146.096 223.09 145.457Q223.538 144.817 223.538 143.519ZM228.364 147.285L226.703 147.285L226.703 136.785L228.364 136.785L228.364 147.285ZM234.592 147.285Q234.482 147.073 234.4 146.595Q233.607 147.422 232.459 147.422Q231.345 147.422 230.641 146.786Q229.937 146.15 229.937 145.214Q229.937 144.031 230.815 143.399Q231.693 142.767 233.327 142.767L234.346 142.767L234.346 142.281Q234.346 141.707 234.024 141.362Q233.703 141.017 233.047 141.017Q232.479 141.017 232.117 141.3Q231.755 141.584 231.755 142.021L230.094 142.021Q230.094 141.413 230.497 140.883Q230.9 140.354 231.594 140.053Q232.288 139.752 233.143 139.752Q234.441 139.752 235.214 140.405Q235.986 141.058 236.007 142.24L236.007 145.576Q236.007 146.574 236.287 147.169L236.287 147.285L234.592 147.285ZM232.767 146.089Q233.259 146.089 233.693 145.85Q234.127 145.61 234.346 145.207L234.346 143.812L233.45 143.812Q232.527 143.812 232.062 144.134Q231.598 144.455 231.598 145.043Q231.598 145.521 231.916 145.805Q232.233 146.089 232.767 146.089ZM239.828 138.091L239.828 139.889L241.134 139.889L241.134 141.119L239.828 141.119L239.828 145.248Q239.828 145.672 239.996 145.86Q240.163 146.048 240.594 146.048Q240.881 146.048 241.175 145.979L241.175 147.265Q240.607 147.422 240.081 147.422Q238.167 147.422 238.167 145.31L238.167 141.119L236.95 141.119L236.95 139.889L238.167 139.889L238.167 138.091L239.828 138.091ZM242.986 147.285L242.986 141.119L241.858 141.119L241.858 139.889L242.986 139.889L242.986 139.212Q242.986 137.981 243.67 137.312Q244.354 136.642 245.584 136.642Q246.021 136.642 246.514 136.765L246.473 138.063Q246.199 138.009 245.837 138.009Q244.647 138.009 244.647 139.232L244.647 139.889L246.151 139.889L246.151 141.119L244.647 141.119L244.647 147.285L242.986 147.285ZM247.054 143.519Q247.054 142.432 247.484 141.56Q247.915 140.688 248.694 140.22Q249.474 139.752 250.485 139.752Q251.982 139.752 252.916 140.716Q253.849 141.68 253.924 143.272L253.931 143.662Q253.931 144.756 253.51 145.617Q253.09 146.479 252.307 146.95Q251.524 147.422 250.499 147.422Q248.934 147.422 247.994 146.379Q247.054 145.337 247.054 143.601L247.054 143.519ZM248.715 143.662Q248.715 144.804 249.187 145.45Q249.658 146.096 250.499 146.096Q251.34 146.096 251.808 145.439Q252.276 144.783 252.276 143.519Q252.276 142.397 251.794 141.741Q251.312 141.085 250.485 141.085Q249.672 141.085 249.193 141.731Q248.715 142.377 248.715 143.662ZM259.208 141.406Q258.88 141.352 258.531 141.352Q257.39 141.352 256.993 142.227L256.993 147.285L255.332 147.285L255.332 139.889L256.918 139.889L256.959 140.716Q257.561 139.752 258.627 139.752Q258.982 139.752 259.215 139.848L259.208 141.406ZM261.819 139.889L261.867 140.661Q262.646 139.752 264 139.752Q265.483 139.752 266.03 140.887Q266.837 139.752 268.3 139.752Q269.523 139.752 270.122 140.429Q270.72 141.105 270.733 142.425L270.733 147.285L269.072 147.285L269.072 142.473Q269.072 141.769 268.765 141.44Q268.457 141.112 267.746 141.112Q267.179 141.112 266.82 141.417Q266.461 141.721 266.317 142.213L266.324 147.285L264.663 147.285L264.663 142.418Q264.629 141.112 263.33 141.112Q262.332 141.112 261.915 141.926L261.915 147.285L260.254 147.285L260.254 139.889L261.819 139.889Z">
</path>
</g>
<rect  x="28.386474609375" y="208.595703125" width="64.48485565185547" height="20.73033905029297" rx="4"    fill="#2C2C2C" >
</rect>
<g filter="url(#filter_03E68752-1577-4EAB-B748-38BF5F6B83EE)">
<path fill-rule="evenodd"  fill="rgba(44, 44, 44, 1)"  d="M144.144 208.596L108.386 208.596C106.177 208.596 104.386 210.387 104.386 212.596L104.386 225.326C104.386 227.535 106.177 229.326 108.386 229.326L144.144 229.326C146.353 229.326 148.144 227.535 148.144 225.326L148.144 212.596C148.144 210.387 146.353 208.596 144.144 208.596ZM105.386 212.596C105.386 210.939 106.73 209.596 108.386 209.596L144.144 209.596C145.801 209.596 147.144 210.939 147.144 212.596L147.144 225.326C147.144 226.983 145.801 228.326 144.144 228.326L108.386 228.326C106.73 228.326 105.386 226.983 105.386 225.326L105.386 212.596Z">
</path>
</g>
<rect  x="42.20458984375" y="217.80908203125" width="36.84848785400391" height="2.303370714187622" rx="1"    fill="#535353" >
</rect>
<rect  x="118.20458984375" y="217.80908203125" width="16.12121391296387" height="2.303370714187622" rx="1"    fill="#535353" >
</rect>
<g filter="url(#filter_60C7A69E-D76F-4985-BB8C-6B5586CBD5B9)">
<rect  x="176.75" y="159" width="207" height="123" rx="4"    fill="#1D1D1D" >
</rect>
<path fill-rule="evenodd"  fill="rgba(73, 73, 73, 1)"  d="M379.75 159L180.75 159C178.541 159 176.75 160.791 176.75 163L176.75 278C176.75 280.209 178.541 282 180.75 282L379.75 282C381.959 282 383.75 280.209 383.75 278L383.75 163C383.75 160.791 381.959 159 379.75 159ZM177.75 163C177.75 161.343 179.093 160 180.75 160L379.75 160C381.407 160 382.75 161.343 382.75 163L382.75 278C382.75 279.657 381.407 281 379.75 281L180.75 281C179.093 281 177.75 279.657 177.75 278L177.75 163Z">
</path>
</g>
<rect  x="210.75" y="236" width="64.48485565185547" height="20.73033905029297" rx="4"    fill="#494949" >
</rect>
<g filter="url(#filter_B06E6F5E-3CAB-49D7-A9C7-5E1E46E3AFAB)">
<path fill-rule="evenodd"  fill="rgba(73, 73, 73, 1)"  d="M346.75 236L290.75 236C288.541 236 286.75 237.791 286.75 240L286.75 253C286.75 255.209 288.541 257 290.75 257L346.75 257C348.959 257 350.75 255.209 350.75 253L350.75 240C350.75 237.791 348.959 236 346.75 236ZM287.75 240C287.75 238.343 289.093 237 290.75 237L346.75 237C348.407 237 349.75 238.343 349.75 240L349.75 253C349.75 254.657 348.407 256 346.75 256L290.75 256C289.093 256 287.75 254.657 287.75 253L287.75 240Z">
</path>
</g>
<rect  x="224.75" y="245" width="36.84848785400391" height="2.303370714187622" rx="1"    fill="#2F2F2F" >
</rect>
<rect  x="307.75" y="245" width="23" height="2" rx="1"    fill="#535353" >
</rect>
<rect  x="264.75" y="220" width="31" height="2" rx="1"    fill="#535353" >
</rect>
<rect  x="224.75" y="220" width="31" height="2" rx="1"    fill="#535353" >
</rect>
<rect  x="304.75" y="220" width="31" height="2" rx="1"    fill="#535353" >
</rect>
<rect  x="369.45703125" y="167" width="8" height="1" transform="rotate(45 369.45703125 167)" rx="0.5"    fill="#535353" >
</rect>
<rect  x="368.75" y="172.65673828125" width="8" height="1" transform="rotate(-45 368.75 172.65673828125)" rx="0.5"    fill="#535353" >
</rect>
<circle cx="280.75" cy="185" r="10"   fill="#272DF4" >
</circle>
<rect  x="258.75" y="205" width="43.7575798034668" height="3" rx="1.5"    fill="#272DF4" >
</rect>
<g filter="url(#filter_976D40B7-8B40-48C3-92DD-23FA340724B6)">
<rect  x="335.75" y="80" width="207" height="110" rx="4"    fill="#1D1D1D" >
</rect>
<path fill-rule="evenodd"  fill="rgba(73, 73, 73, 1)"  d="M538.75 80L339.75 80C337.541 80 335.75 81.7909 335.75 84L335.75 186C335.75 188.209 337.541 190 339.75 190L538.75 190C540.959 190 542.75 188.209 542.75 186L542.75 84C542.75 81.7909 540.959 80 538.75 80ZM336.75 84C336.75 82.3431 338.093 81 339.75 81L538.75 81C540.407 81 541.75 82.3431 541.75 84L541.75 186C541.75 187.657 540.407 189 538.75 189L339.75 189C338.093 189 336.75 187.657 336.75 186L336.75 84Z">
</path>
</g>
<path d="M366.712 110.151C366.713 108.742 367.856 107.6 369.265 107.6L396.361 107.6C397.771 107.601 398.912 108.744 398.912 110.153L401.212 141.849C401.212 143.257 400.071 144.4 398.661 144.4L366.965 144.4C365.555 144.4 364.412 143.257 364.412 141.847L366.712 110.151ZM392.267 116.379C393.406 116.379 394.329 117.303 394.328 118.442C394.32 119.199 393.895 119.889 393.222 120.236C393.054 125.798 388.505 130.278 382.904 130.278C377.315 130.278 372.777 125.821 372.589 120.278C371.72 119.866 371.255 118.905 371.472 117.968C371.688 117.031 372.527 116.371 373.488 116.382C374.626 116.382 375.549 117.304 375.549 118.442C375.545 119.023 375.294 119.574 374.859 119.958C374.88 124.389 378.475 127.972 382.906 127.978C387.324 127.972 390.912 124.409 390.95 119.993C390.484 119.611 390.212 119.044 390.207 118.442C390.206 117.303 391.128 116.379 392.267 116.379Z" fill-rule="evenodd"  fill="#464646" >
</path>
<rect  x="424.75" y="154" width="64.48485565185547" height="20.73033905029297" rx="4"    fill="#272DF4" >
</rect>
<g filter="url(#filter_397D60F1-79EE-49D1-AFF6-C1CA0ADBF42E)">
<path fill-rule="evenodd"  fill="rgba(73, 73, 73, 1)"  d="M410.75 94L354.75 94C352.541 94 350.75 95.7909 350.75 98L350.75 171C350.75 173.209 352.541 175 354.75 175L410.75 175C412.959 175 414.75 173.209 414.75 171L414.75 98C414.75 95.7909 412.959 94 410.75 94ZM351.75 98C351.75 96.3431 353.093 95 354.75 95L410.75 95C412.407 95 413.75 96.3431 413.75 98L413.75 171C413.75 172.657 412.407 174 410.75 174L354.75 174C353.093 174 351.75 172.657 351.75 171L351.75 98Z">
</path>
</g>
<rect  x="438.75" y="163" width="36.84848785400391" height="2.303370714187622" rx="1"    fill="#2F2F2F" >
</rect>
<rect  x="488.75" y="117" width="23" height="2" rx="1"    fill="#535353" >
</rect>
<rect  x="426.75" y="117" width="19" height="2" rx="1"    fill="#535353" >
</rect>
<rect  x="463.75" y="130" width="19" height="2" rx="1"    fill="#535353" >
</rect>
<rect  x="367.75" y="159" width="31" height="2" rx="1"    fill="#535353" >
</rect>
<rect  x="367.75" y="152" width="31" height="2" rx="1"    fill="#535353" >
</rect>
<rect  x="451.75" y="117" width="31" height="2" rx="1"    fill="#535353" >
</rect>
<rect  x="488.75" y="131" width="31" height="2" rx="1"    fill="#535353" >
</rect>
<rect  x="426.75" y="130" width="31" height="2" rx="1"    fill="#535353" >
</rect>
<rect  x="528.45703125" y="88" width="8" height="1" transform="rotate(45 528.45703125 88)" rx="0.5"    fill="#535353" >
</rect>
<rect  x="527.75" y="93.65673828125" width="8" height="1" transform="rotate(-45 527.75 93.65673828125)" rx="0.5"    fill="#535353" >
</rect>
<rect  x="426.75" y="103" width="43.7575798034668" height="3" rx="1.5"    fill="#5C6170" >
</rect>
<g filter="url(#filter_ABA41068-E31F-4A08-9B18-508E5D539A5C)">
<rect  x="181.75" y="6" width="207" height="53" rx="4"    fill="#1D1D1D" >
</rect>
<path fill-rule="evenodd"  fill="rgba(73, 73, 73, 1)"  d="M384.75 6L185.75 6C183.541 6 181.75 7.79086 181.75 10L181.75 55C181.75 57.2091 183.541 59 185.75 59L384.75 59C386.959 59 388.75 57.2091 388.75 55L388.75 10C388.75 7.79086 386.959 6 384.75 6ZM182.75 10C182.75 8.34315 184.093 7 185.75 7L384.75 7C386.407 7 387.75 8.34315 387.75 10L387.75 55C387.75 56.6569 386.407 58 384.75 58L185.75 58C184.093 58 182.75 56.6569 182.75 55L182.75 10Z">
</path>
</g>
<rect  x="229.75" y="38" width="75" height="2" rx="1"    fill="#535353" >
</rect>
<rect  x="368.45703125" y="29" width="8" height="1" transform="rotate(45 368.45703125 29)" rx="0.5"    fill="#535353" >
</rect>
<rect  x="367.75" y="34.65673828125" width="8" height="1" transform="rotate(-45 367.75 34.65673828125)" rx="0.5"    fill="#535353" >
</rect>
<circle cx="208.75" cy="33" r="10"   fill="#272DF4" >
</circle>
<rect  x="229.75" y="25" width="43.7575798034668" height="3" rx="1.5"    fill="#272DF4" >
</rect>
<defs>
<linearGradient id="linear_fill_36A10D9D-9FF0-4D9D-B7D9-8CCA36C71C74_0" x1="152.75" y1="107.820556640625" x2="152.75" y2="280" gradientUnits="userSpaceOnUse">
<stop offset="0" stop-color="#121316"  />
<stop offset="1" stop-color="#121316"  />
</linearGradient>
<linearGradient id="linear_border_01291AD1-099C-457A-96C8-DE1FB1061DDD_0" x1="152.75" y1="75" x2="152.75" y2="280" gradientUnits="userSpaceOnUse">
<stop offset="0" stop-color="#2C2C2C"  />
<stop offset="1" stop-color="#2C2C2C" stop-opacity="0" />
</linearGradient>
<filter id="filter_03E68752-1577-4EAB-B748-38BF5F6B83EE" x="100.386474609375" y="208.595703125" width="51.757568359375" height="28.73046875" filterUnits="userSpaceOnUse" color-interpolation-filters="sRGB">
<feFlood flood-opacity="0" result="feFloodId_03E68752-1577-4EAB-B748-38BF5F6B83EE"/>
<feColorMatrix in="SourceAlpha" type="matrix" values="0 0 0 0 0 0 0 0 0 0 0 0 0 0 0 0 0 0 127 0" result="hardAlpha_03E68752-1577-4EAB-B748-38BF5F6B83EE"/>
<feOffset dx="0" dy="4"/>
<feGaussianBlur stdDeviation="2"/>
<feComposite in2="hardAlpha_03E68752-1577-4EAB-B748-38BF5F6B83EE" operator="out"/>
<feColorMatrix type="matrix" values="0 0 0 0 0 0 0 0 0 0 0 0 0 0 0 0 0 0 0.01 0"/>
<feBlend mode="normal" in2="feFloodId_03E68752-1577-4EAB-B748-38BF5F6B83EE" result="dropShadow_1_03E68752-1577-4EAB-B748-38BF5F6B83EE"/>
<feBlend mode="normal" in="SourceGraphic" in2="dropShadow_1_03E68752-1577-4EAB-B748-38BF5F6B83EE" result="shape_03E68752-1577-4EAB-B748-38BF5F6B83EE"/>
</filter>
<filter id="filter_60C7A69E-D76F-4985-BB8C-6B5586CBD5B9" x="166.75" y="153" width="227" height="143" filterUnits="userSpaceOnUse" color-interpolation-filters="sRGB">
<feFlood flood-opacity="0" result="feFloodId_60C7A69E-D76F-4985-BB8C-6B5586CBD5B9"/>
<feColorMatrix in="SourceAlpha" type="matrix" values="0 0 0 0 0 0 0 0 0 0 0 0 0 0 0 0 0 0 127 0" result="hardAlpha_60C7A69E-D76F-4985-BB8C-6B5586CBD5B9"/>
<feOffset dx="0" dy="4"/>
<feGaussianBlur stdDeviation="5"/>
<feComposite in2="hardAlpha_60C7A69E-D76F-4985-BB8C-6B5586CBD5B9" operator="out"/>
<feColorMatrix type="matrix" values="0 0 0 0 0.42745098039215684 0 0 0 0 0.42745098039215684 0 0 0 0 0.42745098039215684 0 0 0 0.3 0"/>
<feBlend mode="normal" in2="feFloodId_60C7A69E-D76F-4985-BB8C-6B5586CBD5B9" result="dropShadow_1_60C7A69E-D76F-4985-BB8C-6B5586CBD5B9"/>
<feBlend mode="normal" in="SourceGraphic" in2="dropShadow_1_60C7A69E-D76F-4985-BB8C-6B5586CBD5B9" result="shape_60C7A69E-D76F-4985-BB8C-6B5586CBD5B9"/>
</filter>
<filter id="filter_B06E6F5E-3CAB-49D7-A9C7-5E1E46E3AFAB" x="282.75" y="236" width="72" height="29" filterUnits="userSpaceOnUse" color-interpolation-filters="sRGB">
<feFlood flood-opacity="0" result="feFloodId_B06E6F5E-3CAB-49D7-A9C7-5E1E46E3AFAB"/>
<feColorMatrix in="SourceAlpha" type="matrix" values="0 0 0 0 0 0 0 0 0 0 0 0 0 0 0 0 0 0 127 0" result="hardAlpha_B06E6F5E-3CAB-49D7-A9C7-5E1E46E3AFAB"/>
<feOffset dx="0" dy="4"/>
<feGaussianBlur stdDeviation="2"/>
<feComposite in2="hardAlpha_B06E6F5E-3CAB-49D7-A9C7-5E1E46E3AFAB" operator="out"/>
<feColorMatrix type="matrix" values="0 0 0 0 0 0 0 0 0 0 0 0 0 0 0 0 0 0 0.01 0"/>
<feBlend mode="normal" in2="feFloodId_B06E6F5E-3CAB-49D7-A9C7-5E1E46E3AFAB" result="dropShadow_1_B06E6F5E-3CAB-49D7-A9C7-5E1E46E3AFAB"/>
<feBlend mode="normal" in="SourceGraphic" in2="dropShadow_1_B06E6F5E-3CAB-49D7-A9C7-5E1E46E3AFAB" result="shape_B06E6F5E-3CAB-49D7-A9C7-5E1E46E3AFAB"/>
</filter>
<filter id="filter_976D40B7-8B40-48C3-92DD-23FA340724B6" x="325.75" y="74" width="227" height="130" filterUnits="userSpaceOnUse" color-interpolation-filters="sRGB">
<feFlood flood-opacity="0" result="feFloodId_976D40B7-8B40-48C3-92DD-23FA340724B6"/>
<feColorMatrix in="SourceAlpha" type="matrix" values="0 0 0 0 0 0 0 0 0 0 0 0 0 0 0 0 0 0 127 0" result="hardAlpha_976D40B7-8B40-48C3-92DD-23FA340724B6"/>
<feOffset dx="0" dy="4"/>
<feGaussianBlur stdDeviation="5"/>
<feComposite in2="hardAlpha_976D40B7-8B40-48C3-92DD-23FA340724B6" operator="out"/>
<feColorMatrix type="matrix" values="0 0 0 0 0.42745098039215684 0 0 0 0 0.42745098039215684 0 0 0 0 0.42745098039215684 0 0 0 0.3 0"/>
<feBlend mode="normal" in2="feFloodId_976D40B7-8B40-48C3-92DD-23FA340724B6" result="dropShadow_1_976D40B7-8B40-48C3-92DD-23FA340724B6"/>
<feBlend mode="normal" in="SourceGraphic" in2="dropShadow_1_976D40B7-8B40-48C3-92DD-23FA340724B6" result="shape_976D40B7-8B40-48C3-92DD-23FA340724B6"/>
</filter>
<filter id="filter_397D60F1-79EE-49D1-AFF6-C1CA0ADBF42E" x="346.75" y="94" width="72" height="89" filterUnits="userSpaceOnUse" color-interpolation-filters="sRGB">
<feFlood flood-opacity="0" result="feFloodId_397D60F1-79EE-49D1-AFF6-C1CA0ADBF42E"/>
<feColorMatrix in="SourceAlpha" type="matrix" values="0 0 0 0 0 0 0 0 0 0 0 0 0 0 0 0 0 0 127 0" result="hardAlpha_397D60F1-79EE-49D1-AFF6-C1CA0ADBF42E"/>
<feOffset dx="0" dy="4"/>
<feGaussianBlur stdDeviation="2"/>
<feComposite in2="hardAlpha_397D60F1-79EE-49D1-AFF6-C1CA0ADBF42E" operator="out"/>
<feColorMatrix type="matrix" values="0 0 0 0 0 0 0 0 0 0 0 0 0 0 0 0 0 0 0.01 0"/>
<feBlend mode="normal" in2="feFloodId_397D60F1-79EE-49D1-AFF6-C1CA0ADBF42E" result="dropShadow_1_397D60F1-79EE-49D1-AFF6-C1CA0ADBF42E"/>
<feBlend mode="normal" in="SourceGraphic" in2="dropShadow_1_397D60F1-79EE-49D1-AFF6-C1CA0ADBF42E" result="shape_397D60F1-79EE-49D1-AFF6-C1CA0ADBF42E"/>
</filter>
<filter id="filter_ABA41068-E31F-4A08-9B18-508E5D539A5C" x="171.75" y="0" width="227" height="73" filterUnits="userSpaceOnUse" color-interpolation-filters="sRGB">
<feFlood flood-opacity="0" result="feFloodId_ABA41068-E31F-4A08-9B18-508E5D539A5C"/>
<feColorMatrix in="SourceAlpha" type="matrix" values="0 0 0 0 0 0 0 0 0 0 0 0 0 0 0 0 0 0 127 0" result="hardAlpha_ABA41068-E31F-4A08-9B18-508E5D539A5C"/>
<feOffset dx="0" dy="4"/>
<feGaussianBlur stdDeviation="5"/>
<feComposite in2="hardAlpha_ABA41068-E31F-4A08-9B18-508E5D539A5C" operator="out"/>
<feColorMatrix type="matrix" values="0 0 0 0 0.42745098039215684 0 0 0 0 0.42745098039215684 0 0 0 0 0.42745098039215684 0 0 0 0.3 0"/>
<feBlend mode="normal" in2="feFloodId_ABA41068-E31F-4A08-9B18-508E5D539A5C" result="dropShadow_1_ABA41068-E31F-4A08-9B18-508E5D539A5C"/>
<feBlend mode="normal" in="SourceGraphic" in2="dropShadow_1_ABA41068-E31F-4A08-9B18-508E5D539A5C" result="shape_ABA41068-E31F-4A08-9B18-508E5D539A5C"/>
</filter>
</defs>
</svg>
