<svg xmlns="http://www.w3.org/2000/svg" xmlns:xlink="http://www.w3.org/1999/xlink" width="12" height="12" viewBox="0 0 12 12" fill="none">
<path d="M7.03272 7.98862C6.52063 8.39829 5.85491 8.63727 5.85491 8.63727C5.18919 8.87624 4.43812 8.87625 4.43812 8.87625C2.57752 8.87625 1.2891 7.58714 1.2891 7.58714C0.000682739 6.29804 0 4.43812 0 4.43812C0 2.57753 1.2891 1.2891 1.2891 1.2891C2.57821 0.000682739 4.43812 0 4.43812 0C6.29872 0 7.58782 1.2891 7.58782 1.2891C8.87693 2.57821 8.87624 4.43812 8.87624 4.43812C8.87624 5.18919 8.63727 5.85491 8.63727 5.85491C8.39829 6.52063 7.98862 7.03272 7.98862 7.03272L11.8122 10.8563C12 11.0441 12 11.3343 12 11.3343C12 11.6245 11.8122 11.8122 11.8122 11.8122C11.6245 12 11.3343 12 11.3343 12C11.0441 12 10.8563 11.8122 10.8563 11.8122L7.03272 7.98862ZM7.51067 4.43812C7.51067 4.43812 7.51135 5.71903 6.61485 6.61485C6.61485 6.61485 5.71835 7.51067 4.43812 7.51067C4.43812 7.51067 3.15858 7.51135 2.26208 6.61485C2.26208 6.61485 1.36558 5.71835 1.36558 4.43812C1.36558 4.43812 1.36626 3.15858 2.26208 2.26208C2.26208 2.26208 3.15789 1.36558 4.43812 1.36558C4.43812 1.36558 5.71903 1.36626 6.61485 2.26208C6.61485 2.26208 7.51067 3.15789 7.51067 4.43812Z" fill-rule="evenodd"  fill="#FFFFFF" >
</path>
</svg>
